<?xml version="1.0" encoding="UTF-8" standalone="no"?>
<svg
   width="16"
   height="16"
   id="svg11300"
   version="1.0"
   style="display:inline;enable-background:new"
   xmlns="http://www.w3.org/2000/svg"
   xmlns:svg="http://www.w3.org/2000/svg"
   xmlns:rdf="http://www.w3.org/1999/02/22-rdf-syntax-ns#"
   xmlns:cc="http://creativecommons.org/ns#"
   xmlns:dc="http://purl.org/dc/elements/1.1/">
  <title
     id="title3004">Suru Icon Theme Template</title>
  <defs
     id="defs3" />
  <metadata
     id="metadata4">
    <rdf:RDF>
      <cc:Work
         rdf:about="">
        <dc:format>image/svg+xml</dc:format>
        <dc:type
           rdf:resource="http://purl.org/dc/dcmitype/StillImage" />
        <dc:creator>
          <cc:Agent>
            <dc:title>Sam Hewitt</dc:title>
          </cc:Agent>
        </dc:creator>
        <dc:source />
        <dc:title>Suru Icon Theme Template</dc:title>
        <dc:subject>
          <rdf:Bag />
        </dc:subject>
        <dc:date />
        <dc:rights>
          <cc:Agent>
            <dc:title />
          </cc:Agent>
        </dc:rights>
        <dc:publisher>
          <cc:Agent>
            <dc:title />
          </cc:Agent>
        </dc:publisher>
        <dc:identifier />
        <dc:relation />
        <dc:language />
        <dc:coverage />
        <dc:description />
        <dc:contributor>
          <cc:Agent>
            <dc:title />
          </cc:Agent>
        </dc:contributor>
        <cc:license
           rdf:resource="http://creativecommons.org/licenses/by-sa/4.0/" />
      </cc:Work>
      <cc:Work
         rdf:about="">
        <dc:format>image/svg+xml</dc:format>
        <dc:type
           rdf:resource="http://purl.org/dc/dcmitype/StillImage" />
      </cc:Work>
      <cc:License
         rdf:about="http://creativecommons.org/licenses/by-sa/4.0/">
        <cc:permits
           rdf:resource="http://creativecommons.org/ns#Reproduction" />
        <cc:permits
           rdf:resource="http://creativecommons.org/ns#Distribution" />
        <cc:requires
           rdf:resource="http://creativecommons.org/ns#Notice" />
        <cc:requires
           rdf:resource="http://creativecommons.org/ns#Attribution" />
        <cc:permits
           rdf:resource="http://creativecommons.org/ns#DerivativeWorks" />
        <cc:requires
           rdf:resource="http://creativecommons.org/ns#ShareAlike" />
      </cc:License>
    </rdf:RDF>
  </metadata>
  <g
     style="display:inline"
     id="layer1"
     transform="translate(-320,-254)">
    <g
       id="layer8"
       style="display:inline">
      <g
         id="g6"
         transform="translate(0,3.0001728)">
        <path
           style="opacity:1;fill:#808080;fill-opacity:1"
           d="m 323.74219,252 c -0.75078,-0.004 -1.35101,0.0259 -1.85547,0.13281 -0.50552,0.10717 -0.93542,0.30822 -1.24219,0.65039 C 320.03099,253.46756 320,254.44841 320,255.91406 v 6.17188 c 0,1.4653 0.0327,2.4448 0.64648,3.12695 0.30691,0.34108 0.73544,0.54055 1.24024,0.64844 0.5048,0.10789 1.10291,0.13867 1.85547,0.13867 H 328 h 4.25781 c 0.75256,0 1.35067,-0.0308 1.85547,-0.13867 0.5048,-0.10789 0.93333,-0.30736 1.24024,-0.64844 0.6138,-0.68215 0.64648,-1.66165 0.64648,-3.12695 v -6.17188 c 0,-1.46566 -0.031,-2.4465 -0.64453,-3.13086 -0.30677,-0.34218 -0.73667,-0.54322 -1.24219,-0.65039 -0.50446,-0.10694 -1.10469,-0.13655 -1.85547,-0.13281 H 328 323.74609 Z m -0.002,0.97656 h 0.002 4.25781 4.25781 0.002 c 0.72298,-0.004 1.26893,0.0305 1.65039,0.11133 0.38145,0.0809 0.57893,0.19388 0.71679,0.34766 0.27574,0.30756 0.39649,1.04685 0.39649,2.47851 v 6.17188 c 0,1.4313 -0.11907,2.16652 -0.39453,2.47265 -0.13774,0.15307 -0.33853,0.26598 -0.72071,0.34766 -0.38217,0.0817 -0.92695,0.11719 -1.65039,0.11719 H 328 323.74219 c -0.72343,0 -1.26822,-0.0355 -1.65039,-0.11719 -0.38218,-0.0817 -0.58297,-0.19459 -0.72071,-0.34766 -0.27546,-0.30613 -0.39453,-1.04135 -0.39453,-2.47265 v -6.17188 c 0,-1.43166 0.12075,-2.17096 0.39649,-2.47851 0.13786,-0.15378 0.33534,-0.26679 0.71679,-0.34766 0.38146,-0.0809 0.92741,-0.11505 1.65039,-0.11133 z"
           id="path958-6-0-7" />
        <g
           transform="matrix(0.7919605,0,0,0.75166585,300.71931,212.3299)"
           id="g5-2-3-9-61-0"
           style="clip-rule:evenodd;display:inline;fill:#808080;fill-opacity:1;fill-rule:evenodd;stroke-linejoin:round;stroke-miterlimit:2;enable-background:new">
          <path
             d="m 32.534,61.245 c 0,-1.788 -2.04,-1.716 -3.227,-2.352 -0.205,-0.108 -0.301,-0.252 -0.301,-0.42 0,-0.468 0.529,-0.492 1.188,-0.492 0.432,0 0.985,0.096 1.645,0.288 l 0.383,-1.188 c -0.551,-0.156 -1.067,-0.276 -1.56,-0.324 v -1.32 h -1.283 v 1.332 c -1.116,0.144 -1.812,0.612 -1.812,1.644 0,1.872 1.968,1.824 3.227,2.472 0.169,0.084 0.253,0.192 0.253,0.336 0,0.54 -0.541,0.6 -1.212,0.6 -0.66,0 -1.488,-0.264 -2.052,-0.456 l -0.432,1.211 c 0.66,0.3 1.343,0.48 2.028,0.54 v 1.596 h 1.283 v -1.656 c 1.081,-0.192 1.872,-0.743 1.872,-1.811 z"
             style="fill:#808080;fill-opacity:1;fill-rule:nonzero"
             id="path5-3-9-5-3-8-2" />
        </g>
      </g>
      <rect
         style="opacity:0;fill:#808080;fill-opacity:0.187563;stroke-width:4.56257;-inkscape-stroke:none"
         id="rect6"
         width="16"
         height="16"
         x="320"
         y="254" />
    </g>
  </g>
</svg>
