<?xml version="1.0" encoding="UTF-8" standalone="no"?>
<!-- Created with Inkscape (http://www.inkscape.org/) -->

<svg
   inkscape:export-ydpi="96"
   inkscape:export-xdpi="96"
   width="16.000366"
   height="16"
   id="svg11300"
   sodipodi:version="0.32"
   inkscape:version="1.4 (1:1.4+202410161351+e7c3feb100)"
   sodipodi:docname="idea.svg"
   inkscape:output_extension="org.inkscape.output.svg.inkscape"
   version="1.0"
   style="display:inline;enable-background:new"
   inkscape:export-filename="C:\Users\sblav\Pictures\vertical oblong template.png"
   xmlns:inkscape="http://www.inkscape.org/namespaces/inkscape"
   xmlns:sodipodi="http://sodipodi.sourceforge.net/DTD/sodipodi-0.dtd"
   xmlns="http://www.w3.org/2000/svg"
   xmlns:svg="http://www.w3.org/2000/svg"
   xmlns:rdf="http://www.w3.org/1999/02/22-rdf-syntax-ns#"
   xmlns:cc="http://creativecommons.org/ns#"
   xmlns:dc="http://purl.org/dc/elements/1.1/">
  <title
     id="title3004">Yaru Icon Theme Template</title>
  <sodipodi:namedview
     stroke="#ef2929"
     fill="#f57900"
     id="base"
     pagecolor="#ffffff"
     bordercolor="#000000"
     borderopacity="0.25490196"
     inkscape:pageopacity="0"
     inkscape:pageshadow="2"
     inkscape:zoom="44.498143"
     inkscape:cx="327.95751"
     inkscape:cy="260.1794"
     inkscape:current-layer="layer6"
     showgrid="true"
     inkscape:grid-bbox="true"
     inkscape:document-units="px"
     inkscape:showpageshadow="false"
     inkscape:window-width="1860"
     inkscape:window-height="1011"
     inkscape:window-x="0"
     inkscape:window-y="0"
     width="400px"
     height="300px"
     inkscape:snap-nodes="true"
     inkscape:snap-bbox="true"
     gridtolerance="10000"
     inkscape:object-nodes="true"
     inkscape:snap-grids="true"
     showguides="true"
     inkscape:guide-bbox="true"
     inkscape:window-maximized="1"
     inkscape:bbox-paths="true"
     inkscape:snap-bbox-midpoints="true"
     inkscape:snap-global="true"
     inkscape:object-paths="true"
     inkscape:snap-intersection-paths="true"
     inkscape:snap-smooth-nodes="true"
     inkscape:pagecheckerboard="false"
     showborder="false"
     inkscape:deskcolor="#d1d1d1">
    <inkscape:grid
       id="grid8"
       units="px"
       originx="-320"
       originy="-254"
       spacingx="1"
       spacingy="1"
       empcolor="#0099e5"
       empopacity="0.30196078"
       color="#0099e5"
       opacity="0.14901961"
       empspacing="4"
       dotted="false"
       gridanglex="30"
       gridanglez="30"
       visible="true" />
    <inkscape:page
       x="0"
       y="0"
       width="16.000366"
       height="16"
       id="page2"
       margin="0"
       bleed="0" />
  </sodipodi:namedview>
  <defs
     id="defs3" />
  <metadata
     id="metadata4">
    <rdf:RDF>
      <cc:Work
         rdf:about="">
        <dc:format>image/svg+xml</dc:format>
        <dc:type
           rdf:resource="http://purl.org/dc/dcmitype/StillImage" />
        <dc:creator>
          <cc:Agent>
            <dc:title>Yaru Team, based on the Suru template by Sam Hewitt</dc:title>
          </cc:Agent>
        </dc:creator>
        <dc:source />
        <dc:title>Yaru Icon Theme Template</dc:title>
        <dc:subject>
          <rdf:Bag />
        </dc:subject>
        <dc:date />
        <dc:rights>
          <cc:Agent>
            <dc:title />
          </cc:Agent>
        </dc:rights>
        <dc:publisher>
          <cc:Agent>
            <dc:title />
          </cc:Agent>
        </dc:publisher>
        <dc:identifier />
        <dc:relation />
        <dc:language />
        <dc:coverage />
        <dc:description />
        <dc:contributor>
          <cc:Agent>
            <dc:title />
          </cc:Agent>
        </dc:contributor>
        <cc:license
           rdf:resource="http://creativecommons.org/licenses/by-sa/4.0/" />
      </cc:Work>
      <cc:Work
         rdf:about="">
        <dc:format>image/svg+xml</dc:format>
        <dc:type
           rdf:resource="http://purl.org/dc/dcmitype/StillImage" />
      </cc:Work>
      <cc:License
         rdf:about="http://creativecommons.org/licenses/by-sa/4.0/">
        <cc:permits
           rdf:resource="http://creativecommons.org/ns#Reproduction" />
        <cc:permits
           rdf:resource="http://creativecommons.org/ns#Distribution" />
        <cc:requires
           rdf:resource="http://creativecommons.org/ns#Notice" />
        <cc:requires
           rdf:resource="http://creativecommons.org/ns#Attribution" />
        <cc:permits
           rdf:resource="http://creativecommons.org/ns#DerivativeWorks" />
        <cc:requires
           rdf:resource="http://creativecommons.org/ns#ShareAlike" />
      </cc:License>
    </rdf:RDF>
  </metadata>
  <g
     style="display:inline"
     inkscape:groupmode="layer"
     inkscape:label="Icon"
     id="layer1"
     transform="translate(-320,-254)">
    <g
       style="display:inline"
       inkscape:label="Baseplate"
       id="layer7"
       inkscape:groupmode="layer">
      <rect
         style="display:inline;opacity:0;fill:#2c2c2c;fill-opacity:0;stroke-width:0.10328;enable-background:new"
         id="rect1"
         width="16"
         height="16"
         x="320"
         y="254"
         inkscape:label="16x16-symbolic"
         inkscape:export-filename="../UbuntuProjects/YaruX/apps/scalable/idea-symbolic.svg"
         inkscape:export-xdpi="96"
         inkscape:export-ydpi="96" />
    </g>
    <g
       inkscape:groupmode="layer"
       id="layer6"
       inkscape:label="Pictograms"
       style="display:inline">
      <path
         d="m 330,257.00589 v 4.19141 c 0,0.44625 -0.35426,0.80273 -0.80469,0.80273 -0.34286,0 -0.47257,-0.0177 -0.58984,-0.0723 -0.11728,-0.0546 -0.28834,-0.19263 -0.60547,-0.50976 l -0.70898,0.70703 c 0.33532,0.33533 0.57839,0.56269 0.89257,0.70898 0.31419,0.1463 0.6339,0.16602 1.01172,0.16602 C 330.18625,263 331,262.18632 331,261.19727 V 257 Z"
         style="fill:#808080"
         id="path6"
         sodipodi:nodetypes="csssccssscc" />
      <path
         d="m 323,257 v 1 h 1 v 4 h -1 v 1 h 3 v -1 h -1 v -4 h 1 v -1 z m 0,9 v 1 h 5 v -1 z"
         style="fill:#808080"
         id="path5" />
    </g>
    <g
       inkscape:groupmode="layer"
       id="layer4"
       inkscape:label="Highlights"
       style="display:inline;opacity:1">
      <path
         style="fill:#808080"
         d="m 324.44531,254 c -1.6832,0 -2.76293,0.0257 -3.53125,0.625 -0.38416,0.29965 -0.6253,0.74023 -0.75195,1.25391 C 320.03546,256.39259 320,256.99595 320,257.75 v 4.25 4.25 c 0,0.75405 0.0355,1.35741 0.16211,1.87109 0.12665,0.51368 0.36779,0.95426 0.75195,1.25391 0.76832,0.5993 1.84805,0.625 3.53125,0.625 h 7.10938 c 1.68361,0 2.76644,-0.026 3.53711,-0.625 0.38533,-0.29947 0.62807,-0.73937 0.7539,-1.25391 0.1257,-0.514 0.15871,-1.11762 0.1543,-1.87109 V 266.248 262 257.75195 257.75 c 0.004,-0.75347 -0.0286,-1.35709 -0.1543,-1.87109 -0.12583,-0.51454 -0.36857,-0.95444 -0.7539,-1.25391 -0.77067,-0.59894 -1.8535,-0.625 -3.53711,-0.625 z m 0,1 h 7.10938 c 1.65343,0 2.55204,0.12512 2.92383,0.41406 0.18589,0.14448 0.30574,0.33208 0.39648,0.70313 0.0907,0.37105 0.12927,0.90979 0.125,1.6289 v 0.002 4.25195 4.25195 0.002 c 0.004,0.71911 -0.0343,1.25785 -0.125,1.6289 -0.0907,0.37105 -0.21059,0.55865 -0.39648,0.70313 -0.3718,0.28895 -1.2704,0.41406 -2.92383,0.41406 h -7.10938 c -1.65302,0 -2.54604,-0.12548 -2.91601,-0.41406 -0.18499,-0.14429 -0.30479,-0.33122 -0.39649,-0.70313 C 321.04112,267.5109 321,266.96964 321,266.25 V 262 257.75 c 0,-0.71964 0.0411,-1.2609 0.13281,-1.63281 0.0917,-0.37191 0.2115,-0.55884 0.39649,-0.70313 C 321.89927,255.12548 322.79229,255 324.44531,255 Z"
         id="path958-6-0-5" />
    </g>
  </g>
</svg>
