<?xml version="1.0" encoding="UTF-8" standalone="no"?>
<!-- Created with Inkscape (http://www.inkscape.org/) -->

<svg
   inkscape:export-ydpi="96"
   inkscape:export-xdpi="96"
   width="400"
   height="300"
   id="svg11300"
   sodipodi:version="0.32"
   inkscape:version="1.4 (1:1.4+202410161351+e7c3feb100)"
   sodipodi:docname="vert.svg"
   inkscape:output_extension="org.inkscape.output.svg.inkscape"
   version="1.0"
   style="display:inline;enable-background:new"
   inkscape:export-filename="C:\Users\sblav\Pictures\vertical oblong template.png"
   xmlns:inkscape="http://www.inkscape.org/namespaces/inkscape"
   xmlns:sodipodi="http://sodipodi.sourceforge.net/DTD/sodipodi-0.dtd"
   xmlns:xlink="http://www.w3.org/1999/xlink"
   xmlns="http://www.w3.org/2000/svg"
   xmlns:svg="http://www.w3.org/2000/svg"
   xmlns:rdf="http://www.w3.org/1999/02/22-rdf-syntax-ns#"
   xmlns:cc="http://creativecommons.org/ns#"
   xmlns:dc="http://purl.org/dc/elements/1.1/">
  <title
     id="title3004">Yaru Icon Theme Template</title>
  <sodipodi:namedview
     stroke="#ef2929"
     fill="#f57900"
     id="base"
     pagecolor="#ffffff"
     bordercolor="#000000"
     borderopacity="0.25490196"
     inkscape:pageopacity="0"
     inkscape:pageshadow="2"
     inkscape:zoom="1.7186601"
     inkscape:cx="246.12196"
     inkscape:cy="50.911753"
     inkscape:current-layer="layer8"
     showgrid="false"
     inkscape:grid-bbox="true"
     inkscape:document-units="px"
     inkscape:showpageshadow="false"
     inkscape:window-width="1860"
     inkscape:window-height="1011"
     inkscape:window-x="0"
     inkscape:window-y="0"
     width="400px"
     height="300px"
     inkscape:snap-nodes="true"
     inkscape:snap-bbox="true"
     gridtolerance="10000"
     inkscape:object-nodes="true"
     inkscape:snap-grids="true"
     showguides="true"
     inkscape:guide-bbox="true"
     inkscape:window-maximized="1"
     inkscape:bbox-paths="true"
     inkscape:snap-bbox-midpoints="true"
     inkscape:snap-global="true"
     inkscape:object-paths="true"
     inkscape:snap-intersection-paths="true"
     inkscape:snap-smooth-nodes="true"
     inkscape:pagecheckerboard="false"
     showborder="false"
     inkscape:deskcolor="#d1d1d1">
    <inkscape:grid
       spacingy="1"
       spacingx="1"
       id="grid5883"
       type="xygrid"
       enabled="true"
       visible="false"
       empspacing="4"
       snapvisiblegridlinesonly="true"
       originx="0"
       originy="0"
       units="px" />
    <inkscape:grid
       type="xygrid"
       id="grid11592"
       empspacing="2"
       visible="true"
       enabled="false"
       spacingx="0.5"
       spacingy="0.5"
       color="#ff0000"
       opacity="0.1254902"
       empcolor="#ff0000"
       empopacity="0.25098039"
       snapvisiblegridlinesonly="true"
       originx="0"
       originy="0"
       units="px" />
  </sodipodi:namedview>
  <defs
     id="defs3">
    <linearGradient
       id="linearGradient4"
       inkscape:collect="always">
      <stop
         style="stop-color:#000000;stop-opacity:1;"
         offset="0"
         id="stop3" />
      <stop
         style="stop-color:#ffda64;stop-opacity:1;"
         offset="0.9433766"
         id="stop4" />
    </linearGradient>
    <clipPath
       clipPathUnits="userSpaceOnUse"
       id="clipPath9430">
      <path
         sodipodi:nodetypes="sssssssss"
         inkscape:connector-curvature="0"
         id="path9432"
         d="m 166.0625,-196 h 179.875 C 491.2348,-196 512,-175.28677 512,-30.125 v 148.25 C 512,263.28618 491.2348,284 345.9375,284 H 166.0625 C 20.7652,284 0,263.28618 0,118.125 V -30.125 C 0,-175.28677 20.7652,-196 166.0625,-196 Z"
         style="color:#000000;display:inline;overflow:visible;visibility:visible;fill:#ffffff;fill-opacity:1;fill-rule:nonzero;stroke:none;stroke-width:1;marker:none;enable-background:new" />
    </clipPath>
    <clipPath
       clipPathUnits="userSpaceOnUse"
       id="clipPath1082">
      <path
         sodipodi:nodetypes="sssssssss"
         inkscape:connector-curvature="0"
         id="path1084"
         d="M 361.9375,-212 C 507.2348,-212 528,-191.28677 528,-46.125 V 70.125 C 528,215.28618 507.2348,236 361.9375,236 H 214.0625 C 68.7652,236 48,215.28618 48,70.125 V -46.125 C 48,-191.28677 68.7652,-212 214.0625,-212 Z"
         style="display:inline;opacity:1;fill:#8c59d9;fill-opacity:1;stroke:none;stroke-width:2;stroke-linecap:round;stroke-linejoin:round;stroke-miterlimit:4;stroke-dasharray:none;stroke-dashoffset:0;stroke-opacity:1;enable-background:new" />
    </clipPath>
    <clipPath
       clipPathUnits="userSpaceOnUse"
       id="clipPath994">
      <path
         style="color:#000000;display:inline;overflow:visible;visibility:visible;fill:#cdcdcd;fill-opacity:1;fill-rule:nonzero;stroke:none;stroke-width:2;stroke-miterlimit:4;stroke-dasharray:none;stroke-opacity:1;marker:none;enable-background:accumulate"
         d="m 335.73108,62 c -8.82418,0 -9.77365,0.90635 -9.7304,9.74838 V 84 96.25162 c -0.0433,8.84203 0.90622,9.74838 9.7304,9.74838 h 16.53919 c 8.82418,0 9.7304,-0.90625 9.7304,-9.74838 V 84 71.74838 C 362.00067,62.90625 361.09445,62 352.27027,62 Z"
         id="path996"
         inkscape:connector-curvature="0"
         sodipodi:nodetypes="scccssscsss" />
    </clipPath>
    <clipPath
       clipPathUnits="userSpaceOnUse"
       id="clipPath959">
      <path
         style="color:#000000;display:inline;overflow:visible;visibility:visible;opacity:1;fill:#46a926;fill-opacity:1;fill-rule:nonzero;stroke:none;stroke-width:2;stroke-miterlimit:4;stroke-dasharray:none;stroke-opacity:1;marker:none;enable-background:accumulate"
         d="m 330.1929,133.99999 c -5.61538,0 -6.21958,0.57678 -6.19206,6.20352 v 7.79648 7.79648 c -0.0276,5.62673 0.57668,6.20351 6.19206,6.20351 h 11.615 c 5.6154,0 6.19208,-0.5767 6.19208,-6.20351 v -7.79648 -7.79648 c 0,-5.6268 -0.5767,-6.20352 -6.19208,-6.20352 z"
         id="path961"
         inkscape:connector-curvature="0"
         sodipodi:nodetypes="scccssscsss" />
    </clipPath>
    <clipPath
       clipPathUnits="userSpaceOnUse"
       id="clipPath971">
      <path
         style="color:#000000;display:inline;overflow:visible;visibility:visible;opacity:1;fill:#46a926;fill-opacity:1;fill-rule:nonzero;stroke:none;stroke-width:2;stroke-miterlimit:4;stroke-dasharray:none;stroke-opacity:1;marker:none;enable-background:accumulate"
         d="m 327.8652,189 c -4.41209,0 -4.88682,0.45318 -4.8652,4.87419 V 200 206.12581 C 322.9783,210.54682 323.45311,211 327.8652,211 h 8.2696 C 340.54689,211 341,210.54688 341,206.12581 V 200 193.87419 C 341,189.45313 340.54688,189 336.13479,189 Z"
         id="path973"
         inkscape:connector-curvature="0"
         sodipodi:nodetypes="scccssscsss" />
    </clipPath>
    <clipPath
       clipPathUnits="userSpaceOnUse"
       id="clipPath983">
      <path
         sodipodi:nodetypes="scccssscsss"
         inkscape:connector-curvature="0"
         id="path985"
         d="m 325.09646,237 c -2.80769,0 -3.10979,0.28839 -3.09603,3.10176 V 244 v 3.89824 c -0.0138,2.81337 0.28834,3.10176 3.09603,3.10176 h 5.8075 C 333.71166,251 334,250.71165 334,247.89824 V 244 240.10176 C 334,237.28836 333.71165,237 330.90396,237 Z"
         style="color:#000000;display:inline;overflow:visible;visibility:visible;opacity:1;fill:#46a926;fill-opacity:1;fill-rule:nonzero;stroke:none;stroke-width:2;stroke-miterlimit:4;stroke-dasharray:none;stroke-opacity:1;marker:none;enable-background:accumulate" />
    </clipPath>
    <linearGradient
       id="linearGradient4336-3">
      <stop
         style="stop-color:#5884f4;stop-opacity:1"
         offset="0"
         id="stop4338-8" />
      <stop
         id="stop4344-3"
         offset="0.27800092"
         style="stop-color:#5884f4;stop-opacity:1" />
      <stop
         style="stop-color:#2f5fdd;stop-opacity:1"
         offset="0.27800092"
         id="stop4346-3" />
      <stop
         id="stop4350-1"
         offset="0.70735365"
         style="stop-color:#2f5fdd;stop-opacity:1" />
      <stop
         id="stop4348-6"
         offset="0.70936078"
         style="stop-color:#234db8;stop-opacity:1" />
      <stop
         style="stop-color:#234db8;stop-opacity:1"
         offset="1"
         id="stop4340-0" />
    </linearGradient>
    <clipPath
       clipPathUnits="userSpaceOnUse"
       id="clipPath994-1">
      <path
         style="color:#000000;display:inline;overflow:visible;visibility:visible;fill:#cdcdcd;fill-opacity:1;fill-rule:nonzero;stroke:none;stroke-width:2;stroke-miterlimit:4;stroke-dasharray:none;stroke-opacity:1;marker:none;enable-background:accumulate"
         d="m 335.73108,62 c -8.82418,0 -9.77365,0.90635 -9.7304,9.74838 V 84 96.25162 c -0.0433,8.84203 0.90622,9.74838 9.7304,9.74838 h 16.53919 c 8.82418,0 9.7304,-0.90625 9.7304,-9.74838 V 84 71.74838 C 362.00067,62.90625 361.09445,62 352.27027,62 Z"
         id="path996-8"
         inkscape:connector-curvature="0"
         sodipodi:nodetypes="scccssscsss" />
    </clipPath>
    <linearGradient
       inkscape:collect="always"
       id="linearGradient927">
      <stop
         style="stop-color:#ffffff;stop-opacity:1;"
         offset="0"
         id="stop923" />
      <stop
         id="stop933"
         offset="0.125"
         style="stop-color:#ffffff;stop-opacity:0.09803922" />
      <stop
         id="stop931"
         offset="0.92500001"
         style="stop-color:#ffffff;stop-opacity:0.09803922" />
      <stop
         style="stop-color:#ffffff;stop-opacity:0.49803922"
         offset="1"
         id="stop925" />
    </linearGradient>
    <clipPath
       clipPathUnits="userSpaceOnUse"
       id="clipPath994-1-2">
      <path
         style="color:#000000;display:inline;overflow:visible;visibility:visible;fill:#cdcdcd;fill-opacity:1;fill-rule:nonzero;stroke:none;stroke-width:2;stroke-miterlimit:4;stroke-dasharray:none;stroke-opacity:1;marker:none;enable-background:accumulate"
         d="m 335.73108,62 c -8.82418,0 -9.77365,0.90635 -9.7304,9.74838 V 84 96.25162 c -0.0433,8.84203 0.90622,9.74838 9.7304,9.74838 h 16.53919 c 8.82418,0 9.7304,-0.90625 9.7304,-9.74838 V 84 71.74838 C 362.00067,62.90625 361.09445,62 352.27027,62 Z"
         id="path996-8-2"
         inkscape:connector-curvature="0"
         sodipodi:nodetypes="scccssscsss" />
    </clipPath>
    <linearGradient
       inkscape:collect="always"
       xlink:href="#linearGradient4338-7"
       id="linearGradient3257"
       x1="330.0751"
       y1="133.5"
       x2="341.92554"
       y2="162.5"
       gradientUnits="userSpaceOnUse" />
    <linearGradient
       inkscape:collect="always"
       xlink:href="#linearGradient4338-7"
       id="linearGradient920"
       gradientUnits="userSpaceOnUse"
       gradientTransform="matrix(0,-0.0386186,0.03904659,0,315.4715,253.54546)"
       x1="441.37933"
       y1="240.28154"
       x2="52.9655"
       y2="401.42957" />
    <linearGradient
       inkscape:collect="always"
       xlink:href="#linearGradient4338-7"
       id="linearGradient916"
       gradientUnits="userSpaceOnUse"
       gradientTransform="matrix(0,-0.05921519,0.05978336,0,313.2699,214.63635)"
       x1="441.37936"
       y1="240.30258"
       x2="52.965523"
       y2="386.30795" />
    <linearGradient
       inkscape:collect="always"
       xlink:href="#linearGradient927"
       id="linearGradient2908"
       gradientUnits="userSpaceOnUse"
       x1="344"
       y1="62"
       x2="344"
       y2="106" />
    <clipPath
       clipPathUnits="userSpaceOnUse"
       id="clipPath994-1-2-9">
      <path
         style="color:#000000;display:inline;overflow:visible;visibility:visible;fill:#cdcdcd;fill-opacity:1;fill-rule:nonzero;stroke:none;stroke-width:2;stroke-miterlimit:4;stroke-dasharray:none;stroke-opacity:1;marker:none;enable-background:accumulate"
         d="m 335.73108,62 c -8.82418,0 -9.77365,0.90635 -9.7304,9.74838 V 84 96.25162 c -0.0433,8.84203 0.90622,9.74838 9.7304,9.74838 h 16.53919 c 8.82418,0 9.7304,-0.90625 9.7304,-9.74838 V 84 71.74838 C 362.00067,62.90625 361.09445,62 352.27027,62 Z"
         id="path996-8-2-4"
         inkscape:connector-curvature="0"
         sodipodi:nodetypes="scccssscsss" />
    </clipPath>
    <linearGradient
       inkscape:collect="always"
       id="linearGradient4338-7">
      <stop
         id="stop4342-6"
         offset="0"
         style="stop-color:#5884f4;stop-opacity:1" />
      <stop
         id="stop4340-2"
         offset="1"
         style="stop-color:#80a3fa;stop-opacity:1" />
    </linearGradient>
    <linearGradient
       inkscape:collect="always"
       xlink:href="#linearGradient927"
       id="linearGradient920-6"
       gradientUnits="userSpaceOnUse"
       gradientTransform="matrix(0,-0.0386186,0.03904659,0,315.4715,253.54546)"
       x1="428.4324"
       y1="320.86029"
       x2="65.912796"
       y2="320.86029" />
    <linearGradient
       inkscape:collect="always"
       xlink:href="#linearGradient927"
       id="linearGradient916-2"
       gradientUnits="userSpaceOnUse"
       gradientTransform="matrix(0,-0.05921519,0.05978336,0,313.2699,214.63635)"
       x1="432.93536"
       y1="313.29956"
       x2="61.409073"
       y2="313.29956" />
    <linearGradient
       inkscape:collect="always"
       xlink:href="#linearGradient2"
       id="linearGradient70"
       x1="108.08458"
       y1="44"
       x2="201.08398"
       y2="268"
       gradientUnits="userSpaceOnUse"
       gradientTransform="translate(0.00590914)" />
    <linearGradient
       id="linearGradient2"
       inkscape:collect="always">
      <stop
         style="stop-color:#f8bd02;stop-opacity:1;"
         offset="0"
         id="stop1" />
      <stop
         style="stop-color:#ffda64;stop-opacity:1;"
         offset="0.9433766"
         id="stop2" />
    </linearGradient>
    <linearGradient
       inkscape:collect="always"
       xlink:href="#linearGradient35"
       id="linearGradient36"
       x1="152.27934"
       y1="108.41991"
       x2="152.18945"
       y2="74.552734"
       gradientUnits="userSpaceOnUse"
       gradientTransform="translate(0.00590914)" />
    <linearGradient
       id="linearGradient35"
       inkscape:collect="always">
      <stop
         style="stop-color:#ffffff;stop-opacity:0.30000001;"
         offset="0"
         id="stop35" />
      <stop
         style="stop-color:#000000;stop-opacity:0.2;"
         offset="1"
         id="stop36" />
    </linearGradient>
    <linearGradient
       inkscape:collect="always"
       xlink:href="#linearGradient27"
       id="linearGradient25"
       gradientUnits="userSpaceOnUse"
       gradientTransform="matrix(4.9780285,0,0,-4.9780285,-1560.5238,445.13004)"
       x1="331.93137"
       y1="80.580391"
       x2="353.87698"
       y2="35.582039" />
    <linearGradient
       id="linearGradient27"
       inkscape:collect="always">
      <stop
         style="stop-color:#eab305;stop-opacity:1;"
         offset="0"
         id="stop26" />
      <stop
         style="stop-color:#000000;stop-opacity:1;"
         offset="1"
         id="stop27" />
    </linearGradient>
    <filter
       inkscape:collect="always"
       style="color-interpolation-filters:sRGB"
       id="filter17"
       x="-0.048000002"
       y="-0.048000002"
       width="1.096"
       height="1.096">
      <feGaussianBlur
         inkscape:collect="always"
         stdDeviation="1.44"
         id="feGaussianBlur17" />
    </filter>
    <linearGradient
       inkscape:collect="always"
       xlink:href="#linearGradient13"
       id="linearGradient12"
       x1="152.2207"
       y1="130.85547"
       x2="152.2207"
       y2="51.648438"
       gradientUnits="userSpaceOnUse"
       gradientTransform="translate(0.00590914)" />
    <linearGradient
       id="linearGradient13"
       inkscape:collect="always">
      <stop
         style="stop-color:#000000;stop-opacity:0.2;"
         offset="0"
         id="stop12" />
      <stop
         style="stop-color:#ffffff;stop-opacity:0.40000001;"
         offset="0.67001384"
         id="stop13" />
    </linearGradient>
    <linearGradient
       inkscape:collect="always"
       xlink:href="#linearGradient19"
       id="linearGradient20"
       x1="152.05273"
       y1="66.869141"
       x2="152.18164"
       y2="115.86914"
       gradientUnits="userSpaceOnUse"
       gradientTransform="translate(0.12312914,0.117187)" />
    <linearGradient
       id="linearGradient19"
       inkscape:collect="always">
      <stop
         style="stop-color:#000000;stop-opacity:0.2;"
         offset="0"
         id="stop19" />
      <stop
         style="stop-color:#ffffff;stop-opacity:0.30000001;"
         offset="0.62663144"
         id="stop20" />
    </linearGradient>
    <filter
       style="color-interpolation-filters:sRGB"
       inkscape:label="Drop Shadow"
       id="filter113"
       x="-0.027353994"
       y="-0.029537722"
       width="1.0661055"
       height="1.0713828">
      <feFlood
         result="flood"
         in="SourceGraphic"
         flood-opacity="0.400000"
         flood-color="rgb(75,58,0)"
         id="feFlood112" />
      <feGaussianBlur
         result="blur"
         in="SourceGraphic"
         stdDeviation="1.000000"
         id="feGaussianBlur112" />
      <feOffset
         result="offset"
         in="blur"
         dx="1.000000"
         dy="1.000000"
         id="feOffset112" />
      <feComposite
         result="comp1"
         operator="out"
         in="flood"
         in2="offset"
         id="feComposite112" />
      <feComposite
         result="comp2"
         operator="atop"
         in="comp1"
         in2="SourceGraphic"
         id="feComposite113" />
    </filter>
    <linearGradient
       inkscape:collect="always"
       xlink:href="#linearGradient4"
       id="linearGradient1"
       gradientUnits="userSpaceOnUse"
       gradientTransform="translate(0.005906)"
       x1="108.08458"
       y1="44"
       x2="201.08398"
       y2="268" />
    <filter
       inkscape:collect="always"
       style="color-interpolation-filters:sRGB"
       id="filter1"
       x="-0.054542748"
       y="-0.042858813"
       width="1.1090855"
       height="1.0857176">
      <feGaussianBlur
         inkscape:collect="always"
         stdDeviation="4.0001559"
         id="feGaussianBlur1" />
    </filter>
    <linearGradient
       inkscape:collect="always"
       xlink:href="#linearGradient4"
       id="linearGradient5"
       gradientUnits="userSpaceOnUse"
       gradientTransform="matrix(0.9999982,0,0,1.0000001,0.006723,-1.2e-5)"
       x1="108.08458"
       y1="44"
       x2="201.08398"
       y2="268" />
    <filter
       inkscape:collect="always"
       style="color-interpolation-filters:sRGB"
       id="filter5"
       x="-0.013635701"
       y="-0.010714695"
       width="1.0272714"
       height="1.0214294">
      <feGaussianBlur
         inkscape:collect="always"
         stdDeviation="1.0000383"
         id="feGaussianBlur5" />
    </filter>
    <filter
       inkscape:collect="always"
       style="color-interpolation-filters:sRGB"
       id="filter5-4"
       x="-0.013635701"
       y="-0.010714695"
       width="1.0272714"
       height="1.0214294">
      <feGaussianBlur
         inkscape:collect="always"
         stdDeviation="1.0000383"
         id="feGaussianBlur5-8" />
    </filter>
    <linearGradient
       inkscape:collect="always"
       xlink:href="#linearGradient4"
       id="linearGradient6"
       gradientUnits="userSpaceOnUse"
       gradientTransform="matrix(0.9999982,0,0,1.0000001,0.006719,-1.2e-5)"
       x1="108.08458"
       y1="44"
       x2="201.08398"
       y2="268" />
    <linearGradient
       inkscape:collect="always"
       xlink:href="#linearGradient69"
       id="linearGradient86"
       gradientUnits="userSpaceOnUse"
       gradientTransform="matrix(1,0,0,-1,0.01623799,142.08009)"
       x1="331.93137"
       y1="80.580391"
       x2="353.87698"
       y2="35.582039" />
    <linearGradient
       id="linearGradient69"
       inkscape:collect="always">
      <stop
         style="stop-color:#fdc92b;stop-opacity:1;"
         offset="0.30904755"
         id="stop69" />
      <stop
         style="stop-color:#ffda64;stop-opacity:1;"
         offset="0.98753446"
         id="stop70" />
    </linearGradient>
    <linearGradient
       inkscape:collect="always"
       xlink:href="#linearGradient927"
       id="linearGradient98"
       x1="344.01758"
       y1="62.095703"
       x2="344.01562"
       y2="106.09375"
       gradientUnits="userSpaceOnUse"
       gradientTransform="translate(0.01622999,-0.095703)" />
    <filter
       style="color-interpolation-filters:sRGB"
       inkscape:label="Drop Shadow"
       id="filter139"
       x="0"
       y="0"
       width="1.015"
       height="1.0147114">
      <feFlood
         result="flood"
         in="SourceGraphic"
         flood-opacity="0.400000"
         flood-color="rgb(75,58,0)"
         id="feFlood138" />
      <feGaussianBlur
         result="blur"
         in="SourceGraphic"
         stdDeviation="0.000000"
         id="feGaussianBlur138" />
      <feOffset
         result="offset"
         in="blur"
         dx="0.300000"
         dy="0.264810"
         id="feOffset138" />
      <feComposite
         result="comp1"
         operator="out"
         in="flood"
         in2="offset"
         id="feComposite138" />
      <feComposite
         result="comp2"
         operator="atop"
         in="comp1"
         in2="SourceGraphic"
         id="feComposite139" />
    </filter>
  </defs>
  <metadata
     id="metadata4">
    <rdf:RDF>
      <cc:Work
         rdf:about="">
        <dc:format>image/svg+xml</dc:format>
        <dc:type
           rdf:resource="http://purl.org/dc/dcmitype/StillImage" />
        <dc:creator>
          <cc:Agent>
            <dc:title>Yaru Team, based on the Suru template by Sam Hewitt</dc:title>
          </cc:Agent>
        </dc:creator>
        <dc:source />
        <cc:license
           rdf:resource="http://creativecommons.org/licenses/by-sa/4.0/" />
        <dc:title>Yaru Icon Theme Template</dc:title>
        <dc:subject>
          <rdf:Bag />
        </dc:subject>
        <dc:date />
        <dc:rights>
          <cc:Agent>
            <dc:title />
          </cc:Agent>
        </dc:rights>
        <dc:publisher>
          <cc:Agent>
            <dc:title />
          </cc:Agent>
        </dc:publisher>
        <dc:identifier />
        <dc:relation />
        <dc:language />
        <dc:coverage />
        <dc:description />
        <dc:contributor>
          <cc:Agent>
            <dc:title />
          </cc:Agent>
        </dc:contributor>
      </cc:Work>
      <cc:Work
         rdf:about="">
        <dc:format>image/svg+xml</dc:format>
        <dc:type
           rdf:resource="http://purl.org/dc/dcmitype/StillImage" />
      </cc:Work>
      <cc:License
         rdf:about="http://creativecommons.org/licenses/by-sa/4.0/">
        <cc:permits
           rdf:resource="http://creativecommons.org/ns#Reproduction" />
        <cc:permits
           rdf:resource="http://creativecommons.org/ns#Distribution" />
        <cc:requires
           rdf:resource="http://creativecommons.org/ns#Notice" />
        <cc:requires
           rdf:resource="http://creativecommons.org/ns#Attribution" />
        <cc:permits
           rdf:resource="http://creativecommons.org/ns#DerivativeWorks" />
        <cc:requires
           rdf:resource="http://creativecommons.org/ns#ShareAlike" />
      </cc:License>
    </rdf:RDF>
  </metadata>
  <g
     style="display:inline"
     inkscape:groupmode="layer"
     inkscape:label="Icon"
     id="layer1">
    <g
       style="display:none"
       inkscape:label="Baseplate"
       id="layer7"
       inkscape:groupmode="layer">
      <text
         y="-8.2548828"
         xml:space="preserve"
         x="19.006836"
         style="font-style:normal;font-variant:normal;font-weight:normal;font-stretch:normal;line-height:0%;font-family:'DejaVu Sans';-inkscape-font-specification:'DejaVu Sans';display:inline;fill:#000000;fill-opacity:1;stroke:none;enable-background:new"
         inkscape:label="context"
         id="context"><tspan
           style="font-style:normal;font-variant:normal;font-weight:normal;font-stretch:normal;font-size:18px;line-height:1.25;font-family:'DejaVu Sans';-inkscape-font-specification:'DejaVu Sans'"
           y="-8.2548828"
           x="19.006836"
           sodipodi:role="line"
           id="tspan3933">apps</tspan></text>
      <text
         y="-8.2548828"
         xml:space="preserve"
         x="146.48828"
         style="font-style:normal;font-variant:normal;font-weight:bold;font-stretch:normal;line-height:0%;font-family:'DejaVu Sans';-inkscape-font-specification:'DejaVu Sans Bold';text-align:start;writing-mode:lr-tb;text-anchor:start;display:inline;fill:#000000;fill-opacity:1;stroke:none;enable-background:new"
         inkscape:label="icon-name"
         id="icon-name"><tspan
           style="font-style:normal;font-variant:normal;font-weight:bold;font-stretch:normal;font-size:18px;line-height:1.25;font-family:'DejaVu Sans';-inkscape-font-specification:'DejaVu Sans Bold'"
           y="-8.2548828"
           x="146.48828"
           sodipodi:role="line"
           id="tspan3937">app-name</tspan></text>
      <rect
         style="display:inline;overflow:visible;visibility:visible;fill:#cdcdcd;fill-opacity:1;fill-rule:nonzero;stroke:none;stroke-width:2;marker:none;enable-background:accumulate"
         id="rect16x16"
         width="16"
         height="16"
         x="320"
         y="236"
         inkscape:label="16x16" />
      <rect
         style="display:inline;overflow:visible;visibility:visible;fill:#cdcdcd;fill-opacity:1;fill-rule:nonzero;stroke:none;stroke-width:2;marker:none;enable-background:accumulate"
         id="rect24x24"
         width="24"
         height="24"
         x="320"
         y="188"
         inkscape:label="24x24" />
      <rect
         style="display:inline;overflow:visible;visibility:visible;fill:#cdcdcd;fill-opacity:1;fill-rule:nonzero;stroke:none;stroke-width:2;marker:none;enable-background:accumulate"
         id="rect32x32"
         width="32"
         height="32"
         x="320"
         y="132"
         inkscape:label="32x32" />
      <rect
         inkscape:label="48x48"
         y="60"
         x="320"
         height="48"
         width="48"
         id="rect48x48"
         style="display:inline;overflow:visible;visibility:visible;fill:#cdcdcd;fill-opacity:1;fill-rule:nonzero;stroke:none;stroke-width:2;marker:none;enable-background:accumulate" />
      <rect
         style="display:inline;overflow:visible;visibility:visible;fill:#cdcdcd;fill-opacity:1;fill-rule:nonzero;stroke:none;stroke-width:2;marker:none;enable-background:accumulate"
         id="rect3951"
         width="256"
         height="256"
         x="24"
         y="28"
         inkscape:label="48x48" />
    </g>
    <g
       inkscape:groupmode="layer"
       id="layer8"
       inkscape:label="Backgrounds"
       style="display:inline">
      <path
         style="display:inline;opacity:1;fill:#ffffff;fill-opacity:1;stroke:none;stroke-width:1;stroke-linecap:round;stroke-linejoin:round;stroke-miterlimit:4;stroke-dasharray:none;stroke-opacity:1;enable-background:new"
         id="path11042-5"
         r="112"
         cy="156"
         cx="152"
         d=""
         inkscape:connector-curvature="0" />
      <path
         style="color:#000000;font-style:normal;font-variant:normal;font-weight:normal;font-stretch:normal;font-size:medium;line-height:normal;font-family:sans-serif;font-variant-ligatures:normal;font-variant-position:normal;font-variant-caps:normal;font-variant-numeric:normal;font-variant-alternates:normal;font-feature-settings:normal;text-indent:0;text-align:start;text-decoration:none;text-decoration-line:none;text-decoration-style:solid;text-decoration-color:#000000;letter-spacing:normal;word-spacing:normal;text-transform:none;writing-mode:lr-tb;direction:ltr;text-orientation:mixed;dominant-baseline:auto;baseline-shift:baseline;text-anchor:start;white-space:normal;shape-padding:0;clip-rule:nonzero;display:inline;overflow:visible;visibility:visible;opacity:0.1;isolation:auto;mix-blend-mode:normal;color-interpolation:sRGB;color-interpolation-filters:linearRGB;solid-color:#000000;solid-opacity:1;vector-effect:none;fill:#000000;fill-opacity:1;fill-rule:nonzero;stroke:none;stroke-width:2;stroke-linecap:butt;stroke-linejoin:miter;stroke-miterlimit:4;stroke-dasharray:none;stroke-dashoffset:0;stroke-opacity:1;marker:none;color-rendering:auto;image-rendering:auto;shape-rendering:auto;text-rendering:auto;enable-background:accumulate"
         d="m 327.86523,189 c -1.12014,0 -2.01524,0.0241 -2.79101,0.1543 -0.77577,0.13022 -1.48014,0.38763 -2.00977,0.91601 -0.52962,0.52838 -0.79079,1.23687 -0.91992,2.01367 -0.12912,0.77681 -0.15002,1.67169 -0.14453,2.79493 V 201 v 5.1245 c -0.005,1.12104 0.0156,2.01529 0.14453,2.79102 0.12912,0.77681 0.39029,1.48529 0.91992,2.01367 0.52964,0.52838 1.234,0.78579 2.00977,0.91601 0.77577,0.13022 1.67087,0.1543 2.79101,0.1543 h 8.26954 c 1.12013,0 2.01264,-0.024 2.78711,-0.1543 0.77446,-0.13033 1.48001,-0.38927 2.00781,-0.91797 0.5278,-0.52869 0.78594,-1.23438 0.91601,-2.00976 C 341.97577,208.14208 342,207.24685 342,206.1245 V 201 194.875 c 0,-1.12235 -0.0242,-2.01758 -0.1543,-2.79297 -0.13007,-0.77538 -0.38821,-1.48107 -0.91601,-2.00976 -0.5278,-0.5287 -1.23334,-0.78764 -2.00781,-0.91797 C 338.1474,189.02397 337.25491,189 336.13477,189 Z"
         id="path995"
         inkscape:connector-curvature="0"
         sodipodi:nodetypes="sccccccccssscccscscccss" />
      <path
         style="color:#000000;font-style:normal;font-variant:normal;font-weight:normal;font-stretch:normal;font-size:medium;line-height:normal;font-family:sans-serif;font-variant-ligatures:normal;font-variant-position:normal;font-variant-caps:normal;font-variant-numeric:normal;font-variant-alternates:normal;font-feature-settings:normal;text-indent:0;text-align:start;text-decoration:none;text-decoration-line:none;text-decoration-style:solid;text-decoration-color:#000000;letter-spacing:normal;word-spacing:normal;text-transform:none;writing-mode:lr-tb;direction:ltr;text-orientation:mixed;dominant-baseline:auto;baseline-shift:baseline;text-anchor:start;white-space:normal;shape-padding:0;clip-rule:nonzero;display:inline;overflow:visible;visibility:visible;opacity:0.1;isolation:auto;mix-blend-mode:normal;color-interpolation:sRGB;color-interpolation-filters:linearRGB;solid-color:#000000;solid-opacity:1;vector-effect:none;fill:#000000;fill-opacity:1;fill-rule:nonzero;stroke:none;stroke-width:2;stroke-linecap:butt;stroke-linejoin:miter;stroke-miterlimit:4;stroke-dasharray:none;stroke-dashoffset:0;stroke-opacity:1;marker:none;color-rendering:auto;image-rendering:auto;shape-rendering:auto;text-rendering:auto;enable-background:accumulate"
         d="m 325.0957,237 c -0.71904,0 -1.30185,0.0139 -1.83593,0.10352 -0.53409,0.0897 -1.0683,0.27628 -1.47657,0.68359 -0.40826,0.4073 -0.59657,0.94323 -0.68554,1.47851 -0.089,0.53529 -0.10119,1.12048 -0.0977,1.8418 V 244 v 3.89844 c -0.003,0.71816 0.009,1.30235 0.0977,1.83594 0.089,0.53528 0.27727,1.07121 0.68554,1.47851 0.40827,0.40731 0.94248,0.59394 1.47657,0.68359 0.53408,0.0897 1.11689,0.10352 1.83593,0.10352 h 5.8086 c 0.71904,0 1.30058,-0.0137 1.83398,-0.10352 0.53341,-0.0898 1.06768,-0.27792 1.47461,-0.68554 0.40693,-0.40762 0.59404,-0.94271 0.68359,-1.47656 C 334.98604,249.20052 335,248.61887 335,247.89844 V 244 241.10156 c 0,-0.72043 -0.014,-1.30208 -0.10352,-1.83594 -0.0895,-0.53385 -0.27666,-1.06894 -0.68359,-1.47656 -0.40693,-0.40762 -0.9412,-0.59578 -1.47461,-0.68554 C 332.20488,237.01375 331.62334,237 330.9043,237 Z"
         id="path997"
         inkscape:connector-curvature="0"
         sodipodi:nodetypes="scscccccccsscscscscscss" />
      <path
         style="color:#000000;font-style:normal;font-variant:normal;font-weight:normal;font-stretch:normal;font-size:medium;line-height:normal;font-family:sans-serif;font-variant-ligatures:normal;font-variant-position:normal;font-variant-caps:normal;font-variant-numeric:normal;font-variant-alternates:normal;font-feature-settings:normal;text-indent:0;text-align:start;text-decoration:none;text-decoration-line:none;text-decoration-style:solid;text-decoration-color:#000000;letter-spacing:normal;word-spacing:normal;text-transform:none;writing-mode:lr-tb;direction:ltr;text-orientation:mixed;dominant-baseline:auto;baseline-shift:baseline;text-anchor:start;white-space:normal;shape-padding:0;clip-rule:nonzero;display:inline;overflow:visible;visibility:visible;opacity:0.1;isolation:auto;mix-blend-mode:normal;color-interpolation:sRGB;color-interpolation-filters:linearRGB;solid-color:#000000;solid-opacity:1;vector-effect:none;fill:#000000;fill-opacity:1;fill-rule:nonzero;stroke:none;stroke-width:2;stroke-linecap:butt;stroke-linejoin:miter;stroke-miterlimit:4;stroke-dasharray:none;stroke-dashoffset:0;stroke-opacity:1;marker:none;color-rendering:auto;image-rendering:auto;shape-rendering:auto;text-rendering:auto;enable-background:accumulate"
         d="m 330.19336,134 c -1.42096,0 -2.54883,0.0308 -3.50586,0.19141 -0.95703,0.16064 -1.79146,0.4726 -2.41211,1.09179 -0.62065,0.61919 -0.93647,1.45612 -1.0957,2.41407 -0.15924,0.95795 -0.18666,2.08705 -0.17969,3.51171 V 149 v 7.79688 c -0.007,1.42131 0.0207,2.5495 0.17969,3.50585 0.15923,0.95796 0.47505,1.79488 1.0957,2.41407 0.62065,0.61919 1.45508,0.93115 2.41211,1.09179 0.95703,0.16065 2.0849,0.19141 3.50586,0.19141 h 11.61523 c 1.42097,0 2.54669,-0.0307 3.50196,-0.19141 0.95527,-0.16075 1.78779,-0.47425 2.40625,-1.09375 0.61845,-0.6195 0.93134,-1.45363 1.09179,-2.41015 C 348.96905,159.34816 349,158.22066 349,156.79688 V 149 141.20312 c 0,-1.42378 -0.031,-2.55128 -0.19141,-3.50781 -0.16045,-0.95653 -0.47334,-1.79065 -1.09179,-2.41015 -0.61846,-0.61951 -1.45098,-0.933 -2.40625,-1.09375 C 344.35528,134.03065 343.22956,134 341.80859,134 Z"
         id="path999"
         inkscape:connector-curvature="0"
         sodipodi:nodetypes="scscccccscsscccscscscss" />
      <path
         d="m 344.23031,61.906027 c -2.58051,0 -5.07902,0.952344 -6.96485,2.636719 l -0.002,0.002 -0.002,0.0039 c -0.0582,0.05344 -0.12853,0.113392 -0.20312,0.185547 -0.11084,0.104809 -0.20576,0.207154 -0.29298,0.296875 l -0.002,0.002 -0.002,0.002 c -1.47633,1.558729 -2.46375,3.591165 -2.69336,5.847656 v 0.002 0.002 c -0.0318,0.332644 -0.0511,0.673247 -0.0508,1.02539 v 1.902344 c 1.9e-4,1.659581 -0.68187,3.245432 -1.88672,4.386719 l -4.92969,4.669922 c -1.40391,1.329856 -2.19944,3.179486 -2.19922,5.113286 V 97.5625 c 0,1.106107 -0.0118,2.90359 0.0293,4.03516 0.085,2.35069 0.36373,3.9044 1.36523,4.9082 1.00152,1.00379 2.5513,1.28385 4.89649,1.36914 0.80034,0.029 1.87403,0.0301 2.86133,0.0293 0.72893,0.002 1.45818,0 2.01172,0 h 15.70117 c 0.55295,0 1.27956,0.002 2.00781,0 h 0.002 c 0.98816,8.1e-4 2.06054,-1.1e-4 2.86134,-0.0293 2.34795,-0.0852 3.90292,-0.36559 4.9082,-1.36914 1.0053,-1.00357 1.28691,-2.55852 1.36329,-4.91016 0.0367,-1.13064 0.0215,-2.928133 0.0215,-4.0332 v -9.544915 c 1.1e-4,-1.93374 -0.79541,-3.78337 -2.19922,-5.113283 L 355.904,78.23438 c -1.20479,-1.141362 -1.88682,-2.72714 -1.88673,-4.386719 v -1.935775 c -0.002,-5.430013 -4.34683,-9.876977 -9.77524,-10.005859 h -0.006 z m -0.2207,7.492187 h 0.0156 c 1.382,-3.45e-4 2.49194,1.109934 2.49219,2.492188 v 0.01563 c -7.7e-4,0.701997 -0.29823,1.370586 -0.81836,1.841797 l -0.002,0.002 c -0.45731,0.416378 -1.05311,0.646973 -1.67188,0.648437 h -0.0137 -0.002 c -0.6198,-0.0047 -1.21672,-0.240102 -1.67188,-0.660156 l -0.002,-0.002 v -0.002 c -0.51721,-0.468528 -0.81421,-1.133768 -0.81836,-1.832031 v -0.01172 c 2.3e-4,-1.381598 1.11058,-2.491964 2.49219,-2.492188 z"
         style="display:inline;opacity:0.1;enable-background:new"
         id="path1" />
      <path
         d="m 343.94201,61.5 c -5.21298,0.05038 -9.41166,4.292616 -9.4082,9.505859 v 1.902344 c 2.1e-4,1.796696 -0.73857,3.514415 -2.04297,4.75 l -4.92969,4.669922 c -1.3044,1.235585 -2.04318,2.953304 -2.04297,4.75 v 9.578125 c 0,1.109432 -0.011,2.908937 0.0293,4.01758 0.16747,4.63276 1.15979,5.62684 5.78125,5.79492 0.78509,0.0285 1.85673,0.0301 2.84375,0.0293 0.72711,0.002 1.45503,0 2.00977,0 h 15.70117 c 0.55417,0 1.2814,0.002 2.00781,0 h 0.002 c 0.98734,8.1e-4 2.05885,-6.9e-4 2.84375,-0.0293 4.62711,-0.16798 5.63861,-1.16195 5.78907,-5.79492 0.036,-1.108776 0.0215,-2.908146 0.0215,-4.01758 v -9.544922 c 10e-5,-1.796672 -0.73867,-3.514347 -2.04297,-4.75 l -4.92773,-4.669922 c -1.3043,-1.235651 -2.04307,-2.953326 -2.04297,-4.75 v -1.935547 c -0.002,-5.164062 -4.12452,-9.383288 -9.28711,-9.505859 z m 0.0742,6.904297 c 1.38071,0 2.5,1.119288 2.5,2.5 0,1.380712 -1.11929,2.5 -2.5,2.5 -1.38071,0 -2.5,-1.119288 -2.5,-2.5 0,-1.380712 1.11929,-2.5 2.5,-2.5 z"
         style="display:inline;fill:url(#linearGradient86);stroke-width:0;enable-background:new"
         id="path131" />
      <path
         d="m 344.10021,62 c -2.07693,0 -4.35954,0.812702 -6.10742,2.345703 -1.74215,1.527976 -2.96108,3.759445 -2.95898,6.660156 v 1.902344 c 2.2e-4,1.933669 -0.79538,3.783501 -2.19922,5.113281 l -4.92969,4.669922 c -1.20473,1.141185 -1.88691,2.727289 -1.88672,4.386719 v 9.578125 c 0,1.108451 -0.009,2.893113 0.0293,3.98047 v 0.0117 c 6e-5,0.002 -6e-5,0.004 0,0.006 v 0.002 c 0.0827,2.28752 0.36126,3.52175 1.07422,4.23633 0.71298,0.71462 1.94482,0.99322 4.22656,1.07617 0.76932,0.0279 1.83763,0.0301 2.82422,0.0293 0.72529,0.002 1.45382,0 2.00977,0 h 15.70117 c 0.55538,0 1.28324,0.002 2.00781,0 h 0.002 c 0.98697,8e-4 2.0553,-0.001 2.82422,-0.0293 2.28485,-0.0829 3.524,-0.36312 4.24024,-1.07812 0.7154,-0.71419 0.99414,-1.94775 1.06836,-4.23438 0.0353,-1.087361 0.0215,-2.885766 0.0215,-4 v -9.544922 c 9e-5,-1.65941 -0.68206,-3.245461 -1.88672,-4.386719 l -4.92773,-4.669921 c -1.4037,-1.329838 -2.19933,-3.179668 -2.19922,-5.113282 v -1.935547 c -9.6e-4,-3.015212 -1.30241,-5.243571 -3.07031,-6.74414 -1.77586,-1.507326 -4.03023,-2.261719 -5.86329,-2.261719 z m 0,1 c 1.54955,0 3.6369,0.684094 5.21485,2.023438 1.58591,1.346099 2.71788,3.249271 2.71875,5.982421 v 1.935547 c -1.3e-4,2.208026 0.90882,4.321292 2.51172,5.839844 l 4.92773,4.669922 c 1.00586,0.952927 1.57429,2.274578 1.57422,3.660156 v 9.544922 c 0,1.122044 0.0124,2.926151 -0.0215,3.96875 -0.0716,2.20565 -0.41155,3.19538 -0.7754,3.5586 -0.36301,0.36239 -1.36378,0.70511 -3.56835,0.78515 -0.7372,0.0267 -1.80458,0.0301 -2.78907,0.0293 h -0.004 -0.002 c -0.72086,0.002 -1.44613,0 -2.0039,0 h -15.70117 c -0.55834,0 -1.28428,0.002 -2.00586,0 h -0.002 -0.002 c -0.98411,8e-4 -2.05144,-0.003 -2.78906,-0.0293 -2.20177,-0.08 -3.19355,-0.42124 -3.55469,-0.7832 -0.3606,-0.36141 -0.7007,-1.35599 -0.78125,-3.55664 v -0.01 c -0.0375,-1.039627 -0.0293,-2.844168 -0.0293,-3.96289 v -9.578125 c -1.6e-4,-1.385537 0.56833,-2.707334 1.57422,-3.660156 l 4.92969,-4.669922 c 1.60307,-1.518507 2.51197,-3.631743 2.51172,-5.839844 v -1.902344 c -0.002,-2.625001 1.06144,-4.542014 2.61914,-5.908203 1.55194,-1.361163 3.63558,-2.097656 5.44726,-2.097656 z"
         style="display:inline;opacity:0.865141;fill:url(#linearGradient98);enable-background:new"
         id="path100" />
      <path
         d="m 343.01623,82.904297 c -2.20911,0 -4,1.790892 -4,4 v 1 4.260102 c -0.48161,-0.171144 -0.98889,-0.258993 -1.5,-0.259766 -2.48515,0 -4.5,2.014844 -4.5,4.5 0,0.16894 0.0112,0.335892 0.0293,0.5 0.24866,2.249966 2.15449,4.000007 4.4707,4.000007 2.48515,0 4.5,-2.014851 4.5,-4.500007 v -5.638672 -1.861664 -1 -1 c 0,-0.552275 0.44773,-1 1,-1 h 2 0.13867 1.73242 0.12891 2 c 0.55228,0 1,0.447717 1,1 v 1 1 1.861664 1.398438 c -0.48162,-0.171147 -0.98888,-0.258994 -1.5,-0.259766 -2.48518,0 -4.5,2.014799 -4.5,4.5 0,0.168943 0.0112,0.33589 0.0293,0.5 0.24866,2.25 2.15446,4.000007 4.4707,4.000007 2.48518,0 4.5,-2.014803 4.5,-4.500007 v -8.500336 -1 c 0,-2.209117 -1.79088,-4 -4,-4 z m -5.5,12.000336 c 0.8284,0 1.5,0.671613 1.5,1.5 0,0.175681 -0.0324,0.343332 -0.0879,0.5 -0.20621,0.582067 -0.75939,1 -1.41211,1 -0.65272,0 -1.20786,-0.417933 -1.41406,-1 -0.0555,-0.156668 -0.0859,-0.324319 -0.0859,-0.5 0,-0.828387 0.6716,-1.5 1.5,-1.5 z m 11,0 c 0.82842,0 1.5,0.671601 1.5,1.5 0,0.175683 -0.0324,0.343331 -0.0879,0.5 -0.2062,0.58207 -0.75938,1 -1.41211,1 -0.65273,0 -1.20786,-0.41793 -1.41406,-1 -0.0555,-0.156669 -0.0859,-0.324317 -0.0859,-0.5 0,-0.828399 0.67158,-1.5 1.5,-1.5 z"
         style="display:inline;fill:#f2ba02;stroke-width:2;stroke-linecap:round;filter:url(#filter139);enable-background:new"
         id="path127"
         sodipodi:nodetypes="sscccscsscccssccccsscccccscsscsssssssssssssssssss" />
      <path
         d="m 343.01623,85.903907 c -0.55227,0 -1,0.447725 -1,1 v 0.300781 c 0,-0.552275 0.44773,-1 1,-1 h 2 0.13867 1.73242 0.12891 2 c 0.55228,0 1,0.447717 1,1 v -0.300781 c 0,-0.552283 -0.44772,-1 -1,-1 h -2 -0.12891 -1.73242 -0.13867 z m -5.5,9.00039 c -0.8284,0 -1.5,0.671613 -1.5,1.5 0,0.04389 0.006,0.08606 0.01,0.128906 0.0849,-0.747818 0.71969,-1.328125 1.49023,-1.328125 0.7691,0 1.40147,0.578414 1.48828,1.324219 0.003,-0.04161 0.0115,-0.0824 0.0115,-0.125 0,-0.828387 -0.6716,-1.5 -1.5,-1.5 z m 11,0 c -0.82842,0 -1.5,0.671601 -1.5,1.5 0,0.04389 0.006,0.08606 0.01,0.128906 0.0849,-0.747827 0.71967,-1.328125 1.49023,-1.328125 0.76912,0 1.40147,0.578405 1.48828,1.324219 0.004,-0.04161 0.0117,-0.0824 0.0117,-0.125 0,-0.828399 -0.67158,-1.5 -1.5,-1.5 z m -6.5,1.5 c 0,2.485156 -2.01485,4.500003 -4.5,4.500003 -2.31621,0 -4.22204,-1.750037 -4.4707,-4.000003 -0.0114,-0.103044 -0.0186,-0.207425 -0.0234,-0.3125 -9.5e-4,0.03795 -0.006,0.07511 -0.006,0.113281 0,0.16894 0.0112,0.335892 0.0293,0.5 0.24866,2.249966 2.15449,4.000002 4.4707,4.000002 2.48515,0 4.5,-2.014846 4.5,-4.500002 z m 11,0 c 0,2.485204 -2.01482,4.500003 -4.5,4.500003 -2.31624,0 -4.22204,-1.750003 -4.4707,-4.000003 -0.0114,-0.103045 -0.0186,-0.207426 -0.0234,-0.3125 -9.5e-4,0.03795 -0.006,0.07511 -0.006,0.113281 0,0.168943 0.0112,0.33589 0.0293,0.5 0.24866,2.25 2.15446,4.000002 4.4707,4.000002 2.48518,0 4.5,-2.014798 4.5,-4.500002 z"
         style="display:inline;opacity:0.3;fill:#ffffff;fill-opacity:1;stroke-width:2;stroke-linecap:round;enable-background:new"
         id="path139"
         sodipodi:nodetypes="sscsccccscssccccssscscsssscscssscsscscscccsscscscc" />
      <path
         d="m 344.01623,63.404297 a 7.5,7.500082 0 0 0 -7.5,7.5 7.5,7.500082 0 0 0 7.5,7.5 7.5,7.500082 0 0 0 7.5,-7.5 7.5,7.500082 0 0 0 -7.5,-7.5 z m 0,3 a 4.5,4.5000496 0 0 1 4.5,4.5 4.5,4.5000496 0 0 1 -4.5,4.5 4.5,4.5000496 0 0 1 -4.5,-4.5 4.5,4.5000496 0 0 1 4.5,-4.5 z"
         style="display:inline;fill:#fdd763;stroke:#000000;stroke-width:1;stroke-dasharray:none;stroke-opacity:0.15;enable-background:new"
         id="path129" />
      <circle
         style="display:inline;opacity:0.2;fill:none;fill-opacity:1;stroke:#000000;stroke-width:1;stroke-dasharray:none;stroke-opacity:1;enable-background:new"
         id="path132"
         cx="344.01624"
         cy="70.904297"
         r="2.5" />
      <path
         d="m 344.2467,61.5 c -2.45716,0 -4.83904,0.909348 -6.63086,2.509766 -0.0658,0.06048 -0.13317,0.119345 -0.19727,0.18164 -0.0957,0.0905 -0.1854,0.186653 -0.27734,0.28125 -1.40372,1.482068 -2.34052,3.411586 -2.55859,5.554688 -0.0306,0.319615 -0.0491,0.645161 -0.0488,0.978515 v 1.902344 c 2.1e-4,1.796691 -0.73857,3.514419 -2.04297,4.75 l -4.92969,4.669922 c -1.30439,1.235581 -2.04318,2.953305 -2.04297,4.75 v 9.578125 c 0,1.109426 -0.011,2.908936 0.0293,4.01758 0.16747,4.63275 1.1598,5.62684 5.78125,5.79492 0.78509,0.0285 1.85673,0.0301 2.84375,0.0293 0.72711,0.002 1.45503,0 2.00977,0 h 15.70117 c 0.55417,0 1.2814,0.002 2.00781,0 h 0.002 c 0.98734,8.1e-4 2.05886,-6.9e-4 2.84375,-0.0293 4.6271,-0.16798 5.63861,-1.16196 5.78907,-5.79492 0.036,-1.108774 0.0215,-2.908144 0.0215,-4.01758 v -9.544922 c 1e-4,-1.796668 -0.73867,-3.51435 -2.04297,-4.75 l -4.92773,-4.669922 c -1.3043,-1.235647 -2.04307,-2.953331 -2.04297,-4.75 V 71.005859 C 353.53191,65.841812 349.40937,61.622571 344.2468,61.5 Z"
         style="display:inline;opacity:0.2;fill:none;stroke:#000000;enable-background:new"
         id="path2"
         sodipodi:nodetypes="scccccccccscscsssscsscccccss" />
      <path
         sodipodi:nodetypes="scccssscsss"
         inkscape:connector-curvature="0"
         id="path914"
         d="m 327.636,188.49999 c -4.65703,0 -5.15812,0.47378 -5.1353,5.09575 v 6.40425 6.40426 c -0.0229,4.62196 0.47827,5.09574 5.1353,5.09574 h 8.72869 c 4.65703,0 5.1353,-0.47372 5.1353,-5.09574 v -6.40426 -6.40425 c 0,-4.62202 -0.47828,-5.09575 -5.13531,-5.09575 z"
         style="color:#000000;display:inline;overflow:visible;visibility:visible;fill:url(#linearGradient916);fill-opacity:1;fill-rule:nonzero;stroke:none;stroke-width:1;marker:none;enable-background:accumulate" />
      <path
         style="color:#000000;display:inline;overflow:visible;visibility:visible;fill:url(#linearGradient920);fill-opacity:1;fill-rule:nonzero;stroke:none;stroke-width:1;marker:none;enable-background:accumulate"
         d="m 324.8545,236.50001 c -3.04166,0 -3.36894,0.30899 -3.35403,3.32331 v 4.17669 4.17668 c -0.0149,3.01433 0.31237,3.32332 3.35403,3.32332 h 6.29146 c 3.04167,0 3.35404,-0.30895 3.35404,-3.32332 v -4.17668 -4.17669 c 0,-3.01436 -0.31238,-3.32331 -3.35404,-3.32331 z"
         id="path918"
         inkscape:connector-curvature="0"
         sodipodi:nodetypes="scccssscsss" />
      <path
         style="color:#000000;display:inline;overflow:visible;visibility:visible;fill:url(#linearGradient3257);fill-opacity:1;fill-rule:nonzero;stroke:none;stroke-width:1;marker:none;enable-background:accumulate"
         d="m 330.07509,133.5 c -5.56175,0 -6.6037,0.58409 -6.57447,6.28227 v 8.21765 8.21781 c -0.0293,5.69818 1.01272,6.28227 6.57447,6.28227 h 11.85044 c 5.56037,0 6.57447,-0.58403 6.57447,-6.28227 v -8.21781 -8.21765 c 0,-5.69824 -1.0141,-6.28227 -6.57447,-6.28227 z"
         id="path964-7"
         inkscape:connector-curvature="0"
         sodipodi:nodetypes="scccssscsss" />
    </g>
    <g
       inkscape:groupmode="layer"
       id="layer6"
       inkscape:label="Pictograms"
       style="display:inline" />
    <g
       inkscape:groupmode="layer"
       id="layer5"
       inkscape:label="Highlights"
       style="display:inline">
      <path
         style="color:#000000;display:inline;overflow:visible;visibility:visible;opacity:0.4;fill:none;fill-opacity:1;fill-rule:nonzero;stroke:#000000;stroke-width:1;stroke-miterlimit:4;stroke-dasharray:none;stroke-opacity:1;marker:none;enable-background:accumulate"
         d="m 330.07509,133.5 c -5.56175,0 -6.6037,0.58409 -6.57447,6.28227 v 8.21765 8.21781 c -0.0293,5.69818 1.01272,6.28227 6.57447,6.28227 h 11.85044 c 5.56037,0 6.57447,-0.58403 6.57447,-6.28227 v -8.21781 -8.21765 c 0,-5.69824 -1.0141,-6.28227 -6.57447,-6.28227 z"
         id="path958-1"
         inkscape:connector-curvature="0"
         sodipodi:nodetypes="scccssscsss" />
      <path
         d="m 151.54888,44 c -25.95019,0.250888 -46.85121,21.368834 -46.83399,47.320312 v 9.470708 c 0.001,8.94396 -3.67663,17.49382 -10.16992,23.64453 l -20.35937,15.6582 c -6.4933,6.15076 -10.17098,14.70257 -10.16993,23.64648 l -0.0156,55.26563 c -6e-4,2.20875 0.005,5.16071 0.0117,8 -0.006,1.30508 0.006,2.47917 0.0117,3.69922 0.0104,1.76261 0.0421,3.31141 0.0723,4.90234 0.0209,1.10289 0.0167,2.46049 0.0508,3.39844 0.051,1.41224 0.11811,2.55437 0.17383,3.83398 C 65.71906,265.30592 72.95099,268 102.93364,268 h 98.15625 c 32.5198,0 38.14272,-3.14418 38.82813,-31.28906 0.0178,-0.9115 0.0227,-1.99035 0.0332,-3.04297 0.0108,-1.07965 0.0283,-1.98083 0.0332,-3.1211 0.0103,-1.17128 0.0273,-2.29173 0.0273,-3.54101 4.7e-4,-3.565 -0.012,-6.93423 -0.0117,-8 l 0.0156,-55.10156 c 4.9e-4,-8.94381 -3.67712,-17.49348 -10.16993,-23.64453 l -20.3789,-15.65821 c -6.4928,-6.1511 -10.17042,-14.70267 -10.16992,-23.64648 V 91.320312 C 199.28701,65.613654 178.76579,44.610155 153.06646,44 Z m 0.41797,32.318359 h 0.0781 c 8.22573,-0.002 14.89353,6.668806 14.89453,14.894532 v 0.07813 c -0.005,4.195494 -1.78131,8.198769 -4.89062,11.015629 -2.73635,2.49142 -6.30326,3.87291 -10.00391,3.87891 h -0.0781 c -3.70761,-0.0249 -7.27921,-1.43269 -10.00391,-3.94727 -3.09198,-2.800976 -4.86572,-6.775315 -4.89062,-10.947269 v -0.07813 c 0.001,-8.223286 6.67114,-14.893232 14.89453,-14.894532 z"
         style="display:inline;enable-background:new;opacity:0.2;fill:url(#linearGradient1);fill-opacity:1;stroke-width:0;filter:url(#filter1)"
         id="path15-6"
         transform="matrix(0.9999982,0,0,1.0000001,1.0673709e-4,2.0003707)" />
      <path
         d="M 151.54942,43.999992 C 125.59928,44.25088 104.6983,65.368828 104.71552,91.32031 v 9.47071 c 0.001,8.94396 -3.67662,17.49382 -10.1699,23.64453 l -20.35934,15.6582 c -6.49329,6.15076 -10.17096,14.70257 -10.16991,23.64648 l -0.0156,55.26564 c -6e-4,2.20875 0.005,5.16071 0.0117,8 -0.006,1.30508 0.006,2.47917 0.0117,3.69922 0.0104,1.76261 0.0421,3.31141 0.0723,4.90234 0.0209,1.10289 0.0167,2.46049 0.0508,3.39844 0.051,1.41224 0.11811,2.55437 0.17383,3.83398 1.39866,22.46608 8.63058,25.16016 38.61317,25.16016 h 98.15608 c 32.51974,0 38.14265,-3.14418 38.82806,-31.28906 0.0178,-0.9115 0.0227,-1.99035 0.0332,-3.04297 0.0108,-1.07965 0.0283,-1.98083 0.0332,-3.1211 0.0103,-1.17128 0.0273,-2.29173 0.0273,-3.54101 4.7e-4,-3.565 -0.012,-6.93423 -0.0117,-8 l 0.0156,-55.10157 c 4.9e-4,-8.94381 -3.67712,-17.49348 -10.16992,-23.64453 l -20.37886,-15.65821 c -6.49279,-6.1511 -10.1704,-14.70267 -10.1699,-23.64648 V 91.32031 C 199.28733,65.613648 178.76629,44.610147 153.067,43.999992 Z m 0.41797,32.318358 h 0.0781 c 8.22572,-0.002 14.89351,6.66881 14.89451,14.89454 v 0.0781 c -0.005,4.19549 -1.78131,8.19877 -4.89061,11.01563 -2.73635,2.49142 -6.30325,3.87291 -10.0039,3.87891 h -0.0781 c -3.7076,-0.0249 -7.27919,-1.43269 -10.00389,-3.94727 -3.09197,-2.80098 -4.86571,-6.77532 -4.89061,-10.94727 v -0.0781 c 0.001,-8.22329 6.67113,-14.89324 14.8945,-14.89454 z"
         style="display:inline;enable-background:new;opacity:0.1;fill:url(#linearGradient5);fill-opacity:1;stroke-width:0;filter:url(#filter5)"
         id="path15-6-6" />
      <path
         d="M 151.54942,43.999992 C 125.59928,44.25088 104.6983,65.368828 104.71552,91.32031 v 9.47071 c 0.001,8.94396 -3.67662,17.49382 -10.1699,23.64453 l -20.35934,15.6582 c -6.49329,6.15076 -10.17096,14.70257 -10.16991,23.64648 l -0.0156,55.26564 c -6e-4,2.20875 0.005,5.16071 0.0117,8 -0.006,1.30508 0.006,2.47917 0.0117,3.69922 0.0104,1.76261 0.0421,3.31141 0.0723,4.90234 0.0209,1.10289 0.0167,2.46049 0.0508,3.39844 0.051,1.41224 0.11811,2.55437 0.17383,3.83398 1.39866,22.46608 8.63058,25.16016 38.61317,25.16016 h 98.15608 c 32.51974,0 38.14265,-3.14418 38.82806,-31.28906 0.0178,-0.9115 0.0227,-1.99035 0.0332,-3.04297 0.0108,-1.07965 0.0283,-1.98083 0.0332,-3.1211 0.0103,-1.17128 0.0273,-2.29173 0.0273,-3.54101 4.7e-4,-3.565 -0.012,-6.93423 -0.0117,-8 l 0.0156,-55.10157 c 4.9e-4,-8.94381 -3.67712,-17.49348 -10.16992,-23.64453 l -20.37886,-15.65821 c -6.49279,-6.1511 -10.1704,-14.70267 -10.1699,-23.64648 V 91.32031 C 199.28733,65.613648 178.76629,44.610147 153.067,43.999992 Z m 0.41797,32.318358 h 0.0781 c 8.22572,-0.002 14.89351,6.66881 14.89451,14.89454 v 0.0781 c -0.005,4.19549 -1.78131,8.19877 -4.89061,11.01563 -2.73635,2.49142 -6.30325,3.87291 -10.0039,3.87891 h -0.0781 c -3.7076,-0.0249 -7.27919,-1.43269 -10.00389,-3.94727 -3.09197,-2.80098 -4.86571,-6.77532 -4.89061,-10.94727 v -0.0781 c 0.001,-8.22329 6.67113,-14.89324 14.8945,-14.89454 z"
         style="display:inline;enable-background:new;opacity:0.1;fill:url(#linearGradient6);fill-opacity:1;stroke-width:0;filter:url(#filter5-4)"
         id="path15-6-6-1" />
      <path
         transform="matrix(0.66664182,0,0,0.63636364,106.67522,94.545454)"
         sodipodi:nodetypes="scccssscsss"
         inkscape:connector-curvature="0"
         id="path990-8"
         d="m 335.73108,62 c -8.82418,0 -9.77365,0.90635 -9.7304,9.74838 V 84 96.25162 c -0.0433,8.84203 0.90622,9.74838 9.7304,9.74838 h 16.53919 c 8.82418,0 9.7304,-0.90625 9.7304,-9.74838 V 84 71.74838 C 362.00067,62.90625 361.09445,62 352.27027,62 Z"
         style="color:#000000;display:inline;overflow:visible;visibility:visible;opacity:0.7;fill:none;fill-opacity:1;fill-rule:nonzero;stroke:url(#linearGradient2908);stroke-width:3.07065511;stroke-miterlimit:4;stroke-dasharray:none;stroke-opacity:1;marker:none;enable-background:accumulate"
         clip-path="url(#clipPath994-1-2)" />
      <path
         style="color:#000000;display:inline;overflow:visible;visibility:visible;opacity:0.4;fill:none;fill-opacity:1;fill-rule:nonzero;stroke:#000000;stroke-width:0.99999988;stroke-miterlimit:4;stroke-dasharray:none;stroke-opacity:1;marker:none;enable-background:accumulate"
         d="m 336.50293,211.5 c 4.22694,0 5.01881,-0.46324 4.9966,-4.98249 v -6.51744 -6.51758 c 0.0222,-4.51925 -0.76966,-4.98249 -4.9966,-4.98249 h -9.00633 c -4.22588,0 -4.9966,0.46319 -4.9966,4.98249 v 6.51758 6.51744 c 0,4.5193 0.77072,4.98249 4.9966,4.98249 z"
         id="path958-6"
         inkscape:connector-curvature="0"
         sodipodi:nodetypes="scccssscsss" />
      <path
         style="color:#000000;display:inline;overflow:visible;visibility:visible;opacity:0.4;fill:none;fill-opacity:1;fill-rule:nonzero;stroke:#000000;stroke-width:1;stroke-miterlimit:4;stroke-dasharray:none;stroke-opacity:1;marker:none;enable-background:accumulate"
         d="m 331.08094,251.5 c 2.89212,0 3.43393,-0.30212 3.41873,-3.24946 v -4.25051 -4.25058 c 0.0152,-2.94734 -0.52661,-3.24945 -3.41873,-3.24945 h -6.16221 c -2.8914,0 -3.41873,0.30208 -3.41873,3.24945 v 4.25058 4.25051 c 0,2.94738 0.52733,3.24946 3.41873,3.24946 z"
         id="path958-6-0"
         inkscape:connector-curvature="0"
         sodipodi:nodetypes="scccssscsss" />
      <path
         style="color:#000000;display:inline;overflow:visible;visibility:visible;opacity:0.7;fill:url(#linearGradient920-6);fill-opacity:1;fill-rule:nonzero;stroke:none;stroke-width:1;marker:none;enable-background:accumulate"
         d="m 324.91406,236.98828 c -1.43089,0 -2.16322,0.12118 -2.46484,0.39258 -0.15081,0.1357 -0.26235,0.33219 -0.34375,0.71289 -0.0814,0.3807 -0.11719,0.92536 -0.11719,1.64844 V 244 v 4.25781 c 0,0.72309 0.0358,1.26774 0.11719,1.64844 0.0814,0.3807 0.19294,0.57719 0.34375,0.71289 0.30162,0.2714 1.03395,0.39258 2.46484,0.39258 h 6.17188 c 1.43125,0 2.16767,-0.1209 2.4707,-0.39258 0.15152,-0.13584 0.26315,-0.33097 0.34375,-0.71094 0.0805,-0.37996 0.11533,-0.92581 0.11133,-1.64843 v -0.002 V 244 v -4.25781 -0.002 c 0.004,-0.72262 -0.0308,-1.26847 -0.11133,-1.64843 -0.0806,-0.37997 -0.19224,-0.5751 -0.34375,-0.71094 -0.30303,-0.27167 -1.03945,-0.39258 -2.4707,-0.39258 z m 2.31641,1.0293 c 0.90892,-0.001 1.81765,-0.001 2.72656,0.004 0.91032,0.0328 1.83236,-0.0486 2.73438,0.0996 0.24585,-0.0171 0.20202,0.27429 0.23632,0.4375 0.0753,2.8091 0.0533,5.67804 0.043,8.51368 -0.0226,0.85541 0.0164,1.70681 -0.0684,2.54882 0.0121,0.3147 -0.35695,0.2628 -0.57617,0.3125 -2.08305,0.061 -4.22761,0.0369 -6.33789,0.0371 -0.88599,-0.0302 -1.78126,0.0435 -2.66016,-0.0859 -0.25376,0.0253 -0.21301,-0.26186 -0.25781,-0.42579 -0.0802,-2.89787 -0.0539,-5.83578 -0.043,-8.7539 0.0277,-0.79099 -0.0254,-1.57718 0.0781,-2.36524 -0.0231,-0.27517 0.29693,-0.21327 0.47265,-0.26367 1.21401,-0.0833 2.43564,-0.0401 3.65235,-0.0586 z"
         id="path918-3"
         inkscape:connector-curvature="0" />
      <path
         style="color:#000000;display:inline;overflow:visible;visibility:visible;opacity:0.7;fill:url(#linearGradient916-2);fill-opacity:1;fill-rule:nonzero;stroke:none;stroke-width:1;marker:none;enable-background:accumulate"
         d="m 327.49609,189 c -2.09467,0 -3.20641,0.15795 -3.73828,0.66016 -0.26593,0.2511 -0.456,0.61757 -0.58203,1.23632 C 323.0498,191.51524 323,192.36681 323,193.48242 V 200 v 6.51758 c 0,1.11561 0.0498,1.96718 0.17578,2.58594 0.12603,0.61875 0.3161,0.98522 0.58203,1.23632 0.53187,0.50221 1.64361,0.66016 3.73828,0.66016 h 9.00782 c 2.0952,0 3.21398,-0.15771 3.74804,-0.66016 0.26704,-0.25122 0.45522,-0.61827 0.58008,-1.23632 0.12487,-0.61806 0.17297,-1.46882 0.16797,-2.58399 V 200 193.48047 c 0.005,-1.11517 -0.0431,-1.96593 -0.16797,-2.58399 -0.12486,-0.61805 -0.31305,-0.9851 -0.58008,-1.23632 C 339.71789,189.15771 338.59911,189 336.50391,189 Z m 0.88086,1.06641 c 2.7315,-0.003 5.4639,0.008 8.19532,0.0273 0.85948,0.0532 1.76737,-0.08 2.61132,0.16602 0.5672,0.10141 0.62914,0.77213 0.68164,1.23242 0.102,5.12029 0.0744,10.26846 0.0352,15.38867 -0.072,0.88247 0.14254,1.86311 -0.33398,2.66016 -0.51616,0.37575 -1.22058,0.30982 -1.82618,0.39062 -3.78525,0.0784 -7.57376,0.066 -11.35937,0.01 -0.64061,-0.0672 -1.38357,-0.003 -1.92578,-0.4043 -0.50523,-0.79819 -0.31286,-1.80279 -0.37696,-2.69727 -0.0388,-5.06456 -0.0699,-10.156 0.0313,-15.2207 0.0819,-0.47534 0.10336,-1.19594 0.67578,-1.34766 1.17623,-0.31105 2.39308,-0.15427 3.59179,-0.20507 z"
         id="path914-8"
         inkscape:connector-curvature="0" />
      <path
         d="m 151.54888,44 c -25.95019,0.250888 -46.85121,21.368834 -46.83399,47.320312 v 9.470708 c 0.001,8.94396 -3.67663,17.49382 -10.16992,23.64453 l -20.35937,15.6582 c -6.4933,6.15076 -10.170975,14.70257 -10.169925,23.64648 l -0.01563,55.26563 c -6e-4,2.20875 0.0054,5.16071 0.01172,8 -0.0064,1.30508 0.0059,2.47917 0.01172,3.69922 0.01042,1.76261 0.04207,3.31141 0.07227,4.90234 0.02093,1.10289 0.01668,2.46049 0.05078,3.39844 0.05105,1.41224 0.118106,2.55437 0.173828,3.83398 C 65.71906,265.30592 72.95099,268 102.93364,268 h 98.15625 c 32.5198,0 38.14272,-3.14418 38.82813,-31.28906 0.0178,-0.9115 0.0227,-1.99035 0.0332,-3.04297 0.0108,-1.07965 0.0283,-1.98083 0.0332,-3.1211 0.0103,-1.17128 0.0273,-2.29173 0.0273,-3.54101 4.7e-4,-3.565 -0.012,-6.93423 -0.0117,-8 l 0.0156,-55.10156 c 4.9e-4,-8.94381 -3.67712,-17.49348 -10.16993,-23.64453 l -20.3789,-15.65821 c -6.4928,-6.1511 -10.17042,-14.70267 -10.16992,-23.64648 V 91.320312 C 199.28701,65.613654 178.76579,44.610155 153.06646,44 Z m 0.41797,32.318359 h 0.0781 c 8.22573,-0.002 14.89353,6.668806 14.89453,14.894532 v 0.07813 c -0.005,4.195494 -1.78131,8.198769 -4.89062,11.015629 -2.73635,2.49142 -6.30326,3.87291 -10.00391,3.87891 h -0.0781 c -3.70761,-0.0249 -7.27921,-1.43269 -10.00391,-3.94727 -3.09198,-2.800976 -4.86572,-6.775315 -4.89062,-10.947269 v -0.07813 c 0.001,-8.223286 6.67114,-14.893232 14.89453,-14.894532 z"
         style="display:inline;fill:url(#linearGradient70);fill-opacity:1;stroke-width:0;enable-background:new"
         id="path15" />
      <path
         d="m 152.19536,74.552734 c -9.32465,0.0015 -16.88754,7.564134 -16.88867,16.888672 v 0.08984 c 0.0282,4.730656 2.03887,9.236034 5.54492,12.412114 3.08959,2.85134 7.13962,4.44832 11.34375,4.47656 h 0.0899 c 4.19623,-0.007 8.24095,-1.57337 11.34375,-4.39844 3.52571,-3.19409 5.53925,-7.732886 5.54492,-12.490234 v -0.08984 c -0.001,-9.327305 -7.56136,-16.89094 -16.88867,-16.888672 z m -0.22851,1.765625 h 0.0781 c 8.22571,-0.002 14.89353,6.668822 14.89453,14.894532 v 0.07813 c -0.005,4.195484 -1.78131,8.19877 -4.89062,11.015629 -2.73635,2.49142 -6.30326,3.87291 -10.00391,3.87891 h -0.0781 c -3.70761,-0.0249 -7.27921,-1.43269 -10.00391,-3.94727 -3.09198,-2.800973 -4.86572,-6.775325 -4.89062,-10.947269 v -0.07813 c 0.001,-8.22327 6.67116,-14.893232 14.89453,-14.894532 z"
         style="display:inline;fill:url(#linearGradient36);fill-opacity:1;stroke-width:0;enable-background:new"
         id="path35" />
      <path
         d="m 240.00982,225.32422 c -0.003,1.1172 -0.016,2.15668 -0.0254,3.22265 -0.005,1.14027 -0.0224,2.04145 -0.0332,3.1211 -0.0105,1.05262 -0.0154,2.13147 -0.0332,3.04297 C 239.23261,262.85579 233.60966,266 201.08989,266 h -98.15625 c -29.98261,0 -37.21462,-2.6941 -38.613278,-25.16016 -0.05572,-1.2796 -0.122728,-2.42174 -0.173828,-3.83398 -0.0341,-0.93795 -0.02988,-2.29555 -0.05078,-3.39844 -0.0302,-1.59093 -0.06187,-3.13973 -0.07227,-4.90234 -0.0057,-1.22005 -0.01772,-2.39414 -0.01172,-3.69922 -0.0064,-2.72422 -0.01182,-5.5001 -0.01172,-7.67578 v 1.67578 c -6e-4,2.20875 0.005,5.16071 0.01172,8 -0.006,1.30508 0.006,2.47917 0.01172,3.69922 0.0104,1.76261 0.04207,3.31141 0.07227,4.90234 0.0209,1.10289 0.01668,2.46049 0.05078,3.39844 0.0511,1.41224 0.118108,2.55438 0.173828,3.83398 C 65.71902,265.3059 72.95102,268 102.93364,268 h 98.15625 c 32.51977,0 38.14272,-3.14421 38.82813,-31.28906 0.0178,-0.9115 0.0227,-1.99035 0.0332,-3.04297 0.0108,-1.07965 0.0283,-1.98083 0.0332,-3.1211 0.0103,-1.17127 0.0273,-2.29173 0.0273,-3.54101 1e-4,-0.74938 -0.001,-0.96914 -0.002,-1.68164 z"
         style="display:inline;opacity:0.2;fill:url(#linearGradient25);stroke-width:0;enable-background:new"
         id="path26" />
      <path
         d="m 151.54888,44 c -25.95009,0.250887 -46.85121,21.368938 -46.83399,47.320312 V 93.28125 C 104.71893,67.347977 125.61002,46.250759 151.54693,46 h 1.51757 c 25.69924,0.610152 46.22061,21.613758 46.23047,47.320312 v 9.634768 c -5.1e-4,8.94377 3.67716,17.49541 10.16992,23.64648 l 20.37891,15.65821 c 6.49279,6.15102 10.17041,14.70075 10.16992,23.64453 l -0.0156,55.10156 c -2.5e-4,0.8701 0.007,3.73746 0.01,6.53125 6.9e-4,-0.18223 0.004,-0.34382 0.004,-0.53125 4.7e-4,-3.56499 -0.012,-6.93423 -0.0117,-8 l 0.0156,-55.10156 c 4.9e-4,-8.94378 -3.67714,-17.49351 -10.16993,-23.64453 l -20.3789,-15.65821 c -6.49278,-6.15107 -10.17042,-14.70271 -10.16992,-23.64648 V 91.320312 C 199.28673,65.613758 178.76568,44.610152 153.06646,44 Z m -46.83594,56.83008 c -0.01,8.92966 -3.68422,17.4638 -10.16797,23.60547 l -20.35937,15.6582 c -6.49327,6.15073 -10.170975,14.70261 -10.169925,23.64648 v 1.97266 c 0.0065,-8.93388 3.681375,-17.47472 10.167965,-23.61914 l 20.35938,-15.6582 c 6.49326,-6.15069 10.17092,-14.70061 10.16992,-23.64453 z"
         style="display:inline;opacity:0.4;fill:#ffffff;stroke-width:0;enable-background:new"
         id="path25" />
      <path
         d="m 151.91216,55.251953 c -19.82396,0.0032 -35.90383,16.082533 -35.90625,35.90625 v 0.1875 c 0.0601,10.057247 4.3353,19.638347 11.78906,26.390627 6.56838,6.06185 15.17933,9.45558 24.11719,9.51562 h 0.1875 c 8.92108,-0.0144 17.52072,-3.34552 24.11719,-9.35156 7.49555,-6.79055 11.77699,-16.44069 11.78906,-26.554687 v -0.1875 c -0.002,-19.8296 -16.07664,-35.911071 -35.90625,-35.90625 z m 0.0352,13.5 h 0.11718 c 12.39347,-0.003 22.44037,10.047907 22.44137,22.441406 v 0.117188 c -0.008,6.321246 -2.68443,12.353563 -7.36914,16.597653 -4.12279,3.75378 -9.49659,5.83475 -15.07227,5.84375 h -0.11718 c -5.58617,-0.0375 -10.96703,-2.15861 -15.07227,-5.94726 -4.65859,-4.22017 -7.33164,-10.208366 -7.36914,-16.494143 v -0.117188 c 0.002,-12.389822 10.05143,-22.439406 22.44141,-22.441406 z"
         style="display:inline;fill:#efbc1c;fill-opacity:1;stroke-width:0;enable-background:new"
         id="path13" />
      <path
         d="m 152.02938,55.369141 c -19.82396,0.0032 -35.90383,16.082533 -35.90625,35.90625 v 0.1875 c 0.0601,10.057249 4.3353,19.638349 11.78906,26.390629 6.56838,6.06185 15.17933,9.45558 24.11719,9.51562 h 0.1875 c 8.92108,-0.0144 17.52072,-3.34552 24.11719,-9.35156 7.49555,-6.79055 11.77699,-16.44069 11.78906,-26.554689 v -0.1875 c -0.002,-19.8296 -16.07664,-35.911071 -35.90625,-35.90625 z m 0.0352,13.5 h 0.11718 c 12.39347,-0.003 22.44037,10.047907 22.44137,22.441406 v 0.117188 c -0.008,6.321245 -2.68443,12.353565 -7.36914,16.597655 -4.12279,3.75378 -9.49659,5.83475 -15.07227,5.84375 h -0.11718 c -5.58617,-0.0375 -10.96703,-2.15861 -15.07227,-5.94726 -4.65859,-4.22017 -7.33164,-10.20837 -7.36914,-16.494145 v -0.117188 c 0.002,-12.389822 10.05143,-22.439406 22.44141,-22.441406 z"
         style="display:inline;opacity:0.2;fill:#000000;fill-opacity:1;stroke-width:0;filter:url(#filter17);enable-background:new"
         id="path13-9-6" />
      <path
         d="m 152.01958,51.648437 c -21.8086,0.0035 -39.49734,17.691661 -39.5,39.5 v 0.207032 c 0.0661,11.064111 4.76878,21.604931 12.96875,29.033201 7.22597,6.66874 16.69859,10.40075 26.53125,10.4668 h 0.20703 c 9.81419,-0.0158 19.27438,-3.67979 26.53125,-10.28711 8.24596,-7.47038 12.95547,-18.08635 12.96875,-29.212891 v -0.207032 c -0.002,-21.814807 -17.68517,-39.505301 -39.5,-39.5 z m 0.006,2 h 0.19531 c 20.71316,-0.005 37.50386,16.792721 37.50586,37.50586 v 0.195312 c -0.0126,10.564641 -4.48491,20.645161 -12.31445,27.738281 -6.89039,6.27365 -15.87285,9.75258 -25.19141,9.76758 h -0.19531 c -9.3361,-0.0627 -18.33036,-3.60555 -25.1914,-9.9375 -7.78589,-7.05314 -12.25166,-17.063 -12.31446,-27.568361 v -0.195312 c 0.003,-20.706998 16.79862,-37.50256 37.50586,-37.50586 z"
         style="display:inline;fill:url(#linearGradient12);stroke-width:0;enable-background:new"
         id="path9" />
      <path
         d="m 152.02544,53.648437 c -20.70724,0.0033 -37.50332,16.798862 -37.50586,37.50586 v 0.195312 c 0.0628,10.505361 4.52857,20.515221 12.31446,27.568361 6.86104,6.33195 15.8553,9.87479 25.1914,9.9375 h 0.19531 c 9.31856,-0.015 18.30102,-3.49393 25.19141,-9.76758 7.82954,-7.09312 12.30184,-17.17364 12.31445,-27.738281 v -0.195312 c -0.002,-20.713139 -16.7927,-37.510893 -37.50586,-37.50586 z m 0.0391,15.103516 h 0.11719 c 12.3934,-0.003 22.44041,10.047982 22.44141,22.441406 v 0.117188 c -0.008,6.321208 -2.68447,12.353593 -7.36914,16.597653 -4.12277,3.75376 -9.49662,5.83475 -15.07227,5.84375 h -0.11719 c -5.58613,-0.0375 -10.96705,-2.15864 -15.07226,-5.94726 -4.65857,-4.22015 -7.33164,-10.208404 -7.36914,-16.494143 v -0.117188 c 0.002,-12.389747 10.05151,-22.439406 22.4414,-22.441406 z"
         style="display:inline;fill:#fdd763;stroke-width:0;enable-background:new"
         id="path7" />
      <path
         d="m 152.17586,66.986328 c -13.49127,0.0022 -24.43336,10.944434 -24.43554,24.435546 v 0.128907 c 0.0408,6.844494 2.95076,13.363709 8.02343,17.958989 4.47014,4.12542 10.32941,6.43573 16.41211,6.47656 h 0.12891 c 6.07128,-0.01 11.92285,-2.27583 16.41211,-6.36328 5.1011,-4.62135 8.01473,-11.189145 8.02344,-18.072269 v -0.128907 c -0.001,-13.495115 -10.94046,-24.438813 -24.43555,-24.435546 z m -0.11132,1.765625 h 0.11718 c 12.39346,-0.003 22.44041,10.047919 22.44141,22.441406 v 0.117187 c -0.008,6.32124 -2.68444,12.353574 -7.36914,16.597664 -4.12279,3.75377 -9.49659,5.83475 -15.07227,5.84375 h -0.11718 c -5.58617,-0.0375 -10.96703,-2.15862 -15.07227,-5.94727 -4.65858,-4.22017 -7.33164,-10.208373 -7.36914,-16.494144 v -0.117187 c 0.002,-12.38981 10.05144,-22.439406 22.44141,-22.441406 z"
         style="display:inline;fill:url(#linearGradient20);stroke-width:0;enable-background:new"
         id="path19" />
      <path
         d="m 149.92388,153.55078 c -10.01071,-0.23384 -18.71767,9.17913 -17.91797,19.11335 0,8.24933 0,16.49865 0,24.74798 -7.6323,-3.79055 -17.90343,-2.35487 -23.29318,4.57379 -6.66405,7.51895 -6.10593,19.98591 1.1479,26.90881 7.00681,7.34634 19.67754,7.8022 27.19416,0.97877 5.1001,-4.25109 7.39049,-11.04882 6.90229,-17.5583 0.0199,-13.82252 -0.0399,-27.64696 0.03,-41.46828 0.20637,-3.66452 3.9753,-5.85448 7.37124,-5.34495 7.89419,0.0743 15.80663,-0.15151 23.68896,0.11829 3.52507,0.55353 5.18606,4.27945 4.74377,7.52204 0,7.78265 0,15.5653 0,23.34795 -9.59735,-4.52227 -22.09206,0.41948 -26.22254,10.14146 -4.42329,9.13883 -0.30332,21.07734 8.6803,25.70223 8.66563,4.94708 20.68756,1.99865 26.08212,-6.39576 3.23427,-4.42566 3.61252,-10.01359 3.41129,-15.29652 -0.0591,-13.66353 0.12021,-27.33471 -0.0933,-40.99329 -0.76767,-9.41793 -9.88677,-16.9272 -19.25915,-16.09757 -7.48864,0 -14.97729,0 -22.46593,0 z m -26.05078,53.30859 c 5.53398,-0.21582 9.73639,6.28381 7.17383,11.23042 -2.10329,5.12773 -9.74655,6.18251 -13.16725,1.83342 -3.91165,-4.14409 -1.43236,-11.74811 4.14419,-12.84416 0.60483,-0.14592 1.22766,-0.22077 1.84923,-0.21968 z m 47.78515,0 c 5.53403,-0.21584 9.73639,6.28379 7.17383,11.23042 -2.10326,5.12756 -9.74654,6.18262 -13.16724,1.83342 -3.91164,-4.14409 -1.43236,-11.74811 4.14419,-12.84416 0.60482,-0.14592 1.22765,-0.22077 1.84922,-0.21968 z"
         style="display:inline;fill:#f2ba02;fill-opacity:1;filter:url(#filter113);enable-background:new"
         id="path107" />
      <path
         d="m 150.07427,165.43555 c -2.9992,0.12807 -5.90732,2.20565 -6.08789,5.41211 -0.038,7.50694 -0.0382,15.0135 -0.0332,22.52148 -0.004,-6.84127 -0.001,-13.68113 0.0332,-20.52148 0.20637,-3.66452 3.97515,-5.85524 7.37109,-5.34571 7.89419,0.0743 15.80713,-0.15066 23.68946,0.11914 2.84701,0.44706 4.455,2.9652 4.74414,5.625 v -0.10351 c 0.44229,-3.24259 -1.21907,-6.96796 -4.74414,-7.52149 -7.88233,-0.2698 -15.79527,-0.0448 -23.68946,-0.11914 -0.42449,-0.0637 -0.85474,-0.0847 -1.2832,-0.0664 z m -25.75977,41.41992 c -0.14609,-0.004 -0.29327,-0.002 -0.4414,0.004 -0.62157,-10e-4 -1.24478,0.0728 -1.84961,0.21875 -4.05506,0.79701 -6.45752,5.03412 -5.9707,8.88086 0.39405,-3.20166 2.6141,-6.22113 5.9707,-6.88086 0.60483,-0.14592 1.22804,-0.21983 1.84961,-0.21875 4.03259,-0.15726 7.34329,3.25416 7.85937,7.0293 0.60898,-4.33328 -2.8891,-8.91895 -7.41797,-9.0332 z m 47.78516,0 c -0.1461,-0.004 -0.29327,-0.002 -0.44141,0.004 -0.62157,-10e-4 -1.24479,0.0728 -1.84961,0.21875 -4.05505,0.79701 -6.4575,5.03412 -5.9707,8.88086 0.39407,-3.20166 2.61411,-6.22113 5.9707,-6.88086 0.60482,-0.14592 1.22804,-0.21983 1.84961,-0.21875 4.03319,-0.1573 7.34596,3.25353 7.86133,7.0293 0.60884,-4.33323 -2.89097,-8.91896 -7.41992,-9.0332 z m 19.66602,6.85547 c -0.0852,4.31885 -0.82268,8.6512 -3.43555,12.22656 -5.39456,8.39441 -17.4164,11.34356 -26.08203,6.39648 -6.19218,-3.18781 -10.06978,-9.85041 -10.43555,-16.67578 -0.36485,7.49217 3.63865,15.17665 10.43555,18.67578 8.66563,4.94708 20.68747,1.99793 26.08203,-6.39648 3.01728,-4.12874 3.54118,-9.26605 3.43555,-14.22656 z m -47.77344,1.3457 c -0.24955,5.62009 -2.55118,11.16027 -6.9375,14.81641 -7.51662,6.82343 -20.18655,6.36782 -27.19336,-0.97852 -3.60769,-3.44309 -5.55664,-8.25729 -5.78711,-13.15234 -0.2716,5.55887 1.68854,11.24076 5.78711,15.15234 7.00681,7.34634 19.67674,7.80195 27.19336,0.97852 4.90692,-4.09007 7.20464,-10.5364 6.9375,-16.81641 z"
         style="display:inline;opacity:0.25;fill:#ffffff;enable-background:new"
         id="path126" />
    </g>
  </g>
</svg>
