<?xml version="1.0" encoding="UTF-8" standalone="no"?>
<!-- Created with Inkscape (http://www.inkscape.org/) -->

<svg
   inkscape:export-ydpi="96"
   inkscape:export-xdpi="96"
   width="400"
   height="300"
   id="svg11300"
   sodipodi:version="0.32"
   inkscape:version="1.3.2 (091e20ef0f, 2023-11-25)"
   sodipodi:docname="ExtensionsManageBase.svg"
   inkscape:output_extension="org.inkscape.output.svg.inkscape"
   version="1.0"
   style="display:inline;enable-background:new"
   inkscape:export-filename="C:\Users\sblav\Pictures\vertical oblong template.png"
   xmlns:inkscape="http://www.inkscape.org/namespaces/inkscape"
   xmlns:sodipodi="http://sodipodi.sourceforge.net/DTD/sodipodi-0.dtd"
   xmlns:xlink="http://www.w3.org/1999/xlink"
   xmlns="http://www.w3.org/2000/svg"
   xmlns:svg="http://www.w3.org/2000/svg"
   xmlns:rdf="http://www.w3.org/1999/02/22-rdf-syntax-ns#"
   xmlns:cc="http://creativecommons.org/ns#"
   xmlns:dc="http://purl.org/dc/elements/1.1/">
  <title
     id="title3004">Yaru Icon Theme Template</title>
  <sodipodi:namedview
     stroke="#ef2929"
     fill="#f57900"
     id="base"
     pagecolor="#ffffff"
     bordercolor="#000000"
     borderopacity="0.25490196"
     inkscape:pageopacity="0"
     inkscape:pageshadow="2"
     inkscape:zoom="3.0151575"
     inkscape:cx="225.19553"
     inkscape:cy="190.70314"
     inkscape:current-layer="layer4"
     showgrid="false"
     inkscape:grid-bbox="true"
     inkscape:document-units="px"
     inkscape:showpageshadow="false"
     inkscape:window-width="1862"
     inkscape:window-height="1011"
     inkscape:window-x="0"
     inkscape:window-y="0"
     width="400px"
     height="300px"
     inkscape:snap-nodes="true"
     inkscape:snap-bbox="true"
     gridtolerance="10000"
     inkscape:object-nodes="true"
     inkscape:snap-grids="true"
     showguides="true"
     inkscape:guide-bbox="true"
     inkscape:window-maximized="1"
     inkscape:bbox-paths="true"
     inkscape:snap-bbox-midpoints="true"
     inkscape:snap-global="true"
     inkscape:object-paths="true"
     inkscape:snap-intersection-paths="true"
     inkscape:snap-smooth-nodes="true"
     inkscape:pagecheckerboard="false"
     showborder="false"
     inkscape:deskcolor="#d1d1d1">
    <inkscape:grid
       spacingy="1"
       spacingx="1"
       id="grid5883"
       type="xygrid"
       enabled="true"
       visible="false"
       empspacing="4"
       snapvisiblegridlinesonly="true"
       originx="0"
       originy="0"
       units="px"
       empcolor="#161616"
       empopacity="0.30196078"
       color="#4b4b4b"
       opacity="0.14901961" />
    <inkscape:grid
       type="xygrid"
       id="grid11592"
       empspacing="2"
       visible="false"
       enabled="false"
       spacingx="0.5"
       spacingy="0.5"
       color="#ff0000"
       opacity="0.1254902"
       empcolor="#ff0000"
       empopacity="0.25098039"
       snapvisiblegridlinesonly="true"
       originx="0"
       originy="0"
       units="px" />
  </sodipodi:namedview>
  <defs
     id="defs3">
    <linearGradient
       inkscape:collect="always"
       id="linearGradient73">
      <stop
         style="stop-color:#ffffff;stop-opacity:1;"
         offset="0.20013502"
         id="stop70" />
      <stop
         id="stop71"
         offset="0.22099726"
         style="stop-color:#ffffff;stop-opacity:0.5;" />
      <stop
         id="stop72"
         offset="0.92500001"
         style="stop-color:#ffffff;stop-opacity:0.09803922" />
      <stop
         style="stop-color:#ffffff;stop-opacity:0.49803922"
         offset="1"
         id="stop73" />
    </linearGradient>
    <linearGradient
       inkscape:collect="always"
       id="linearGradient27">
      <stop
         style="stop-color:#ffffff;stop-opacity:1;"
         offset="0.03728746"
         id="stop19" />
      <stop
         id="stop20"
         offset="0.08759231"
         style="stop-color:#ffffff;stop-opacity:0.09803922" />
      <stop
         id="stop21"
         offset="0.1244863"
         style="stop-color:#ffffff;stop-opacity:0.1;" />
      <stop
         id="stop22"
         offset="0.17720558"
         style="stop-color:#ffffff;stop-opacity:0.5;" />
      <stop
         id="stop23"
         offset="0.22012888"
         style="stop-color:#ffffff;stop-opacity:1;" />
      <stop
         id="stop24"
         offset="0.33268058"
         style="stop-color:#ffffff;stop-opacity:0.1;" />
      <stop
         id="stop25"
         offset="0.49100465"
         style="stop-color:#ffffff;stop-opacity:0.5;" />
      <stop
         id="stop26"
         offset="0.92500001"
         style="stop-color:#ffffff;stop-opacity:0.09803922" />
      <stop
         style="stop-color:#ffffff;stop-opacity:0.49803922"
         offset="1"
         id="stop27" />
    </linearGradient>
    <linearGradient
       inkscape:collect="always"
       id="linearGradient38">
      <stop
         style="stop-color:#ffffff;stop-opacity:1;"
         offset="0.03588031"
         id="stop30" />
      <stop
         id="stop36"
         offset="0.22099726"
         style="stop-color:#ffffff;stop-opacity:0.5;" />
      <stop
         id="stop37"
         offset="0.92500001"
         style="stop-color:#ffffff;stop-opacity:0.09803922" />
      <stop
         style="stop-color:#ffffff;stop-opacity:0.49803922"
         offset="1"
         id="stop38" />
    </linearGradient>
    <clipPath
       clipPathUnits="userSpaceOnUse"
       id="clipPath9430">
      <path
         sodipodi:nodetypes="sssssssss"
         inkscape:connector-curvature="0"
         id="path9432"
         d="m 166.0625,-196 h 179.875 C 491.2348,-196 512,-175.28677 512,-30.125 v 148.25 C 512,263.28618 491.2348,284 345.9375,284 H 166.0625 C 20.7652,284 0,263.28618 0,118.125 V -30.125 C 0,-175.28677 20.7652,-196 166.0625,-196 Z"
         style="color:#000000;display:inline;overflow:visible;visibility:visible;fill:#ffffff;fill-opacity:1;fill-rule:nonzero;stroke:none;stroke-width:1;marker:none;enable-background:new" />
    </clipPath>
    <clipPath
       clipPathUnits="userSpaceOnUse"
       id="clipPath1082">
      <path
         sodipodi:nodetypes="sssssssss"
         inkscape:connector-curvature="0"
         id="path1084"
         d="M 361.9375,-212 C 507.2348,-212 528,-191.28677 528,-46.125 V 70.125 C 528,215.28618 507.2348,236 361.9375,236 H 214.0625 C 68.7652,236 48,215.28618 48,70.125 V -46.125 C 48,-191.28677 68.7652,-212 214.0625,-212 Z"
         style="display:inline;opacity:1;fill:#8c59d9;fill-opacity:1;stroke:none;stroke-width:2;stroke-linecap:round;stroke-linejoin:round;stroke-miterlimit:4;stroke-dasharray:none;stroke-dashoffset:0;stroke-opacity:1;enable-background:new" />
    </clipPath>
    <clipPath
       clipPathUnits="userSpaceOnUse"
       id="clipPath994">
      <path
         style="color:#000000;display:inline;overflow:visible;visibility:visible;fill:#cdcdcd;fill-opacity:1;fill-rule:nonzero;stroke:none;stroke-width:2;stroke-miterlimit:4;stroke-dasharray:none;stroke-opacity:1;marker:none;enable-background:accumulate"
         d="m 335.73108,62 c -8.82418,0 -9.77365,0.90635 -9.7304,9.74838 V 84 96.25162 c -0.0433,8.84203 0.90622,9.74838 9.7304,9.74838 h 16.53919 c 8.82418,0 9.7304,-0.90625 9.7304,-9.74838 V 84 71.74838 C 362.00067,62.90625 361.09445,62 352.27027,62 Z"
         id="path996"
         inkscape:connector-curvature="0"
         sodipodi:nodetypes="scccssscsss" />
    </clipPath>
    <clipPath
       clipPathUnits="userSpaceOnUse"
       id="clipPath959">
      <path
         style="color:#000000;display:inline;overflow:visible;visibility:visible;opacity:1;fill:#46a926;fill-opacity:1;fill-rule:nonzero;stroke:none;stroke-width:2;stroke-miterlimit:4;stroke-dasharray:none;stroke-opacity:1;marker:none;enable-background:accumulate"
         d="m 330.1929,133.99999 c -5.61538,0 -6.21958,0.57678 -6.19206,6.20352 v 7.79648 7.79648 c -0.0276,5.62673 0.57668,6.20351 6.19206,6.20351 h 11.615 c 5.6154,0 6.19208,-0.5767 6.19208,-6.20351 v -7.79648 -7.79648 c 0,-5.6268 -0.5767,-6.20352 -6.19208,-6.20352 z"
         id="path961"
         inkscape:connector-curvature="0"
         sodipodi:nodetypes="scccssscsss" />
    </clipPath>
    <clipPath
       clipPathUnits="userSpaceOnUse"
       id="clipPath971">
      <path
         style="color:#000000;display:inline;overflow:visible;visibility:visible;opacity:1;fill:#46a926;fill-opacity:1;fill-rule:nonzero;stroke:none;stroke-width:2;stroke-miterlimit:4;stroke-dasharray:none;stroke-opacity:1;marker:none;enable-background:accumulate"
         d="m 327.8652,189 c -4.41209,0 -4.88682,0.45318 -4.8652,4.87419 V 200 206.12581 C 322.9783,210.54682 323.45311,211 327.8652,211 h 8.2696 C 340.54689,211 341,210.54688 341,206.12581 V 200 193.87419 C 341,189.45313 340.54688,189 336.13479,189 Z"
         id="path973"
         inkscape:connector-curvature="0"
         sodipodi:nodetypes="scccssscsss" />
    </clipPath>
    <linearGradient
       id="linearGradient4336-3">
      <stop
         style="stop-color:#5884f4;stop-opacity:1"
         offset="0"
         id="stop4338-8" />
      <stop
         id="stop4344-3"
         offset="0.27800092"
         style="stop-color:#5884f4;stop-opacity:1" />
      <stop
         style="stop-color:#2f5fdd;stop-opacity:1"
         offset="0.27800092"
         id="stop4346-3" />
      <stop
         id="stop4350-1"
         offset="0.70735365"
         style="stop-color:#2f5fdd;stop-opacity:1" />
      <stop
         id="stop4348-6"
         offset="0.70936078"
         style="stop-color:#234db8;stop-opacity:1" />
      <stop
         style="stop-color:#234db8;stop-opacity:1"
         offset="1"
         id="stop4340-0" />
    </linearGradient>
    <clipPath
       clipPathUnits="userSpaceOnUse"
       id="clipPath994-1">
      <path
         style="color:#000000;display:inline;overflow:visible;visibility:visible;fill:#cdcdcd;fill-opacity:1;fill-rule:nonzero;stroke:none;stroke-width:2;stroke-miterlimit:4;stroke-dasharray:none;stroke-opacity:1;marker:none;enable-background:accumulate"
         d="m 335.73108,62 c -8.82418,0 -9.77365,0.90635 -9.7304,9.74838 V 84 96.25162 c -0.0433,8.84203 0.90622,9.74838 9.7304,9.74838 h 16.53919 c 8.82418,0 9.7304,-0.90625 9.7304,-9.74838 V 84 71.74838 C 362.00067,62.90625 361.09445,62 352.27027,62 Z"
         id="path996-8"
         inkscape:connector-curvature="0"
         sodipodi:nodetypes="scccssscsss" />
    </clipPath>
    <linearGradient
       id="linearGradient3797-5">
      <stop
         id="stop3801"
         offset="0"
         style="stop-color:#f7f7f7;stop-opacity:1" />
      <stop
         id="stop3799"
         offset="1"
         style="stop-color:#e6e6e6;stop-opacity:1" />
    </linearGradient>
    <filter
       inkscape:collect="always"
       style="color-interpolation-filters:sRGB"
       id="filter5"
       x="-0.011999843"
       y="-0.012000157"
       width="1.0239997"
       height="1.0240003">
      <feGaussianBlur
         inkscape:collect="always"
         stdDeviation="1.1200147"
         id="feGaussianBlur5" />
    </filter>
    <linearGradient
       inkscape:collect="always"
       xlink:href="#linearGradient27"
       id="linearGradient30"
       x1="340.42773"
       y1="62.021484"
       x2="340.2868"
       y2="106.00005"
       gradientUnits="userSpaceOnUse" />
    <linearGradient
       inkscape:collect="always"
       xlink:href="#linearGradient38"
       id="linearGradient11"
       x1="334"
       y1="134"
       x2="333.99695"
       y2="162.00009"
       gradientUnits="userSpaceOnUse" />
    <linearGradient
       inkscape:collect="always"
       xlink:href="#linearGradient38"
       id="linearGradient49"
       x1="327.03491"
       y1="236.99979"
       x2="326.92545"
       y2="251.00018"
       gradientUnits="userSpaceOnUse" />
    <filter
       inkscape:collect="always"
       style="color-interpolation-filters:sRGB"
       id="filter62"
       x="-0.048000629"
       y="-0.047999373"
       width="1.0960013"
       height="1.0959987">
      <feGaussianBlur
         inkscape:collect="always"
         stdDeviation="4.4791602"
         id="feGaussianBlur62" />
    </filter>
    <filter
       inkscape:collect="always"
       style="color-interpolation-filters:sRGB"
       id="filter63"
       x="-0.012000157"
       y="-0.011999843"
       width="1.0240003"
       height="1.0239997">
      <feGaussianBlur
         inkscape:collect="always"
         stdDeviation="1.1197901"
         id="feGaussianBlur63" />
    </filter>
    <linearGradient
       inkscape:collect="always"
       xlink:href="#linearGradient73"
       id="linearGradient70"
       x1="330.00003"
       y1="189.47073"
       x2="330.99973"
       y2="211.93219"
       gradientUnits="userSpaceOnUse" />
  </defs>
  <metadata
     id="metadata4">
    <rdf:RDF>
      <cc:Work
         rdf:about="">
        <dc:format>image/svg+xml</dc:format>
        <dc:type
           rdf:resource="http://purl.org/dc/dcmitype/StillImage" />
        <dc:creator>
          <cc:Agent>
            <dc:title>Yaru Team, based on the Suru template by Sam Hewitt</dc:title>
          </cc:Agent>
        </dc:creator>
        <dc:source />
        <dc:title>Yaru Icon Theme Template</dc:title>
        <dc:subject>
          <rdf:Bag />
        </dc:subject>
        <dc:date />
        <dc:rights>
          <cc:Agent>
            <dc:title />
          </cc:Agent>
        </dc:rights>
        <dc:publisher>
          <cc:Agent>
            <dc:title />
          </cc:Agent>
        </dc:publisher>
        <dc:identifier />
        <dc:relation />
        <dc:language />
        <dc:coverage />
        <dc:description />
        <dc:contributor>
          <cc:Agent>
            <dc:title />
          </cc:Agent>
        </dc:contributor>
        <cc:license
           rdf:resource="http://creativecommons.org/licenses/by-sa/4.0/" />
      </cc:Work>
      <cc:Work
         rdf:about="">
        <dc:format>image/svg+xml</dc:format>
        <dc:type
           rdf:resource="http://purl.org/dc/dcmitype/StillImage" />
      </cc:Work>
      <cc:License
         rdf:about="http://creativecommons.org/licenses/by-sa/4.0/">
        <cc:permits
           rdf:resource="http://creativecommons.org/ns#Reproduction" />
        <cc:permits
           rdf:resource="http://creativecommons.org/ns#Distribution" />
        <cc:requires
           rdf:resource="http://creativecommons.org/ns#Notice" />
        <cc:requires
           rdf:resource="http://creativecommons.org/ns#Attribution" />
        <cc:permits
           rdf:resource="http://creativecommons.org/ns#DerivativeWorks" />
        <cc:requires
           rdf:resource="http://creativecommons.org/ns#ShareAlike" />
      </cc:License>
    </rdf:RDF>
  </metadata>
  <g
     style="display:inline"
     inkscape:groupmode="layer"
     inkscape:label="Icon"
     id="layer1">
    <g
       style="display:inline"
       inkscape:label="Baseplate"
       id="layer7"
       inkscape:groupmode="layer">
      <text
         y="-8.2548828"
         xml:space="preserve"
         x="19.006836"
         style="font-style:normal;font-variant:normal;font-weight:normal;font-stretch:normal;line-height:0%;font-family:'DejaVu Sans';-inkscape-font-specification:'DejaVu Sans';display:inline;fill:#000000;fill-opacity:1;stroke:none;enable-background:new"
         inkscape:label="context"
         id="context"><tspan
           style="font-style:normal;font-variant:normal;font-weight:normal;font-stretch:normal;font-size:18px;line-height:1.25;font-family:'DejaVu Sans';-inkscape-font-specification:'DejaVu Sans'"
           y="-8.2548828"
           x="19.006836"
           sodipodi:role="line"
           id="tspan3933">apps</tspan></text>
      <text
         y="-8.2548828"
         xml:space="preserve"
         x="146.48828"
         style="font-style:normal;font-variant:normal;font-weight:bold;font-stretch:normal;line-height:0%;font-family:'DejaVu Sans';-inkscape-font-specification:'DejaVu Sans Bold';text-align:start;writing-mode:lr-tb;text-anchor:start;display:inline;fill:#000000;fill-opacity:1;stroke:none;enable-background:new"
         inkscape:label="icon-name"
         id="icon-name"><tspan
           style="font-style:normal;font-variant:normal;font-weight:bold;font-stretch:normal;font-size:18px;line-height:1.25;font-family:'DejaVu Sans';-inkscape-font-specification:'DejaVu Sans Bold'"
           y="-8.2548828"
           x="146.48828"
           sodipodi:role="line"
           id="tspan3937">app-name</tspan></text>
      <rect
         style="display:none;opacity:1;fill:#222222;fill-opacity:1;stroke:none;stroke-width:2;stroke-linecap:round;enable-background:new"
         id="rect1"
         width="400"
         height="300"
         x="0"
         y="0"
         sodipodi:insensitive="true" />
      <rect
         style="display:inline;overflow:visible;visibility:visible;fill:#cdcdcd;fill-opacity:0;fill-rule:nonzero;stroke:none;stroke-width:2;marker:none;enable-background:accumulate"
         id="rect16x16"
         width="16"
         height="16"
         x="320"
         y="236"
         inkscape:label="16x16"
         inkscape:export-filename="../UbuntuProjects/YaruX/apps/16/com.mattjakeman.ExtensionManager.png"
         inkscape:export-xdpi="96"
         inkscape:export-ydpi="96" />
      <rect
         style="display:inline;overflow:visible;visibility:visible;fill:#cdcdcd;fill-opacity:0;fill-rule:nonzero;stroke:none;stroke-width:2;marker:none;enable-background:accumulate"
         id="rect24x24"
         width="24"
         height="24"
         x="320"
         y="188"
         inkscape:label="24x24"
         inkscape:export-filename="../UbuntuProjects/YaruX/apps/24/com.mattjakeman.ExtensionManager.png"
         inkscape:export-xdpi="96"
         inkscape:export-ydpi="96" />
      <rect
         style="display:inline;overflow:visible;visibility:visible;fill:#cdcdcd;fill-opacity:0;fill-rule:nonzero;stroke:none;stroke-width:2;marker:none;enable-background:accumulate"
         id="rect32x32"
         width="32"
         height="32"
         x="320"
         y="132"
         inkscape:label="32x32"
         inkscape:export-filename="../UbuntuProjects/YaruX/apps/32/com.mattjakeman.ExtensionManager.png"
         inkscape:export-xdpi="96"
         inkscape:export-ydpi="96" />
      <rect
         inkscape:label="48x48"
         y="60"
         x="320"
         height="48"
         width="48"
         id="rect48x48"
         style="display:inline;overflow:visible;visibility:visible;fill:#939393;fill-opacity:0;fill-rule:nonzero;stroke:none;stroke-width:2;marker:none;enable-background:accumulate;opacity:1"
         inkscape:export-filename="../UbuntuProjects/YaruX/apps/48/com.mattjakeman.ExtensionManager.png"
         inkscape:export-xdpi="96"
         inkscape:export-ydpi="96" />
      <rect
         style="display:inline;overflow:visible;visibility:visible;fill:#cdcdcd;fill-opacity:0;fill-rule:nonzero;stroke:none;stroke-width:2;marker:none;enable-background:accumulate"
         id="rect3951"
         width="256"
         height="256"
         x="24"
         y="28"
         inkscape:label="48x48"
         inkscape:export-filename="../UbuntuProjects/YaruX/apps/256/com.mattjakeman.ExtensionManager.png"
         inkscape:export-xdpi="96"
         inkscape:export-ydpi="96" />
    </g>
    <g
       inkscape:groupmode="layer"
       id="layer8"
       inkscape:label="Backgrounds"
       style="display:inline">
      <path
         d="m 127.99805,46 c -13.25466,0 -24,10.745352 -24,24 V 94 H 78.91602 C 43.619481,94 39.99414,97.625787 39.99414,132.99414 V 158 h 24 c 13.25465,0 24,10.74536 24,24 0,13.25464 -10.74535,24 -24,24 h -24 v 25.00586 C 39.99414,266.37421 43.619481,270 78.91602,270 h 25.08203 v -24 c 0,-13.25464 10.74534,-24 24,-24 13.25464,0 24,10.74536 24,24 v 24 h 25.08007 C 212.37468,270 216.17299,266.3738 216,231.00586 V 206 h 24 c 13.2547,0 24,-10.7453 24,-24 0,-13.2547 -10.7453,-24 -24,-24 H 216 V 132.99414 C 216.17299,97.626207 212.37468,94 177.07812,94 H 151.99805 V 70 c 0,-13.254648 -10.74536,-24 -24,-24 z"
         style="display:inline;enable-background:new;fill:#3689b9;fill-opacity:0.992324;stroke:none;stroke-width:4;stroke-linecap:round;stroke-opacity:1;filter:url(#filter5);opacity:0.1"
         id="path4-1"
         inkscape:label="PuzzleShadow256Angle" />
      <path
         d="m 132.49413,44.039059 c -13.25467,0 -24,10.745331 -24,24 V 82.994141 H 78.916006 c -35.296499,0 -38.921875,3.62386 -38.921875,38.992189 v 29.50781 h 14.955078 c 13.254746,0 24,10.74527 24,24 -1e-5,13.25476 -10.745274,24 -24,24 H 39.994131 v 29.51172 c 0,35.3683 3.625376,38.99414 38.921875,38.99414 h 29.578124 v -14.95508 c 0,-13.25474 10.74527,-24 24,-24 13.25476,1e-5 24,10.74528 24,24 V 268 h 29.57813 c 35.29651,0 39.09486,-3.62625 38.92187,-38.99414 v -29.51172 h 14.95508 c 13.2547,0 24,-10.74529 24,-24 0,-13.2547 -10.7453,-24 -24,-24 H 224.99413 V 121.98633 C 225.16712,86.618421 221.36877,82.994141 186.07226,82.994141 H 156.49413 V 68.039059 c 0,-13.254669 -10.74532,-24 -24,-24 z"
         style="display:inline;enable-background:new;fill:#000000;fill-opacity:1;stroke-width:2.00048;stroke-linecap:round;filter:url(#filter62);opacity:0.2"
         id="path56-2"
         inkscape:label="shadowhighblur" />
      <path
         d="m 132.52148,46.019496 c -13.25467,0 -24,10.745331 -24,24 V 84.974578 H 78.943355 c -35.296499,0 -38.921875,3.62386 -38.921875,38.992192 v 29.50781 h 14.955078 c 13.254746,0 24,10.74527 24,24 -1e-5,13.25476 -10.745274,24 -24,24 H 40.02148 v 29.51172 c 0,35.3683 3.625376,38.99414 38.921875,38.99414 h 29.578125 v -14.95508 c 0,-13.25474 10.74527,-24 24,-24 13.25476,1e-5 24,10.74528 24,24 v 14.95508 h 29.57813 c 35.29651,0 39.09486,-3.62625 38.92187,-38.99414 v -29.51172 h 14.95508 c 13.2547,0 24,-10.74529 24,-24 0,-13.2547 -10.7453,-24 -24,-24 H 225.02148 V 123.96677 C 225.19447,88.598858 221.39612,84.974578 186.09961,84.974578 H 156.52148 V 70.019496 c 0,-13.254669 -10.74532,-24 -24,-24 z"
         style="display:inline;enable-background:new;opacity:0.1;fill:#000000;fill-opacity:1;stroke-width:2.00048;stroke-linecap:round;filter:url(#filter63)"
         id="path56-0" />
      <path
         d="m 340.002,62.000039 c -0.17967,0 -0.35004,0.01194 -0.50977,0.02539 -3.07286,0.258757 -5.49023,2.838307 -5.49023,5.974609 v 2 h -0.66211 c -5.02052,0 -8.08491,0.17729 -9.99805,1.664062 -0.95657,0.743387 -1.56188,1.812813 -1.9043,3.212894 -0.34241,1.40008 -0.44489,3.14683 -0.43164,5.375 v 4.74805 h 4 c 2.21503,0 4,1.78498 4,4 0,2.21501 -1.78497,4 -4,4 h -4 v 4.75195 c -0.0131,2.22586 0.0895,3.972016 0.43164,5.371096 0.34241,1.40008 0.94772,2.4695 1.9043,3.21289 1.91315,1.48677 4.97753,1.66406 9.99805,1.66406 h 2.66211 v -3.87305 c 0,-1.66133 1.00693,-3.07882 2.4414,-3.68555 l 0.0293,-0.0137 0.0273,-0.0156 c 0.36434,-0.21204 0.76306,-0.35269 1.18946,-0.39648 l 0.004,-0.002 h 0.002 0.008 l -0.006,0.002 c 0.0952,-0.0102 0.19948,-0.0156 0.30649,-0.0156 0.10923,0 0.21226,0.005 0.31055,0.0156 l -0.002,-0.002 c 0.0453,0.005 0.0923,0.0121 0.14258,0.0195 0.38372,0.0581 0.74374,0.19602 1.07422,0.39258 l 0.0273,0.0156 0.0293,0.0137 c 1.41961,0.61363 2.41602,2.02182 2.41602,3.67187 V 108 h 2.66406 c 5.01912,0 8.06996,-0.17694 9.97656,-1.66406 0.95331,-0.74356 1.55537,-1.81171 1.90039,-3.21094 0.34502,-1.39923 0.45703,-3.145376 0.45703,-5.373046 v -2.75195 h 2 c 3.13566,0 5.71493,-2.41829 5.97461,-5.49024 v -0.002 c 0.0134,-0.15936 0.0254,-0.32896 0.0254,-0.50781 0,-0.17885 -0.012,-0.34845 -0.0254,-0.50781 v -0.002 c -0.25952,-3.07176 -2.83887,-5.49014 -5.97453,-5.49014 h -2 v -2.75196 c 0,-2.22766 -0.11202,-3.97382 -0.45703,-5.37304 -0.34501,-1.399231 -0.94708,-2.467381 -1.90039,-3.210943 -1.90661,-1.487121 -4.95731,-1.664062 -9.97656,-1.664062 H 346.002 v -2 c 0,-3.136297 -2.41934,-5.715853 -5.49219,-5.974609 C 340.35007,62.01194 340.18165,62 340.002,62 Z"
         style="display:inline;enable-background:new;opacity:0.1;fill:#020202;stroke-linecap:round"
         id="path43" />
      <path
         d="m 340.00195,61.5 c -0.15753,0 -0.31262,0.01046 -0.46679,0.02344 -2.81863,0.23735 -5.03321,2.596566 -5.03321,5.476563 v 2.5 h -1.16211 c -10.01089,0 -11.88658,0.906255 -11.83398,9.748047 V 83.5 h 3.5 c 2.48526,0 4.5,2.014746 4.5,4.5 0,2.485254 -2.01474,4.499996 -4.5,4.5 h -3.5 v 4.251953 c -0.0527,8.841797 1.82309,9.748047 11.83398,9.748047 h 2.16211 v -3.37305 c 0,-1.86395 1.13295,-3.463348 2.74805,-4.146481 0.41767,-0.243089 0.88417,-0.411079 1.38867,-0.462891 0.001,-1.3e-4 0.005,1.3e-4 0.006,0 0.11767,-0.0126 0.23857,-0.01758 0.35938,-0.01758 0.1228,0 0.24374,0.005 0.36328,0.01758 0.0551,0.006 0.10976,0.0135 0.16406,0.02148 0.45406,0.06868 0.87466,0.231465 1.25391,0.457032 1.59789,0.690697 2.71679,2.279356 2.71679,4.130856 V 106.5 h 2.16407 C 356.67427,106.5 358.5,105.59385 358.5,96.751953 V 93.5 h 2.5 c 2.88002,0 5.23921,-2.214555 5.47656,-5.033203 C 366.48955,88.312623 366.5,88.157531 366.5,88 c 0,-0.157531 -0.0104,-0.312623 -0.0234,-0.466797 C 366.23921,84.714561 363.88001,82.5 361,82.5 h -2.5 V 79.248047 C 358.5,70.406172 356.6744,69.5 346.66602,69.5 h -1.16407 V 67 c 0,-2.879991 -2.21458,-5.239214 -5.0332,-5.476563 C 340.31458,61.510455 340.15948,61.5 340.00195,61.5 Z"
         style="display:inline;fill:#1463a5;fill-opacity:1;stroke-width:2.02235;stroke-linecap:round;enable-background:new"
         id="path20"
         inkscape:label="a48" />
      <path
         d="M 340.00195,61.5 V 88 H 366.5 c 0,-0.157531 -0.0104,-0.312623 -0.0234,-0.466797 C 366.23921,84.714564 363.88001,82.5 361,82.5 h -2.5 V 79.248047 C 358.5,70.406181 356.67439,69.5 346.66602,69.5 h -1.16407 V 67 c 0,-2.879988 -2.21458,-5.239214 -5.0332,-5.476563 C 340.31458,61.510456 340.15948,61.5 340.00195,61.5 Z"
         style="display:inline;enable-background:new;opacity:1;fill:#1874c3;stroke-width:3.03484;stroke-linecap:round;fill-opacity:1"
         id="path38"
         inkscape:label="b48" />
      <rect
         style="display:inline;enable-background:new;opacity:0.1;fill:#000000;fill-opacity:0.00047229;stroke:none;stroke-width:1.90219;stroke-linecap:round;stroke-dasharray:none;stroke-opacity:1"
         id="rect63"
         width="16"
         height="16"
         x="316"
         y="268"
         inkscape:export-filename="../UbuntuProjects/YaruX/apps/scalable/com.mattjakeman.ExtensionManager-symbolic.svg"
         inkscape:export-xdpi="96"
         inkscape:export-ydpi="96" />
      <path
         d="m 340.00195,88 h -10.49609 c 0,2.485252 -2.01474,4.499996 -4.5,4.5 h -3.5 v 4.251953 c -0.0527,8.841787 1.8231,9.748047 11.83398,9.748047 h 2.16211 v -3.37305 c 0,-1.86395 1.13295,-3.463349 2.74805,-4.146481 0.41767,-0.243089 0.88417,-0.411079 1.38867,-0.462891 0.001,-1.3e-4 0.005,1.3e-4 0.006,0 0.11703,-0.01253 0.23727,-0.01752 0.35742,-0.01758 z"
         style="display:inline;enable-background:new;opacity:1;fill:#1b85dc;stroke-width:3.99472;stroke-linecap:round;fill-opacity:1"
         id="path42"
         inkscape:label="c48" />
      <path
         d="m 340.00195,88 v 10.5 c 0,0 0.002,0 0.002,0 0.1228,0 0.24374,0.005 0.36328,0.01758 0.0551,0.006 0.10976,0.0135 0.16406,0.02148 0.45406,0.06868 0.87466,0.231465 1.25391,0.457032 1.59788,0.690696 2.71679,2.279356 2.71679,4.130856 V 106.5 h 2.16407 c 10.0081,0 11.83398,-0.90616 11.83398,-9.748047 V 93.5 h 2.5 c 2.88002,0 5.23921,-2.214558 5.47656,-5.033203 C 366.48956,88.312623 366.5,88.157531 366.5,88 Z"
         style="display:inline;enable-background:new;opacity:1;fill:#239de4;stroke-width:3.99472;stroke-linecap:round;fill-opacity:1"
         id="path41"
         inkscape:label="d48" />
      <path
         d="m 334.00025,134.00007 c -2.04235,1.3e-4 -3.7623,1.549 -3.97656,3.58008 -0.0147,0.13907 -0.0234,0.27932 -0.0234,0.41992 h -0.87305 c -3.24083,-7e-5 -5.24678,0.0964 -6.55078,1.10937 -0.65199,0.50651 -1.06405,1.24024 -1.29101,2.16797 -0.22697,0.92774 -0.29374,2.06555 -0.28516,3.50782 v 4.21484 h 2 c 0.0724,0 0.14131,0.002 0.20703,0.01 l 0.002,0.002 h 0.002 c 1.02175,0.10779 1.789,0.96094 1.78906,1.98828 -0.002,1.02593 -0.76866,1.87675 -1.78906,1.98437 l -0.004,0.002 h -0.002 c -0.0735,0.009 -0.14417,0.0129 -0.21094,0.0137 h -1.99409 v 4.2168 c -0.009,1.44112 0.0583,2.57654 0.28516,3.50389 0.22695,0.92789 0.63906,1.66319 1.29101,2.16992 1.30393,1.0135 3.30991,1.10931 6.55078,1.10938 h 2.87305 v -2 c 8e-5,-0.0731 0.004,-0.14169 0.0117,-0.20703 v -0.002 c 0.1078,-1.02206 0.96095,-1.79097 1.98828,-1.79102 1.02595,0.002 1.87869,0.7706 1.98633,1.79102 v 0.002 0.004 c 0.009,0.074 0.013,0.14298 0.0137,0.20899 v 1.99369 h 2.87305 c 3.24003,7e-5 5.24133,-0.096 6.54101,-1.10938 0.64985,-0.50667 1.0585,-1.23914 1.28711,-2.16601 0.22857,-0.92689 0.29882,-2.06411 0.29882,-3.50586 v -2.21875 h 0.004 0.006 c 0.13974,-0.002 0.27744,-0.0124 0.41601,-0.0293 h 0.002 c 2.02451,-0.21778 3.56874,-1.93366 3.57227,-3.9707 -1.3e-4,-2.04235 -1.54899,-3.76425 -3.58008,-3.97852 -0.13967,-0.0147 -0.2796,-0.0215 -0.4202,-0.0215 v -2.2168 c 0,-1.44175 -0.0702,-2.57883 -0.29883,-3.50586 -0.2286,-0.92701 -0.6373,-1.65909 -1.28711,-2.16601 -1.2996,-1.01385 -3.30094,-1.11126 -6.54101,-1.11133 h -0.87305 v -0.004 -0.004 c -0.002,-0.13976 -0.0124,-0.27939 -0.0293,-0.41797 -0.19826,-1.85153 -1.66647,-3.2424 -3.4707,-3.48047 V 134 l -0.0801,0.0801 c -0.0195,-0.002 -0.0371,-0.01 -0.0566,-0.0117 L 334.50029,134 h -0.49805 z"
         style="display:inline;opacity:0.1;fill:#020202;stroke-linecap:round;enable-background:new"
         id="path31" />
      <path
         d="m 334,133.5 c -1.79074,1.1e-4 -3.2926,1.35195 -3.48047,3.13281 -0.0129,0.12197 -0.0195,0.24453 -0.0195,0.36719 v 0.5 h -1.37305 c -6.45157,-1.3e-4 -7.66086,0.58312 -7.62695,6.28125 V 147.5 h 1.5 c 0.0876,0 0.17462,0.004 0.26172,0.0137 1.27205,0.13419 2.23821,1.20722 2.23828,2.48633 -0.002,1.27751 -0.96781,2.34841 -2.23828,2.48242 -0.087,0.0101 -0.17402,0.0166 -0.26172,0.0176 h -1.5 v 3.7168 c -0.034,5.69813 1.17538,6.28307 7.62695,6.2832 H 331.5 V 161 c 10e-5,-0.0876 0.004,-0.17462 0.0137,-0.26172 0.13418,-1.27205 1.20722,-2.23822 2.48633,-2.23828 1.27752,0.002 2.34841,0.96781 2.48242,2.23828 0.0101,0.0871 0.0167,0.17402 0.0176,0.26172 v 1.5 h 2.37305 c 6.44997,1.3e-4 7.62695,-0.58306 7.62695,-6.28125 V 153.5 h 0.5 c 0.12276,-0.002 0.24533,-0.0105 0.36719,-0.0254 1.77865,-0.18763 3.12971,-1.6861 3.13281,-3.47461 -1.1e-4,-1.79075 -1.35194,-3.2926 -3.13281,-3.48047 C 347.24519,146.50664 347.12266,146.5 347,146.5 h -0.5 v -2.7168 c 0,-5.69819 -1.17698,-6.28307 -7.62695,-6.2832 H 337.5 V 137 c -0.002,-0.12276 -0.0105,-0.24533 -0.0254,-0.36719 C 337.28699,134.85417 335.7885,133.5031 334,133.5 Z"
         style="display:inline;fill:#1463a5;stroke-width:2.06108;stroke-linecap:round;enable-background:new;fill-opacity:1"
         id="path7"
         inkscape:label="a32" />
      <path
         d="M 334,133.5 V 150 h 16.5 c -1.1e-4,-1.79075 -1.35194,-3.2926 -3.13281,-3.48047 C 347.24514,146.50663 347.12266,146.5 347,146.5 h -0.5 v -2.7168 c 0,-5.69818 -1.17699,-6.28307 -7.62695,-6.2832 H 337.5 V 137 c -0.002,-0.12276 -0.0105,-0.24533 -0.0254,-0.36719 C 337.287,134.85417 335.7885,133.5031 334,133.5 Z"
         style="opacity:1;fill:#1874c3;stroke-width:2;stroke-linecap:round;fill-opacity:1"
         id="path28" />
      <path
         d="m 334,150 h -8.5 c -0.002,1.27751 -0.96781,2.34841 -2.23828,2.48242 -0.087,0.0101 -0.17402,0.0166 -0.26172,0.0176 h -1.5 v 3.7168 c -0.034,5.69812 1.17539,6.28307 7.62695,6.2832 H 331.5 V 161 c 10e-5,-0.0876 0.004,-0.17462 0.0137,-0.26172 0.13418,-1.27205 1.20722,-2.23822 2.48633,-2.23828 z"
         style="display:inline;opacity:1;fill:#1b85dc;stroke-width:2.56988;stroke-linecap:round;enable-background:new;fill-opacity:1"
         id="path30" />
      <path
         d="m 334,150 v 8.5 c 1.27752,0.002 2.34841,0.96781 2.48242,2.23828 0.0101,0.0871 0.0167,0.17402 0.0176,0.26172 v 1.5 h 2.37305 c 6.44996,1.3e-4 7.62695,-0.58307 7.62695,-6.28125 V 153.5 h 0.5 c 0.12276,-0.002 0.24533,-0.0105 0.36719,-0.0254 1.77865,-0.18763 3.12971,-1.6861 3.13281,-3.47461 z"
         style="display:inline;opacity:1;fill:#239de4;stroke-width:2.56988;stroke-linecap:round;enable-background:new;fill-opacity:1"
         id="path29" />
      <path
         d="m 330,189.97023 c -1.62162,7.7e-4 -2.9575,1.30472 -2.99805,2.92578 -8.5e-4,0.018 -0.002,0.0404 -0.002,0.0742 v 1.00391 h -0.50195 -0.004 c -2.27576,0.0228 -3.6571,0.1354 -4.53711,0.9707 -0.44,0.41766 -0.6841,0.98809 -0.81055,1.66992 -0.12644,0.68185 -0.1506,1.49689 -0.14453,2.51368 v 1.35742 1.5 h 3 c 0.0269,0 0.0315,6.8e-4 0.0156,0 h 0.004 0.006 c 0.51205,0.0128 0.91751,0.40122 0.96875,0.89648 v 0.002 c 0.003,0.0466 0.006,0.0866 0.006,0.10156 0,0.0152 -0.003,0.0553 -0.006,0.10351 -0.0516,0.49478 -0.45671,0.88176 -0.96875,0.89453 h -0.0137 l -0.0137,0.002 h -2.99805 v 1.5 0.62109 0.74219 c -0.006,1.06495 0.0197,1.90632 0.16211,2.60742 0.14256,0.70163 0.42558,1.28573 0.91992,1.68945 0.9887,0.80746 2.50647,0.85743 5.09375,0.85743 H 327.5 329 v -3 c 0,-0.0269 6.9e-4,-0.0315 0,-0.0156 v -0.004 -0.006 c 0.0132,-0.52776 0.42361,-0.94255 0.94141,-0.97266 0.0237,-7.8e-4 0.0455,-0.002 0.0586,-0.002 0.0149,0 0.0549,0.003 0.10156,0.006 h 0.002 c 0.49476,0.0516 0.88174,0.45866 0.89453,0.9707 v 0.0137 l 0.002,0.0137 v 2.9961 h 1.5 0.32422 c 0.11106,0 0.20258,-0.002 0.29687,-0.002 h 0.002 c 2.44675,-0.009 3.89873,-0.086 4.83789,-0.90625 0.46958,-0.41012 0.73576,-0.98739 0.87304,-1.67968 0.13728,-0.6923 0.16602,-1.5223 0.16602,-2.56641 v -0.36328 -0.5 h 1.01172 0.0117 c 0.012,-5.8e-4 0.0334,-0.003 0.0508,-0.004 1.62019,-0.0405 2.92376,-1.37541 2.92578,-2.99609 -7.7e-4,-1.62161 -1.3047,-2.9575 -2.92578,-2.99805 -0.018,-8.5e-4 -0.0404,-0.002 -0.0742,-0.002 h -1 v -0.5 -0.36133 c 0,-1.01043 -0.0281,-1.81947 -0.1543,-2.49805 -0.1262,-0.67857 -0.36449,-1.2471 -0.79687,-1.66601 -0.86477,-0.83783 -2.22747,-0.9585 -4.4668,-0.98438 -0.009,-9e-5 -0.0341,-0.002 -0.082,-0.002 H 333 v -1.01563 -0.0117 c -5.9e-4,-0.0123 -0.003,-0.0329 -0.004,-0.0508 -0.0371,-1.48482 -1.21148,-2.58847 -2.64648,-2.7832 l -0.14258,-0.14258 -0.0293,0.0723 h -0.002 l -0.35156,0.85547 -0.17774,-0.0742 0.51563,-0.78516 0.0137,0.004 c -0.005,-3.2e-4 -0.007,-0.006 -0.0117,-0.006 l 0.043,-0.0664 z"
         style="display:inline;enable-background:new;opacity:0.1;stroke-linecap:round"
         id="path73" />
      <path
         d="m 338.5,199.48712 v 1.5 3.5 h 1.5 c 1.38071,0 2.5,-1.11929 2.5,-2.5 0,-1.38071 -1.11929,-2.5 -2.5,-2.5 z"
         style="opacity:1;fill:#686868;stroke-width:2;stroke-linecap:round"
         id="path4" />
      <path
         d="m 327.03516,236.5 c -1.20131,0 -2.22004,0.86552 -2.46289,2 h -0.16602 c -3.47596,1e-5 -3.83441,0.30992 -3.83398,3.32422 v 1.74609 c 0.14154,-0.045 0.28899,-0.0687 0.4375,-0.0703 0.31014,7.7e-4 0.61243,0.0977 0.86523,0.27734 0.38487,0.27178 0.61973,0.70857 0.63477,1.17774 v 0.0898 c -0.0163,0.47117 -0.25429,0.90919 -0.64258,1.17969 -0.25085,0.17745 -0.55016,0.27358 -0.85742,0.27539 -0.14851,-0.002 -0.29596,-0.0254 -0.4375,-0.0703 v 1.74609 c -0.017,3.01426 0.35802,3.32423 3.83398,3.32422 h 1.19922 c -0.045,-0.14155 -0.0687,-0.28899 -0.0703,-0.4375 0.002,-0.30881 0.0984,-0.60962 0.27734,-0.86133 0.27094,-0.38631 0.70791,-0.62273 1.17773,-0.63867 h 0.0899 c 0.4705,0.0154 0.90836,0.25182 1.17969,0.63867 0.17821,0.25194 0.27438,0.55273 0.27539,0.86133 -0.002,0.14851 -0.0254,0.29595 -0.0703,0.4375 h 1.20118 c 3.47595,-1e-5 3.83398,-0.30992 3.83398,-3.32422 v -0.72851 c 1.10311,-0.26702 1.9375,-1.26847 1.9375,-2.44727 0,-1.1788 -0.83439,-2.18025 -1.9375,-2.44727 v -0.72851 c -4.3e-4,-3.01429 -0.35804,-3.32423 -3.83398,-3.32422 H 329.5 c -0.24323,-1.13449 -1.26353,-2 -2.46484,-2 z"
         style="fill:#1463a5;stroke-linecap:round"
         id="path45" />
      <g
         id="path34-5"
         style="opacity:0.3" />
      <path
         d="m 327.03516,236.50781 v 8.43164 h 8.23437 c -0.0282,-1.15222 -0.85151,-2.12431 -1.93555,-2.38672 v -0.72851 C 333.33355,238.80993 332.97594,238.49999 329.5,238.5 h -0.16602 c -0.23189,-1.08161 -1.17083,-1.9165 -2.29882,-1.99219 z"
         style="opacity:1;fill:#1874c3;stroke-width:2;stroke-linecap:round;fill-opacity:1"
         id="path49" />
      <path
         d="m 327.03516,249.57422 v -4.63477 h -4.69336 c 2.2e-4,0.005 0.002,0.0103 0.002,0.0156 v 0.0898 c -0.0163,0.47117 -0.25429,0.90919 -0.64258,1.17969 -0.25085,0.17745 -0.55016,0.27358 -0.85742,0.27539 -0.14851,-0.002 -0.29596,-0.0254 -0.4375,-0.0703 v 1.74609 c -0.017,3.01426 0.35803,3.32423 3.83398,3.32422 h 1.19922 c -0.045,-0.14155 -0.0687,-0.28899 -0.0703,-0.4375 0.002,-0.30881 0.0984,-0.60962 0.27734,-0.86133 0.27094,-0.38631 0.70792,-0.62273 1.17774,-0.63867 h 0.0898 c 0.041,0.001 0.0807,0.007 0.1211,0.0117 z"
         style="display:inline;fill:#1b85dc;stroke-width:2.77366;stroke-linecap:round;enable-background:new;fill-opacity:1"
         id="path51" />
      <path
         d="m 335.26953,244.93945 h -8.23437 v 4.63477 c 0.42338,0.0487 0.8109,0.27381 1.05859,0.62695 0.17821,0.25194 0.27438,0.55273 0.27539,0.86133 -0.002,0.14851 -0.0254,0.29595 -0.0703,0.4375 H 329.5 c 3.47595,-1e-5 3.83398,-0.30992 3.83398,-3.32422 v -0.72851 c 1.10311,-0.26702 1.9375,-1.26847 1.9375,-2.44727 0,-0.0204 -0.001,-0.0403 -0.002,-0.0606 z"
         style="display:inline;fill:#239de4;stroke-width:2.77366;stroke-linecap:round;enable-background:new;fill-opacity:1"
         id="path50" />
      <path
         d="m 132.49413,44.039062 c -13.25467,0 -24,10.745331 -24,24 V 82.994144 H 78.916006 c -35.296499,0 -38.921875,3.62386 -38.921875,38.992186 v 29.50781 h 14.955078 c 13.254746,0 24,10.74527 24,24 -1e-5,13.25476 -10.745274,24 -24,24 H 39.994131 v 29.51172 c 0,35.3683 3.625376,38.99414 38.921875,38.99414 h 29.578124 v -14.95508 c 0,-13.25474 10.74527,-24 24,-24 13.25476,1e-5 24,10.74528 24,24 V 268 h 29.57813 c 35.29651,0 39.09486,-3.62625 38.92187,-38.99414 v -29.51172 h 14.95508 c 13.2547,0 24,-10.74529 24,-24 0,-13.2547 -10.7453,-24 -24,-24 H 224.99413 V 121.98633 C 225.16712,86.618424 221.36877,82.994144 186.07226,82.994144 H 156.49413 V 68.039062 c 0,-13.254669 -10.74532,-24 -24,-24 z"
         style="display:inline;fill:#1463a5;fill-opacity:1;stroke-width:2.00048;stroke-linecap:round;enable-background:new"
         id="path56" />
      <path
         d="m 132.91211,44.039062 h -0.41797 V 175.49414 h 131.48242 c 10e-6,-0.007 0.002,-0.0129 0.002,-0.0195 0,-13.25469 -10.74532,-24 -24,-24 H 225.02148 V 121.9668 C 225.19447,86.598927 221.39804,82.97461 186.10156,82.974609 H 156.52148 V 68.019531 c 0,-13.122848 -10.53673,-23.769692 -23.60937,-23.980469 z"
         style="opacity:1;fill:#1874c3;stroke-width:2;stroke-linecap:round;fill-opacity:1"
         id="path57" />
      <path
         d="m 132.49414,229.02734 v -53.5332 H 78.976562 c -0.01072,13.24563 -10.749952,23.98047 -23.998046,23.98047 H 40.021484 v 29.51172 c 0,35.36826 3.62542,38.99414 38.921875,38.99414 h 29.578121 v -14.95508 c 0,-13.24548 10.73069,-23.98307 23.97266,-23.99805 z"
         style="opacity:1;fill:#1b85dc;stroke-width:2.23245;stroke-linecap:round;fill-opacity:1"
         id="path59" />
      <path
         d="M 263.97656,175.49414 H 132.49414 v 53.5332 c 0.009,-1e-5 0.0181,-0.002 0.0273,-0.002 13.25475,1e-5 24,10.74529 24,24 v 14.95508 h 29.58008 c 35.29648,0 39.09291,-3.62629 38.91992,-38.99414 v -29.51172 h 14.95704 c 13.24807,0 23.98733,-10.73489 23.99804,-23.98047 z"
         style="opacity:1;fill:#239de4;stroke-width:2.23245;stroke-linecap:round;fill-opacity:1"
         id="path58" />
      <path
         d="m 322.44922,268 c -1.10454,0 -2,0.89545 -2,2 v 1 h -1.66797 C 316.25967,271 316,271.25845 316,273.78516 V 275.5 h 1 c 1.10455,0 2,0.89545 2,2 0,1.10455 -0.89545,2 -2,2 h -1 v 1.71484 c 0,2.52672 0.25967,2.78516 2.78125,2.78516 h 1.66797 v -1 c 0,-1.10455 0.89546,-2 2,-2 0.009,0 0.0169,0.002 0.0254,0.002 0.009,-1.4e-4 0.0169,-0.002 0.0254,-0.002 0.10988,0 0.21716,0.0127 0.32031,0.0352 0.92762,0.17367 1.62891,0.98682 1.62891,1.96484 v 1 h 1.76953 c 2.52158,0 2.79363,-0.25848 2.78125,-2.78516 V 279.5 h 1 c 1.05261,0 1.91337,-0.81329 1.99219,-1.8457 0.004,-0.051 0.008,-0.10235 0.008,-0.1543 0,-0.0519 -0.004,-0.10335 -0.008,-0.1543 C 331.91337,276.31329 331.05261,275.5 330,275.5 h -1 v -1.71484 C 329.0128,271.25848 328.74033,271 326.21875,271 h -1.76953 v -1 c 0,-0.97802 -0.70128,-1.79117 -1.62891,-1.96484 -0.11189,-0.021 -0.22808,-0.0317 -0.3457,-0.0332 -0.009,-1e-4 -0.0168,-0.002 -0.0254,-0.002 z"
         style="opacity:1;fill:#757575;stroke-width:2;stroke-linecap:round"
         id="path3" />
      <path
         d="m 330,189.4707 c -1.35589,6.4e-4 -2.46415,1.08207 -2.49805,2.4375 -9.1e-4,0.0208 -0.002,0.0417 -0.002,0.0625 v 1.50391 h -1 c -4.509,0.0452 -5.0221,0.62604 -4.99805,4.65039 v 1.36133 1 h 2.5 c 0.0124,0 0.0246,-5.4e-4 0.0371,0 0.76194,0.0191 1.3796,0.60486 1.45508,1.34765 0,0 0,0.002 0,0.002 0.003,0.05 0.008,0.0997 0.008,0.15039 0,0.0507 -0.005,0.10042 -0.008,0.15039 v 0.002 c -0.076,0.74224 -0.69356,1.32669 -1.45508,1.3457 -0.0125,0.001 -0.0247,0.001 -0.0371,0.002 h -2.5 v 1 0.62109 0.74219 c -0.0253,4.22033 0.5293,4.6543 5.67578,4.6543 h 0.32227 1 v -2.5 c 0,-0.0124 -5.4e-4,-0.0246 0,-0.0371 0.0196,-0.78403 0.63875,-1.41597 1.41211,-1.46094 0.001,-5e-5 0.003,4e-5 0.004,0 0.0279,-9.2e-4 0.0559,-0.002 0.084,-0.002 0.0507,0 0.10042,0.005 0.15039,0.008 h 0.002 c 0.74224,0.076 1.32669,0.69356 1.34571,1.45508 0.001,0.0125 0.001,0.0247 0.002,0.0371 v 2.5 h 1 0.32422 c 0.10469,0 0.19597,-0.002 0.29687,-0.002 4.85942,-0.0186 5.37891,-0.51779 5.37891,-4.65234 v -0.36328 -1 h 1.5 c 0.0208,-0.001 0.0417,-0.002 0.0625,-0.004 1.3547,-0.0339 2.43581,-1.14099 2.4375,-2.49609 -6.4e-4,-1.35588 -1.08205,-2.46415 -2.4375,-2.49805 -0.0208,-9.1e-4 -0.0417,-0.002 -0.0625,-0.002 h -1.5 v -1 -0.36133 c 0,-4.00093 -0.48954,-4.59719 -4.92383,-4.64844 -0.0266,-3e-4 -0.0493,-0.002 -0.0762,-0.002 h -1 v -1.50391 c -10e-4,-0.0208 -0.002,-0.0417 -0.004,-0.0625 -0.0339,-1.35467 -1.14097,-2.43581 -2.49609,-2.4375 z"
         style="display:inline;fill:#1463a5;stroke-width:2;stroke-linecap:round;enable-background:new;fill-opacity:1"
         id="path32" />
      <path
         d="m 330,189.4707 v 12.51367 h 12.5 c -0.002,-1.35498 -1.08271,-2.46221 -2.4375,-2.49609 -0.0208,-9.1e-4 -0.0417,-0.002 -0.0625,-0.002 h -1.5 v -1 -0.36133 c 0,-4.00093 -0.48954,-4.59719 -4.92383,-4.64844 -0.0266,-3e-4 -0.0493,-0.002 -0.0762,-0.002 h -1 v -1.50391 c -10e-4,-0.0208 -0.002,-0.0417 -0.004,-0.0625 -0.0339,-1.35467 -1.14097,-2.43581 -2.49609,-2.4375 z"
         style="fill:#1874c3;stroke-width:2;stroke-linecap:round;fill-opacity:1"
         id="path33" />
      <path
         d="m 330,201.98437 h -4.49805 c 0,0 0,0.002 0,0.002 0,0.0507 -0.005,0.10042 -0.008,0.15039 v 0.002 c -0.076,0.74224 -0.69356,1.3267 -1.45508,1.3457 -0.0125,10e-4 -0.0247,9.6e-4 -0.0371,0.002 h -2.5 v 1 0.62109 0.74219 c -0.0253,4.22033 0.52931,4.6543 5.67578,4.6543 h 0.32227 1 v -2.5 c 0,-0.0124 -5.4e-4,-0.0246 0,-0.0371 0.0196,-0.78403 0.63875,-1.41597 1.41211,-1.46094 0.001,-5e-5 0.003,4e-5 0.004,0 0.0279,-9.2e-4 0.0559,-0.002 0.084,-0.002 z"
         style="fill:#1b85dc;stroke-width:7.35658;stroke-linecap:round;fill-opacity:1"
         id="path35" />
      <path
         d="m 330,201.98437 v 4.51954 c 0.0507,0 0.10042,0.005 0.15039,0.008 h 0.002 c 0.74224,0.076 1.32669,0.69356 1.34571,1.45508 0.001,0.0125 9.5e-4,0.0247 0.002,0.0371 v 2.5 h 1 0.32422 c 0.10469,0 0.19597,-0.002 0.29687,-0.002 4.85942,-0.0186 5.37891,-0.51779 5.37891,-4.65234 v -0.36328 -1 h 1.5 c 0.0208,-0.001 0.0417,-0.002 0.0625,-0.004 1.3547,-0.0339 2.43581,-1.14099 2.4375,-2.49609 0,0 0,-0.002 0,-0.002 z"
         style="fill:#239de4;stroke-width:7.35658;stroke-linecap:round;fill-opacity:1"
         id="path34" />
    </g>
    <g
       inkscape:groupmode="layer"
       id="layer6"
       inkscape:label="Pictograms"
       style="display:inline" />
    <g
       inkscape:groupmode="layer"
       id="layer4"
       inkscape:label="Highlights"
       style="display:inline;opacity:1">
      <path
         d="m 340.00197,61.5 c -0.15753,0 -0.31262,0.01046 -0.46679,0.02344 -2.81863,0.23735 -5.03321,2.596566 -5.03321,5.476563 v 2.5 h -1.16211 c -10.01089,0 -11.88658,0.906255 -11.83398,9.748047 V 83.5 h 3.5 c 2.48526,0 4.5,2.014746 4.5,4.5 0,2.48525 -2.01474,4.5 -4.5,4.5 h -3.5 v 4.25195 c -0.0527,8.8418 1.82309,9.74805 11.83398,9.74805 h 2.16211 v -3.37305 c 0,-1.86395 1.13295,-3.46335 2.74805,-4.14648 0.41767,-0.24309 0.88417,-0.41108 1.38867,-0.46289 10e-4,-1.3e-4 0.005,1.3e-4 0.006,0 0.11767,-0.0126 0.23857,-0.0176 0.35938,-0.0176 0.1228,0 0.24374,0.005 0.36328,0.0176 0.0551,0.006 0.10976,0.0135 0.16406,0.0215 0.45406,0.0687 0.87466,0.23146 1.25391,0.45703 1.59789,0.6907 2.71679,2.27936 2.71679,4.13086 V 106.5 h 2.16407 c 10.00811,0 11.83384,-0.90615 11.83384,-9.74805 V 93.5 h 2.5 c 2.88002,0 5.23921,-2.21456 5.47656,-5.033203 0.013,-0.154174 0.0234,-0.309266 0.0234,-0.466797 0,-0.157531 -0.0104,-0.312623 -0.0234,-0.466797 C 366.23923,84.714561 363.88003,82.5 361.00002,82.5 h -2.5 v -3.251953 c 0,-8.841875 -1.8256,-9.748047 -11.83398,-9.748047 h -1.16407 V 67 c 0,-2.879991 -2.21458,-5.239214 -5.0332,-5.476563 C 340.3146,61.510455 340.1595,61.5 340.00197,61.5 Z"
         style="display:inline;enable-background:new;fill:none;fill-opacity:1;stroke-width:1;stroke-linecap:round;stroke-dasharray:none;stroke:#020202;stroke-opacity:1;opacity:0.4"
         id="path20-9"
         inkscape:label="border48" />
      <path
         d="m 340.00195,62 c -0.13539,0 -0.27717,0.009 -0.42578,0.02148 -2.56438,0.215941 -4.57422,2.354847 -4.57422,4.978516 v 3 h -1.66211 c -4.99033,0 -7.87025,0.276381 -9.38476,1.453125 -0.75714,0.588396 -1.2376,1.403569 -1.54492,2.660156 -0.3073,1.256588 -0.4173,2.938148 -0.4043,5.13086 v 0.002 V 83 h 3 c 2.75547,0 5,2.244531 5,5 0,2.755466 -2.24453,5 -5,5 h -3 v 3.753906 0.002 c -0.0131,2.192713 0.097,3.874271 0.4043,5.130861 0.30731,1.25658 0.78778,2.07176 1.54492,2.66016 1.51427,1.17678 4.39443,1.45312 9.38476,1.45312 h 1.66211 v -2.87305 c 0,-2.05648 1.24952,-3.824137 3.03125,-4.589841 0.003,-0.0014 0.005,-0.0025 0.008,-0.0039 -0.01,0.0056 -0.0235,0.0041 -0.0332,0.0098 l 0.006,-0.0039 0.01,-0.0039 0.0332,-0.01563 c -0.007,0.0028 -0.009,0.01089 -0.0156,0.01367 0.45921,-0.261084 0.97566,-0.452573 1.53906,-0.511719 h 0.002 c 0.001,-4.7e-5 0.003,6.6e-5 0.004,0 h 0.002 v -0.002 h 0.004 c 0.0179,-0.002 0.0349,-3.53e-4 0.0527,-0.002 C 339.76607,98.006598 339.88652,98 340.00391,98 c 0.13637,0 0.27532,0.0047 0.41601,0.01953 l 0.002,0.002 c 0.0643,0.007 0.12405,0.01494 0.18165,0.02344 h 0.002 c 0.50928,0.07706 0.97583,0.262369 1.39453,0.505859 -0.007,-0.003 -0.0106,-0.01066 -0.0176,-0.01367 l 0.0254,0.01172 0.01,0.0039 0.008,0.0059 0.0156,0.0078 c -0.0116,-0.0069 -0.0271,-0.0075 -0.0391,-0.01367 1.76437,0.772842 3,2.529816 3,4.574216 V 106 h 1.66407 c 4.98894,0 7.855,-0.27671 9.36328,-1.45312 0.75412,-0.58822 1.23291,-1.40467 1.54297,-2.66211 C 357.88231,100.62731 358,98.945213 358,96.751953 V 93 h 3 c 2.62369,0 4.76259,-2.009868 4.97852,-4.574219 v -0.002 C 365.99102,88.275383 366,88.135525 366,88 c 0,-0.135525 -0.009,-0.27543 -0.0215,-0.423828 v -0.002 C 365.76257,85.009824 363.62368,83 361,83 h -3 v -3.751953 c 0,-2.193255 -0.11769,-3.875359 -0.42773,-5.132813 -0.31006,-1.257448 -0.78885,-2.073898 -1.54297,-2.662109 C 354.52102,70.276704 351.65509,70 346.66602,70 h -1.66407 v -3 c 0,-2.623662 -2.00984,-4.762576 -4.57422,-4.978516 C 340.27914,62.009004 340.13736,62 340.00195,62 Z m 0,1 c 0.0911,0 0.20612,0.0062 0.3418,0.01758 2.05771,0.173276 3.6582,1.869454 3.6582,3.982422 v 4 h 2.66407 c 4.95209,0 7.6642,0.396812 8.74804,1.242187 0.56214,0.43846 0.91064,0.990473 1.1875,2.113282 C 356.87607,75.468765 357,77.090564 357,79.248047 V 84 h 4 c 2.11233,0 3.80823,1.599438 3.98242,3.65625 v 0.002 0.002 C 364.99388,87.795927 365,87.9086 365,88 c 0,0.09125 -0.006,0.203737 -0.0176,0.339844 v 0.0039 C 364.80827,90.400513 363.11234,92 361,92 h -4 v 4.751953 c 0,2.157488 -0.12393,3.779277 -0.39844,4.892577 -0.27686,1.12281 -0.62535,1.67481 -1.1875,2.11328 C 354.33025,104.60317 351.61798,105 346.66602,105 h -0.66407 v -1.87305 c 0,-2.43232 -1.47172,-4.526651 -3.56836,-5.462888 -0.43966,-0.248589 -0.94828,-0.434312 -1.49804,-0.542968 l -0.0586,-0.05859 -0.35351,-0.03711 C 340.33658,97.005744 340.16321,97 340.00391,97 c -0.14745,0 -0.28948,0.0075 -0.42774,0.01953 h -0.0312 -0.95703 v 0.300781 c -0.33134,0.107033 -0.69405,0.16538 -0.98047,0.324219 -2.11863,0.927909 -3.60547,3.035429 -3.60547,5.482419 V 105 h -0.66211 c -4.95341,0 -7.68241,-0.39584 -8.77148,-1.24219 -0.56565,-0.43958 -0.91362,-0.98949 -1.1875,-2.10937 -0.2715,-1.11013 -0.38785,-2.730516 -0.375,-4.886721 v -0.002 -0.0059 V 94 h 2 c 3.29851,0 6,-2.701494 6,-6 0,-3.298508 -2.70149,-6 -6,-6 h -2 v -2.753906 -0.0059 -0.002 c -0.0128,-2.156235 0.10352,-3.776606 0.375,-4.886719 0.27389,-1.119898 0.62186,-1.669797 1.1875,-2.109375 C 325.65769,71.395856 328.38643,71 333.33984,71 h 2.66211 v -4 c 0,-2.112978 1.60047,-3.809145 3.65821,-3.982422 C 339.79561,63.006174 339.91074,63 340.00195,63 Z"
         style="fill:url(#linearGradient30);stroke-linecap:round;opacity:0.4"
         id="path27" />
      <path
         d="m 334.0003,133.5 c -1.79074,1.1e-4 -3.2926,1.35195 -3.48047,3.13281 -0.0129,0.12197 -0.0195,0.24453 -0.0195,0.36719 v 0.5 h -1.37305 c -6.45157,-1.3e-4 -7.66086,0.58312 -7.62695,6.28125 V 147.5 h 1.5 c 0.0876,0 0.17462,0.004 0.26172,0.0137 1.27205,0.13419 2.23821,1.20722 2.23828,2.48633 -0.002,1.27751 -0.96781,2.34841 -2.23828,2.48242 -0.087,0.0101 -0.17402,0.0166 -0.26172,0.0176 h -1.5 v 3.7168 c -0.034,5.69813 1.17538,6.28307 7.62695,6.2832 h 2.37302 V 161 c 1e-4,-0.0876 0.004,-0.17462 0.0137,-0.26172 0.13418,-1.27205 1.20722,-2.23822 2.48633,-2.23828 1.27752,0.002 2.34841,0.96781 2.48242,2.23828 0.0101,0.0871 0.0167,0.17402 0.0176,0.26172 v 1.5 h 2.37305 c 6.44997,1.3e-4 7.62695,-0.58306 7.62695,-6.28125 V 153.5 h 0.5 c 0.12276,-0.002 0.24533,-0.0105 0.36719,-0.0254 1.77865,-0.18763 3.12971,-1.6861 3.13281,-3.47461 -1.1e-4,-1.79075 -1.35194,-3.2926 -3.13281,-3.48047 -0.12205,-0.0129 -0.24458,-0.0195 -0.36724,-0.0195 h -0.5 v -2.7168 c 0,-5.69819 -1.17698,-6.28307 -7.62695,-6.2832 h -1.37305 v -0.5 c -0.002,-0.12276 -0.0105,-0.24533 -0.0254,-0.36719 -0.18761,-1.77864 -1.6861,-3.12971 -3.4746,-3.13281 z"
         style="display:inline;enable-background:new;fill:none;stroke-width:1;stroke-linecap:round;stroke:#020202;stroke-opacity:1;stroke-dasharray:none;opacity:0.4"
         id="path7-9"
         inkscape:label="border32" />
      <path
         d="m 334,134 c -1.53912,9e-5 -2.82095,1.15492 -2.98242,2.68555 C 331.00598,136.79042 331,136.89528 331,137 v 1 h -1.87305 c -3.2107,-6e-5 -5.03243,0.19533 -5.9375,0.89844 -0.45253,0.35155 -0.74174,0.83298 -0.93359,1.61718 -0.19186,0.78422 -0.26386,1.85494 -0.25586,3.26172 v 0.002 V 147 h 1 c 0.10282,0 0.20988,0.006 0.31836,0.0176 1.52006,0.16272 2.68156,1.4531 2.68164,2.98242 -0.002,1.5269 -1.16244,2.81517 -2.67969,2.97852 h -0.002 c -0.1,0.0115 -0.20454,0.0205 -0.3125,0.0215 h -0.002 H 322 v 3.21875 0.002 c -0.008,1.4068 0.064,2.47929 0.25586,3.26367 0.19185,0.7844 0.48102,1.26347 0.93359,1.61524 0.90515,0.70354 2.72684,0.90033 5.9375,0.90039 H 331 v -1 c 10e-5,-0.10143 0.006,-0.20631 0.0176,-0.31445 C 331.17816,159.16321 332.46912,158.00007 334,158 h 0.002 c 1.52753,0.002 2.81407,1.1634 2.97657,2.68164 0.0115,0.10015 0.0205,0.20311 0.0215,0.3125 v 0.004 V 162 h 1.87305 c 3.2099,6e-5 5.02449,-0.1957 5.92578,-0.89844 0.45064,-0.35137 0.738,-0.83211 0.93164,-1.61719 C 345.9241,158.69931 346,157.62608 346,156.21875 V 153 h 0.99219 c 0.10511,-0.002 0.20994,-0.009 0.31445,-0.0215 h 0.004 l 0.004,-0.002 C 348.84317,152.8153 349.997,151.53719 350,150 c -9e-5,-1.53913 -1.1549,-2.82095 -2.68555,-2.98242 C 347.20946,147.00598 347.10472,147 347,147 h -1 v -3.2168 c 0,-1.40733 -0.0759,-2.48037 -0.26953,-3.26562 -0.19364,-0.78526 -0.48096,-1.26756 -0.93164,-1.61914 -0.90137,-0.70317 -2.71592,-0.89838 -5.92578,-0.89844 H 337 v -0.99219 c -0.002,-0.10511 -0.009,-0.20994 -0.0215,-0.31445 v -0.004 -0.004 C 336.81727,135.15685 335.53718,134.003 334,134 Z m -0.002,1 H 334 c 1.03599,0.003 1.87242,0.75932 1.98242,1.78906 l 0.002,0.002 0.002,0.0234 c 0.008,0.0681 0.0125,0.13751 0.0137,0.20899 V 139 h 2.87305 c 3.16932,6e-5 4.85158,0.32946 5.31054,0.6875 0.2635,0.20556 0.4148,0.4159 0.57618,1.07031 0.15747,0.63861 0.24023,1.65401 0.24023,3.02539 V 148 h 2 c 0.0665,0 0.13483,0.004 0.20508,0.0117 h 0.002 0.002 c 1.03308,0.10898 1.79,0.94828 1.79102,1.98633 -0.002,1.03471 -0.75531,1.86745 -1.7832,1.98047 h 0.0293 l -0.0371,0.004 -0.0234,0.004 c -0.0102,10e-4 -0.0211,8.2e-4 -0.0312,0.002 l -0.125,0.0137 0.0117,-0.006 c -0.0217,10e-4 -0.0424,0.004 -0.0645,0.004 H 345 v 4.21875 c 0,1.37137 -0.0828,2.38706 -0.24023,3.02539 -0.16129,0.6539 -0.31177,0.8622 -0.57618,1.06836 -0.45903,0.35791 -2.14131,0.68756 -5.31054,0.6875 H 338 v -0.002 -0.008 -0.006 c -10e-4,-0.15552 -0.014,-0.29104 -0.0273,-0.4082 -0.2162,-2.01994 -1.93542,-3.57299 -3.96875,-3.57617 h -0.002 H 334 c -2.03738,9e-5 -3.76291,1.55455 -3.97656,3.58008 -0.0158,0.14388 -0.0233,0.28233 -0.0234,0.41797 V 161 h -0.87305 c -3.1698,-6e-5 -4.86102,-0.32943 -5.32422,-0.68945 -0.26819,-0.20846 -0.41709,-0.41404 -0.57617,-1.06446 -0.15566,-0.63645 -0.23473,-1.65006 -0.22656,-3.01953 v -0.002 -0.006 V 154 h 0.004 0.006 0.006 c 0.12369,-0.001 0.22732,-0.0114 0.32813,-0.0215 h 0.0312 l 0.0449,-0.006 h 0.008 c 2.01967,-0.21744 3.56909,-1.93824 3.57227,-3.97071 V 150 c -1.1e-4,-2.03561 -1.55338,-3.76003 -3.57617,-3.97656 C 323.27817,146.00751 323.1366,146 323,146 v -2.2207 -0.004 -0.004 c -0.008,-1.36977 0.0709,-2.38135 0.22656,-3.01757 0.15918,-0.65064 0.30992,-0.85957 0.57617,-1.06641 0.46257,-0.35935 2.1541,-0.68756 5.32422,-0.6875 H 332 v -2 c 0,-0.0665 0.004,-0.13516 0.0117,-0.20508 v -0.002 -0.002 c 0.0968,-0.91792 0.81044,-1.53251 1.6875,-1.67774 l 0.0508,0.0508 0.11133,-0.11133 c 0.0519,-0.004 0.0837,-0.0527 0.13672,-0.0527 z"
         style="fill:url(#linearGradient11);stroke-linecap:round;opacity:0.3"
         id="path10" />
      <path
         d="m 327.0305,236.50002 c -1.20131,0 -2.22004,0.86552 -2.46289,2 h -0.16602 c -3.47596,1e-5 -3.83441,0.30992 -3.83398,3.32422 v 1.74609 c 0.14154,-0.045 0.28899,-0.0687 0.4375,-0.0703 0.31014,7.7e-4 0.61243,0.0977 0.86523,0.27734 0.38487,0.27178 0.61973,0.70857 0.63477,1.17774 v 0.0898 c -0.0163,0.47117 -0.25429,0.90919 -0.64258,1.17969 -0.25085,0.17745 -0.55016,0.27358 -0.85742,0.27539 -0.14851,-0.002 -0.29596,-0.0254 -0.4375,-0.0703 v 1.74609 c -0.017,3.01426 0.35802,3.32423 3.83398,3.32422 h 1.19922 c -0.045,-0.14155 -0.0687,-0.28899 -0.0703,-0.4375 0.002,-0.30881 0.0984,-0.60962 0.27734,-0.86133 0.27094,-0.38631 0.70791,-0.62273 1.17773,-0.63867 h 0.0899 c 0.4705,0.0154 0.90836,0.25182 1.17969,0.63867 0.17821,0.25194 0.27438,0.55273 0.27539,0.86133 -0.002,0.14851 -0.0254,0.29595 -0.0703,0.4375 h 1.20118 c 3.47595,-1e-5 3.83398,-0.30992 3.83398,-3.32422 v -0.72851 c 1.10311,-0.26702 1.9375,-1.26847 1.9375,-2.44727 0,-1.1788 -0.83439,-2.18025 -1.9375,-2.44727 v -0.72851 c -4.3e-4,-3.01429 -0.35804,-3.32423 -3.83398,-3.32422 h -0.1661 c -0.24323,-1.13449 -1.26353,-2 -2.46484,-2 z"
         style="display:inline;enable-background:new;opacity:0.4;fill:none;stroke:#000000;stroke-linecap:round;stroke-opacity:1"
         id="path45-9"
         inkscape:label="border16" />
      <path
         d="m 327.03488,236.99978 c -0.96115,0 -1.77879,0.69996 -1.97266,1.60547 l -0.0859,0.39453 H 324.406 c -1.7231,0 -2.57502,0.13554 -2.89257,0.41016 -0.15864,0.13751 -0.26425,0.32921 -0.33985,0.71875 -0.0756,0.38953 -0.10167,0.95165 -0.10156,1.69531 v 1.19531 c 0.38999,0.0137 0.77283,0.12341 1.0918,0.34961 0.51277,0.3621 0.8256,0.94447 0.8457,1.57031 v 0.008 0.10546 0.01 c -0.0217,0.6276 -0.33748,1.20975 -0.85352,1.57031 l 0.0684,-0.0488 -0.23047,0.23047 h -0.0976 l 0.25781,-0.17968 c 0,0 0,-0.002 0,-0.002 -0.31689,0.22372 -0.69527,0.33316 -1.08203,0.34766 v 1.19726 c -0.004,0.74315 0.019,1.30659 0.0937,1.69532 0.0747,0.38873 0.18032,0.57906 0.33984,0.71679 0.31904,0.27547 1.17729,0.41016 2.90039,0.41016 h 0.64844 c 0.0147,-0.388 0.12569,-0.76757 0.35156,-1.08594 0.36107,-0.51383 0.9422,-0.83036 1.56836,-0.85156 h 0.008 0.10742 0.008 c 0.62699,0.0205 1.20869,0.33696 1.57031,0.85156 0.22437,0.31783 0.33376,0.69804 0.34766,1.08594 h 0.65039 c 1.72311,0 2.57727,-0.13504 2.89453,-0.41016 0.15862,-0.13751 0.26425,-0.32919 0.33984,-0.71875 0.0756,-0.38955 0.0996,-0.95163 0.0996,-1.69531 v -1.12109 l 0.38282,-0.0937 c 0.8813,-0.21333 1.55468,-1.01808 1.55468,-1.96094 0,-0.94286 -0.67338,-1.74761 -1.55468,-1.96094 l -0.38282,-0.0937 v -1.12109 c -1e-4,-0.74369 -0.026,-1.30573 -0.10156,-1.69531 -0.0756,-0.38958 -0.18124,-0.58125 -0.33984,-0.71875 -0.3176,-0.27552 -1.16987,-0.41066 -2.89298,-0.41066 h -0.57031 l -0.084,-0.39453 c -0.19406,-0.90522 -1.0154,-1.60547 -1.97655,-1.60547 z m 0,1 c 0.47545,0 0.90305,0.37134 0.99805,0.81445 l 0.2539,1.18555 h 1.37891 c 0.83541,0 1.44473,0.0357 1.83008,0.0918 0.19267,0.0281 0.32626,0.0717 0.39453,0.0957 -0.007,-0.0437 -0.001,-0.0343 0.0137,-0.0215 0.0566,0.0491 0.0515,0.0445 -0.0137,0.0215 0.004,0.0236 0.006,0.035 0.0254,0.13281 0.0495,0.25488 0.0839,0.78333 0.084,1.50391 v 1.90625 l 1.14649,0.2793 0.002,0.002 c 0.43559,0.10544 0.78906,0.52155 0.78906,0.98828 0,0.46673 -0.35347,0.88284 -0.78906,0.98828 l -0.002,0.002 -1.14649,0.2793 v 1.90625 c 0,0.72217 -0.0332,1.25211 -0.082,1.50391 -0.0187,0.0962 -0.0194,0.10672 -0.0234,0.13086 0.059,-0.0208 0.0666,-0.0241 0.0117,0.0234 -0.015,0.013 -0.0194,0.0224 -0.0117,-0.0234 -0.0655,0.0231 -0.19542,0.0681 -0.39844,0.0976 -0.37893,0.0551 -0.98469,0.0885 -1.79688,0.0899 -0.0827,-0.22092 -0.0718,-0.45747 -0.21484,-0.66016 -0.54091,-0.76821 -1.41176,-1.24457 -2.35352,-1.27539 h -0.0176 -0.0234 -0.10742 -0.0254 -0.0176 c -0.94168,0.0319 -1.81137,0.5086 -2.35157,1.27734 -0.1426,0.20174 -0.1337,0.43793 -0.21679,0.65821 -0.81101,-0.001 -1.41878,-0.0348 -1.79883,-0.0899 -0.20352,-0.0295 -0.33407,-0.0741 -0.40039,-0.0976 0.006,0.0432 -4.6e-4,0.0329 -0.0137,0.0215 -0.0547,-0.0472 -0.0463,-0.0428 0.0137,-0.0215 -0.003,-0.0229 -0.005,-0.0312 -0.0234,-0.12696 -0.0481,-0.25055 -0.0802,-0.78051 -0.0762,-1.5 v -0.004 -0.51563 c 0.0326,-0.0122 0.0653,-0.0179 0.0977,-0.0312 h 0.30078 l 0.25781,-0.17969 c 10e-4,-8.1e-4 7.2e-4,-0.003 0.002,-0.004 0.7712,-0.5405 1.2468,-1.41193 1.2793,-2.35156 v -0.0176 -0.0274 -0.10546 -0.0234 -0.0176 c -0.0301,-0.93867 -0.50062,-1.81053 -1.26953,-2.35352 -0.20545,-0.14547 -0.444,-0.13553 -0.66797,-0.21875 v -0.50976 c -1.1e-4,-0.72018 0.0325,-1.25061 0.082,-1.50586 0.0186,-0.0957 0.0191,-0.10494 0.0234,-0.12891 -0.0581,0.0205 -0.064,0.0234 -0.01,-0.0234 0.015,-0.0131 0.0181,-0.0224 0.01,0.0234 0.0647,-0.0229 0.19523,-0.0681 0.39844,-0.0976 0.38547,-0.0561 0.99467,-0.0918 1.83007,-0.0918 h 1.37696 l 0.25586,-1.18359 0.002,-0.002 c 0.0954,-0.44553 0.51834,-0.81436 0.99399,-0.81436 z"
         style="display:inline;enable-background:new;stroke-linecap:round;fill:url(#linearGradient49);opacity:0.3"
         id="path48"
         inkscape:label="high48" />
      <path
         d="m 132.49413,44.039062 c -13.25455,0 -24,10.74545 -24,24 v 2 c 0,-13.25455 10.74545,-24 24,-24 13.25456,0 24,10.74545 24,24 v -2 c 0,-13.25455 -10.74544,-24 -24,-24 z M 78.916006,82.994141 c -35.296252,0 -38.921875,3.624106 -38.921875,38.992189 v 2 c 0,-35.368084 3.625618,-38.992189 38.921875,-38.992189 h 29.578124 v -2 z m 77.578124,0 v 2 h 29.57813 c 35.29619,0 39.09486,3.624605 38.92187,38.992189 v -2 c 0.17299,-35.367583 -3.62568,-38.992189 -38.92187,-38.992189 z m 68.5,68.499999 v 2 h 14.95508 c 12.91692,0 23.42083,10.2129 23.94922,23 0.0138,-0.33431 0.0508,-0.66229 0.0508,-1 0,-13.25463 -10.74537,-24 -24,-24 z m -146.095703,25 c -0.528393,12.78718 -11.032242,23 -23.949218,23 H 39.994131 v 2 h 14.955078 c 13.254683,0 23.99999,-10.74528 24,-24 0,-0.33771 -0.03697,-0.66568 -0.05078,-1 z"
         style="display:inline;fill:#ffffff;fill-opacity:1;stroke-width:2.00048;stroke-linecap:round;enable-background:new;opacity:0.3"
         id="path61" />
      <path
         d="m 40.021484,120.54688 c -0.0018,0.52335 -0.02734,0.90151 -0.02734,1.43945 v 29.50781 h 14.955078 c 13.006019,0 23.570134,10.3529 23.96289,23.26367 0.02265,-0.42735 0.06445,-0.85021 0.06445,-1.2832 0,-13.25466 -10.74532,-24 -24,-24 H 40.021484 Z m 223.890626,54.2207 c -0.67548,12.64998 -11.11523,22.70703 -23.93359,22.70703 h -14.95704 v 2.01953 h 14.92774 c 13.25466,0 24,-10.74533 24,-24 0,-0.24537 -0.0298,-0.48296 -0.0371,-0.72656 z M 39.994141,199.49414 v 29.51172 c 0,35.36805 3.625623,38.99414 38.921875,38.99414 h 29.578124 v -2.01953 H 78.943359 c -35.296252,0 -38.921875,-3.62609 -38.921875,-38.99414 v -27.49219 z m 92.527339,27.53125 c -13.25463,0 -24,10.74535 -24,24 V 252.5 c 0.29266,-13.00035 10.90204,-23.45508 23.97266,-23.45508 13.25467,1e-5 24,10.74537 24,24 V 268 h 29.57813 c 31.63741,0 37.92732,-3.10995 38.77539,-29.18359 -1.0937,24.38764 -7.86187,27.16406 -38.7461,27.16406 h -29.58008 v -14.95508 c 0,-13.25463 -10.74533,-23.99999 -24,-24 z"
         style="display:inline;enable-background:new;fill:#000000;stroke-width:2.00048;stroke-linecap:round;fill-opacity:1;opacity:0.2"
         id="path62" />
      <path
         d="m 330,189.4707 c -1.35589,6.4e-4 -2.46415,1.08207 -2.49805,2.4375 -9.1e-4,0.0208 -0.002,0.0417 -0.002,0.0625 v 1.50391 h -1 c -4.509,0.0452 -5.0221,0.62604 -4.99805,4.65039 v 1.36133 1 h 2.5 c 0.0124,0 0.0246,-5.4e-4 0.0371,0 0.76194,0.0191 1.3796,0.60486 1.45508,1.34765 0,0 0,0.002 0,0.002 0.003,0.05 0.008,0.0997 0.008,0.15039 0,0.0507 -0.005,0.10042 -0.008,0.15039 v 0.002 c -0.076,0.74224 -0.69356,1.32669 -1.45508,1.3457 -0.0125,10e-4 -0.0247,10e-4 -0.0371,0.002 h -2.5 v 1 0.62109 0.74219 c -0.0253,4.22033 0.5293,4.6543 5.67578,4.6543 h 0.32227 1 v -2.5 c 0,-0.0124 -5.4e-4,-0.0246 0,-0.0371 0.0196,-0.78403 0.63875,-1.41597 1.41211,-1.46094 10e-4,-5e-5 0.003,4e-5 0.004,0 0.0279,-9.2e-4 0.0559,-0.002 0.084,-0.002 0.0507,0 0.10042,0.005 0.15039,0.008 h 0.002 c 0.74224,0.076 1.32669,0.69356 1.34571,1.45508 0.001,0.0125 0.001,0.0247 0.002,0.0371 v 2.5 h 1 0.32422 c 0.10469,0 0.19597,-0.002 0.29687,-0.002 4.85942,-0.0186 5.37891,-0.51779 5.37891,-4.65234 v -0.36328 -1 h 1.5 c 0.0208,-0.001 0.0417,-0.002 0.0625,-0.004 1.3547,-0.0339 2.43581,-1.14099 2.4375,-2.49609 -6.4e-4,-1.35588 -1.08205,-2.46415 -2.4375,-2.49805 -0.0208,-9.1e-4 -0.0417,-0.002 -0.0625,-0.002 h -1.5 v -1 -0.36133 c 0,-4.00093 -0.48954,-4.59719 -4.92383,-4.64844 -0.0266,-3e-4 -0.0493,-0.002 -0.0762,-0.002 h -1 v -1.50391 c -0.001,-0.0208 -0.002,-0.0417 -0.004,-0.0625 -0.0339,-1.35467 -1.14097,-2.43581 -2.49609,-2.4375 z"
         style="display:inline;enable-background:new;fill:none;fill-opacity:1;stroke-width:1;stroke-linecap:round;stroke:#000000;stroke-opacity:1;stroke-dasharray:none;opacity:0.4"
         id="path32-2" />
      <path
         d="m 329.99805,189.9707 c -1.08926,0.002 -1.97085,0.86011 -1.99805,1.94922 v 0.006 0.004 c -10e-4,0.0236 -0.002,0.038 -0.002,0.041 v 2.00196 0.002 h -1.04883 c -1.42739,0.006 -2.45972,0.0671 -3.17383,0.21094 -0.0503,0.0104 -0.0993,0.0219 -0.14648,0.0332 -0.0818,0.019 -0.15764,0.0391 -0.23047,0.0606 -0.0689,0.0209 -0.13595,0.0431 -0.19727,0.0664 -0.0399,0.0149 -0.0766,0.031 -0.11328,0.0469 -0.17465,0.0768 -0.31752,0.1644 -0.42773,0.26562 -0.0149,0.0136 -0.0287,0.0287 -0.043,0.043 -0.0471,0.0475 -0.0919,0.0982 -0.13282,0.1543 -0.0104,0.0141 -0.0194,0.0302 -0.0293,0.0449 -0.0426,0.0635 -0.0832,0.13049 -0.11914,0.20703 -0.004,0.009 -0.008,0.0186 -0.0117,0.0274 -0.0383,0.085 -0.0725,0.17736 -0.10352,0.28125 -0.003,0.009 -0.005,0.0186 -0.008,0.0273 -0.0298,0.10325 -0.0565,0.2153 -0.0801,0.33984 -0.007,0.0346 -0.0116,0.0751 -0.0176,0.11133 -0.019,0.11456 -0.037,0.23042 -0.0508,0.36133 -0.001,0.01 -9.6e-4,0.0233 -0.002,0.0332 -0.0159,0.15764 -0.0297,0.32646 -0.0391,0.50781 -0.0198,0.38718 -0.0263,0.82709 -0.0234,1.32618 v 0.002 0.74414 0.62109 0.4961 h 2 c -0.002,1e-5 0.0202,-8.8e-4 0.0508,0 0.94995,0.0239 1.73681,0.71512 1.91211,1.61914 0.0119,0.06 0.021,0.11988 0.0273,0.18164 l 0.002,0.0215 v 0.002 0.002 c 0.002,0.0359 0.009,0.0941 0.01,0.17383 v 0.002 0.002 c 0,0.0809 -0.007,0.13701 -0.01,0.17383 v 0.002 0.002 l -0.002,0.0254 c -0.10053,0.98941 -0.92827,1.77147 -1.93945,1.79687 -0.0306,8.8e-4 -0.0528,-1e-5 -0.0508,0 h -2 v 0.5 1.36133 0.002 c -0.006,0.94777 0.0248,1.6838 0.11719,2.23632 0.006,0.0337 0.01,0.0712 0.0156,0.10352 0.0752,0.39771 0.18032,0.67871 0.32617,0.89258 0.007,0.0103 0.0142,0.0213 0.0215,0.0312 0.044,0.061 0.0932,0.11512 0.14453,0.16601 0.0112,0.011 0.0216,0.0226 0.0332,0.0332 0.11051,0.10196 0.25403,0.19037 0.42969,0.26757 0.0367,0.0159 0.0733,0.032 0.11328,0.0469 0.0613,0.0233 0.12832,0.0455 0.19727,0.0664 0.0728,0.0215 0.14866,0.0416 0.23047,0.0605 0.0472,0.0113 0.0962,0.0228 0.14648,0.0332 0.12655,0.0255 0.25957,0.0478 0.40625,0.0684 0.0105,0.002 0.0206,0.004 0.0312,0.006 0.67724,0.0922 1.58015,0.1318 2.73633,0.13672 h 1.04883 v 2.00391 c 0,0.003 9.5e-4,0.0174 0.002,0.041 v 0.004 0.006 c 0.0272,1.08912 0.90879,1.94722 1.99805,1.94922 H 330 c 1.08861,-0.002 1.96899,-0.86106 1.99609,-1.94922 v -0.0195 l 0.002,-0.0176 c 0.001,-0.005 9.5e-4,-0.0162 0.002,-0.0371 v -1.97851 -0.002 h 1.11914 c 1.18723,-0.004 2.08773,-0.0508 2.76172,-0.15234 0.0198,-0.003 0.0411,-0.005 0.0606,-0.008 0.12418,-0.0197 0.2352,-0.0446 0.34375,-0.0684 0.0487,-0.0109 0.0988,-0.0215 0.14453,-0.0332 0.0829,-0.0209 0.15724,-0.0427 0.23047,-0.0664 0.0499,-0.0165 0.10091,-0.0329 0.14648,-0.0508 0.0486,-0.0187 0.091,-0.0383 0.13477,-0.0586 0.0611,-0.0286 0.1214,-0.058 0.17382,-0.0898 0.028,-0.017 0.0526,-0.0349 0.0781,-0.0527 0.0504,-0.0352 0.099,-0.0725 0.14062,-0.11132 0.0195,-0.0182 0.0363,-0.0393 0.0547,-0.0586 0.043,-0.0454 0.0853,-0.0913 0.12305,-0.14453 0.01,-0.014 0.0197,-0.0303 0.0293,-0.0449 0.0892,-0.13633 0.16351,-0.29773 0.2246,-0.5 0.0127,-0.0423 0.0235,-0.0928 0.0352,-0.13867 0.0196,-0.0768 0.04,-0.15274 0.0566,-0.24024 0.009,-0.0483 0.0153,-0.1049 0.0234,-0.15625 0.0868,-0.54641 0.11914,-1.26053 0.11914,-2.17578 v -0.36133 -1.5 -0.004 h 1.97461 c 0.0209,-0.001 0.0341,-9.2e-4 0.0391,-0.002 l 0.0176,-0.002 h 0.0176 c 0.95171,-0.0238 1.73034,-0.69707 1.91211,-1.59375 0.0257,-0.12846 0.039,-0.26217 0.0391,-0.39844 v -0.002 c -0.003,-1.08766 -0.86331,-1.96687 -1.95117,-1.99414 h -0.0176 l -0.0176,-0.002 c -0.005,-0.001 -0.0182,-9.6e-4 -0.0391,-0.002 H 338 v -1.5 -0.36328 c -4e-5,-0.74368 -0.0207,-1.35889 -0.0742,-1.85742 -0.0125,-0.11576 -0.0285,-0.21719 -0.0449,-0.32031 -0.008,-0.0513 -0.0143,-0.10799 -0.0234,-0.15625 -0.0183,-0.0965 -0.0405,-0.18006 -0.0625,-0.26367 -0.009,-0.0357 -0.0173,-0.0759 -0.0273,-0.10938 -0.0287,-0.0957 -0.061,-0.18211 -0.0957,-0.26172 -0.006,-0.013 -0.01,-0.0284 -0.0156,-0.041 -0.0326,-0.0706 -0.0713,-0.13002 -0.10938,-0.18946 -0.013,-0.0202 -0.0235,-0.0435 -0.0371,-0.0625 -0.0345,-0.0484 -0.0744,-0.089 -0.11329,-0.13086 -0.021,-0.0224 -0.0401,-0.0475 -0.0625,-0.0684 -0.0435,-0.0406 -0.0953,-0.0767 -0.14843,-0.11329 -0.023,-0.0159 -0.0433,-0.0336 -0.0684,-0.0488 -0.0503,-0.0306 -0.10962,-0.0583 -0.16797,-0.0859 -0.0467,-0.0219 -0.0923,-0.0444 -0.14453,-0.0644 -0.0451,-0.0176 -0.0953,-0.0345 -0.14453,-0.0508 -0.0732,-0.0237 -0.14753,-0.0455 -0.23047,-0.0664 -0.0457,-0.0118 -0.0958,-0.0223 -0.14453,-0.0332 -0.10416,-0.0228 -0.21154,-0.0454 -0.33008,-0.0645 -0.0351,-0.006 -0.073,-0.0102 -0.10938,-0.0156 -0.67039,-0.0982 -1.55841,-0.14408 -2.72656,-0.14844 H 332 v -0.002 -1.97852 c -10e-4,-0.0209 -9e-4,-0.0321 -0.002,-0.0371 l -0.002,-0.0176 v -0.0195 C 331.96899,190.83177 331.0886,189.9727 330,189.9707 Z m -0.0254,1.00586 v 0.002 0.002 c 0.62774,0.0351 0.70766,0.193 0.86328,0.47851 0.14105,0.25873 0.16015,0.51563 0.16015,0.51563 v 0.0273 l 0.004,0.0293 c -5e-5,0.006 -9.2e-4,-0.006 0,0.0137 v 2.93164 h 1 1 c 0,-0.002 0,-0.004 0,-0.006 0.0393,3.8e-4 0.069,-1e-5 0.11523,0 0.1372,5.2e-4 0.25588,0.004 0.38477,0.006 5e-4,-0.002 0.004,-6e-5 0.006,0 0.0422,8.7e-4 0.0687,0.003 0.10937,0.004 0.21264,0.005 0.41394,0.0108 0.60352,0.0195 0.13574,0.006 0.2591,0.0129 0.375,0.0195 0.0304,0.002 0.062,0.002 0.0918,0.004 0.55802,0.0351 0.91814,0.0824 1.21679,0.13867 0.0854,0.0161 0.15313,0.036 0.22461,0.0547 0.0105,0.003 0.021,0.005 0.0312,0.008 0.0718,0.0194 0.13291,0.0373 0.18946,0.0566 0.20467,0.0654 0.32018,0.11849 0.30078,0.10156 0.10494,0.0917 0.13351,0.1032 0.22461,0.5625 0.0844,0.42541 0.12695,1.17839 0.12695,2.17774 v 0.36328 2.5 h 2.94336 l 0.0195,0.002 c 0.0147,6e-4 0.0258,0.002 0.0566,0.002 h 0.008 c 0.0711,0.002 0.13971,0.01 0.20508,0.0234 0.13001,0.0276 0.24941,0.079 0.35156,0.14844 0.0509,0.0347 0.1,0.0755 0.14258,0.11914 h 0.002 c 0.0843,0.0867 0.15072,0.19182 0.19726,0.30859 0.0235,0.0595 0.0443,0.1256 0.0566,0.19141 0.0122,0.0652 0.0172,0.13456 0.0176,0.20508 v 0.002 c -2.6e-4,0.0701 -0.006,0.14021 -0.0176,0.20508 -0.0121,0.0654 -0.0296,0.13029 -0.0527,0.18945 -0.0231,0.0588 -0.0528,0.11628 -0.0859,0.16797 -0.0332,0.0515 -0.0729,0.10102 -0.11523,0.14453 -0.0425,0.0434 -0.0919,0.0847 -0.14258,0.11914 -0.1025,0.0695 -0.22098,0.12099 -0.35157,0.14844 -0.065,0.0136 -0.13637,0.0217 -0.20703,0.0234 h -0.008 c -0.0308,0 -0.042,0.001 -0.0566,0.002 l -0.0195,0.002 H 337 v 2.49805 0.36133 c 0,0.48623 -0.009,0.91241 -0.0293,1.27148 -0.0212,0.3822 -0.0542,0.69089 -0.0977,0.91016 -0.0911,0.4593 -0.11967,0.47084 -0.22461,0.5625 0.0188,-0.0164 -0.0875,0.0333 -0.2793,0.0957 -0.12172,0.0426 -0.27007,0.088 -0.4668,0.125 -0.37688,0.071 -0.83378,0.1292 -1.70117,0.16407 -0.20385,0.009 -0.422,0.0152 -0.65234,0.0195 -0.0163,3.5e-4 -0.0264,0.002 -0.043,0.002 -0.002,6e-5 -0.005,0.002 -0.006,0 h -0.0352 c -0.1178,0.002 -0.22494,0.005 -0.34961,0.006 -0.0462,10e-6 -0.0759,-3.8e-4 -0.11523,0 0,-0.002 0,-0.004 0,-0.006 h -1 -1 v 2.93164 c -9.2e-4,0.0197 -5e-5,0.008 0,0.0137 l -0.004,0.0293 v 0.0273 c 0,0 -0.0191,0.2569 -0.16015,0.51563 -0.15562,0.28552 -0.23554,0.44341 -0.86328,0.47851 v 0.002 0.002 c -0.55469,-0.0158 -0.95671,-0.40503 -0.97071,-0.96484 v -0.006 c 0,-0.02 -0.002,-0.0218 -0.002,-0.0352 -10e-6,-0.004 2e-5,-0.0107 0,-0.0137 -3e-5,-0.004 1.5e-4,-0.005 0,-0.0117 v -2.96094 H 327.99805 326.5 c -0.62313,-0.007 -1.13775,-0.0348 -1.57227,-0.0762 -0.21901,-0.0164 -0.41976,-0.0352 -0.58984,-0.0586 -0.63413,-0.0873 -0.9903,-0.27314 -0.98828,-0.27149 -0.0617,-0.0504 -0.0704,-0.0596 -0.10156,-0.12109 -0.001,-0.002 -0.003,-0.008 -0.004,-0.01 -0.0345,-0.0629 -0.0695,-0.17178 -0.10937,-0.36523 -0.004,-0.0175 -0.006,-0.0261 -0.01,-0.0449 -0.001,-0.005 -8.7e-4,-0.014 -0.002,-0.0195 -0.003,-0.0161 -0.007,-0.0238 -0.01,-0.041 -0.0799,-0.43092 -0.11733,-1.16668 -0.11133,-2.13672 v -0.002 -0.004 -0.002 -0.86133 -0.006 l 1.04883,-0.002 h 0.0117 0.0957 c 0.14285,-0.008 0.28286,-0.0256 0.41992,-0.0527 1.12812,-0.22317 2.03327,-1.08059 2.32227,-2.18554 0.0199,-0.0704 0.0366,-0.14167 0.0508,-0.21485 0.0143,-0.0778 0.0271,-0.15656 0.0352,-0.23633 l 0.004,-0.0254 v -0.008 -0.006 l 0.002,-0.0137 c 0.003,-0.0338 0.01,-0.1213 0.01,-0.25 0,-0.10933 -0.007,-0.18452 -0.008,-0.20312 v -0.0274 l -0.004,-0.0449 v -0.01 l -0.004,-0.0254 c -0.016,-0.15666 -0.045,-0.30802 -0.0859,-0.45312 -0.28892,-1.10527 -1.19404,-1.96433 -2.32227,-2.1875 -0.13137,-0.026 -0.26563,-0.0427 -0.40234,-0.0508 h -0.11328 -0.0117 l -1.04883,-0.002 v -0.12109 -0.74414 -0.004 -0.004 -0.002 c -0.002,-0.33045 0.003,-0.6252 0.0117,-0.89843 0.0104,-0.35458 0.0275,-0.66468 0.0547,-0.91211 0.003,-0.0242 0.005,-0.0413 0.008,-0.0645 0.0113,-0.0931 0.0232,-0.18869 0.0371,-0.26367 0.004,-0.0189 0.006,-0.0274 0.01,-0.0449 7.6e-4,-0.004 0.001,-0.01 0.002,-0.0137 0.003,-0.0148 0.005,-0.0212 0.008,-0.0352 0.0418,-0.20514 0.0774,-0.31699 0.11328,-0.38086 4.4e-4,-8.7e-4 0.002,-0.003 0.002,-0.004 0.0263,-0.0519 0.0423,-0.0699 0.082,-0.10352 0.007,-0.006 0.0109,-0.0105 0.0195,-0.0176 -0.002,0.002 0.35415,-0.18418 0.98828,-0.27148 0.17669,-0.0243 0.38777,-0.0437 0.61719,-0.0606 0.42901,-0.0399 0.93518,-0.0696 1.54492,-0.0762 H 327.99805 329 v -2.96094 c 1.5e-4,-0.007 -3e-5,-0.008 0,-0.0117 2e-5,-0.003 -10e-6,-0.01 0,-0.0137 1.4e-4,-0.0134 0.002,-0.0151 0.002,-0.0351 v -0.006 c 0.014,-0.55982 0.41602,-0.94908 0.97071,-0.96485 z m -0.97657,0.9668 0.002,0.0117 v 0.0156 0.002 c 0,0 -0.0894,0.006 -0.15821,0.01 l -0.13867,-0.004 c 0.14232,-0.0169 0.29492,-0.0352 0.29492,-0.0352 z m -0.15625,20.05078 c 0.0688,0.004 0.15821,0.01 0.15821,0.01 v 0.002 0.0156 l -0.002,0.0117 c 0,0 -0.1526,-0.0182 -0.29492,-0.0351 z"
         style="display:inline;stroke-linecap:round;enable-background:new;fill:url(#linearGradient70);opacity:0.25"
         id="path69" />
    </g>
  </g>
</svg>
