<?xml version="1.0" encoding="UTF-8" standalone="no"?>
<!-- Created with Inkscape (http://www.inkscape.org/) -->

<svg
   width="16"
   height="16"
   id="svg11300"
   version="1.0"
   style="display:inline;enable-background:new"
   xml:space="preserve"
   xmlns="http://www.w3.org/2000/svg"
   xmlns:svg="http://www.w3.org/2000/svg"
   xmlns:rdf="http://www.w3.org/1999/02/22-rdf-syntax-ns#"
   xmlns:cc="http://creativecommons.org/ns#"
   xmlns:dc="http://purl.org/dc/elements/1.1/"><title
     id="title3004">Yaru Icon Theme Template</title><defs
     id="defs3" /><metadata
     id="metadata4"><rdf:RDF><cc:Work
         rdf:about=""><dc:format>image/svg+xml</dc:format><dc:type
           rdf:resource="http://purl.org/dc/dcmitype/StillImage" /><dc:creator><cc:Agent><dc:title>Yaru Team, based on the Suru template by Sam Hewitt</dc:title></cc:Agent></dc:creator><dc:source /><cc:license
           rdf:resource="http://creativecommons.org/licenses/by-sa/4.0/" /><dc:title>Yaru Icon Theme Template</dc:title><dc:subject><rdf:Bag /></dc:subject><dc:date /><dc:rights><cc:Agent><dc:title /></cc:Agent></dc:rights><dc:publisher><cc:Agent><dc:title /></cc:Agent></dc:publisher><dc:identifier /><dc:relation /><dc:language /><dc:coverage /><dc:description /><dc:contributor><cc:Agent><dc:title /></cc:Agent></dc:contributor></cc:Work><cc:Work
         rdf:about=""><dc:format>image/svg+xml</dc:format><dc:type
           rdf:resource="http://purl.org/dc/dcmitype/StillImage" /></cc:Work><cc:License
         rdf:about="http://creativecommons.org/licenses/by-sa/4.0/"><cc:permits
           rdf:resource="http://creativecommons.org/ns#Reproduction" /><cc:permits
           rdf:resource="http://creativecommons.org/ns#Distribution" /><cc:requires
           rdf:resource="http://creativecommons.org/ns#Notice" /><cc:requires
           rdf:resource="http://creativecommons.org/ns#Attribution" /><cc:permits
           rdf:resource="http://creativecommons.org/ns#DerivativeWorks" /><cc:requires
           rdf:resource="http://creativecommons.org/ns#ShareAlike" /></cc:License></rdf:RDF></metadata><g
     style="display:inline"
     id="layer1"
     transform="translate(-320,-255)"><g
       style="display:inline"
       id="layer7"><rect
         style="display:inline;overflow:visible;visibility:visible;opacity:0;fill:#cdcdcd;fill-opacity:1;fill-rule:nonzero;stroke:none;stroke-width:2;marker:none;enable-background:accumulate"
         id="rect16x16-3"
         width="16"
         height="16"
         x="320"
         y="255" /><path
         d="m 330.41682,255.00177 c -9.8e-4,0 -0.002,0.002 -0.004,0.002 -0.001,4e-4 -0.004,0.002 -0.006,0.003 -0.29998,0.14227 -2.07937,2.95978 0.33191,5.36906 l -7.9e-4,0.003 c 0.43119,0.42349 0.80299,1.01627 0.67183,0.90586 -0.54547,-0.37785 -1.21181,-0.53968 -1.86982,-0.45412 2.78949,1.39474 2.04101,6.1975 -1.82484,6.01741 -0.34428,-0.0141 -0.6845,-0.0797 -1.00934,-0.19463 -0.0759,-0.0284 -0.15175,-0.0598 -0.22766,-0.0935 -0.0438,-0.02 -0.0877,-0.0397 -0.13094,-0.0621 l 0.006,0.003 c 0.0337,0.023 0.0756,0.0482 0.12537,0.0744 -0.0489,-0.0258 -0.0906,-0.0502 -0.12377,-0.0728 -0.0376,-0.018 -0.075,-0.037 -0.11264,-0.0565 -0.0388,-0.0185 -0.0734,-0.04 -0.11104,-0.0593 0.0362,0.0185 0.0718,0.0375 0.10905,0.0553 0.0362,0.0174 0.0702,0.0363 0.10746,0.0529 -0.9471,-0.48922 -1.72918,-1.41483 -1.82683,-2.53763 v -3.9e-4 c 0,0 0.35817,-1.3341 2.56354,-1.3341 0.23646,0 0.9089,-0.65467 0.93133,-0.85332 9e-5,-8.5e-4 7.1e-4,-0.002 7.9e-4,-0.003 -8e-5,-3.2e-4 -0.002,-10e-4 -0.002,-0.002 -0.0293,-0.0717 -1.35315,-0.60208 -1.87419,-1.11521 -0.28115,-0.27714 -0.41467,-0.41038 -0.53293,-0.51063 -0.0639,-0.0541 -0.13077,-0.10475 -0.2002,-0.15164 -0.26442,-0.85476 -0.18749,-1.27603 -0.0251,-1.89848 -0.71541,0.34655 -1.35093,0.84061 -1.86663,1.44555 -0.30737,-0.38961 -0.28547,-1.67431 -0.26786,-1.94265 -0.091,0.0365 -0.17783,0.0825 -0.2591,0.13731 -0.27128,0.19372 -0.52487,0.41108 -0.7578,0.64954 -0.26645,0.26838 -0.50995,0.55861 -0.72795,0.86765 -0.49865,0.70673 -0.85239,1.50523 -1.04077,2.34941 -0.002,0.01 -0.11171,0.48843 -0.15921,0.99779 0.0186,-0.15002 0.043,-0.29925 0.0732,-0.44736 -0.0244,0.20169 -0.0577,0.36986 -0.0796,0.54328 -0.0143,0.18711 -0.0213,0.22459 -0.0287,0.28019 -0.17688,2.93716 1.9926,7.56884 7.08167,8.00226 4.00899,0.34143 7.61337,-2.43945 8.30036,-6.40387 0.013,-0.10005 0.0234,-0.19904 0.035,-0.3001 0.15974,-1.32031 -0.0132,-2.65961 -0.50308,-3.89605 l -7.9e-4,7.9e-4 c -0.33698,-0.81083 -1.02052,-1.6862 -1.5558,-1.96295 0.38177,0.73908 0.64679,1.53282 0.78566,2.353 v 0.008 l 10e-4,0.008 c -1.6e-4,5.4e-4 -2.5e-4,10e-4 -3.9e-4,0.002 -2.6e-4,-0.002 -5.1e-4,-0.004 -7.9e-4,-0.006 -0.87728,-2.18717 -2.36542,-3.06996 -3.57806,-4.98898 -0.0614,-0.097 -0.12285,-0.19425 -0.18268,-0.29691 -0.0342,-0.0586 -0.0614,-0.11137 -0.0852,-0.16 -0.0504,-0.0976 -0.0893,-0.20068 -0.11582,-0.30725 2e-5,-0.0101 -0.007,-0.0186 -0.0175,-0.0199 -0.005,-0.001 -0.01,-0.001 -0.0147,0 z"
         style="fill:#808080;fill-opacity:1;stroke-width:0.200107"
         id="path89" /></g></g></svg>
