<?xml version="1.0" encoding="UTF-8" standalone="no"?>
<!-- Created with Inkscape (http://www.inkscape.org/) -->

<svg
   inkscape:export-ydpi="96"
   inkscape:export-xdpi="96"
   width="400"
   height="300"
   id="svg11300"
   sodipodi:version="0.32"
   inkscape:version="1.3.2 (091e20ef0f, 2023-11-25)"
   sodipodi:docname="EarTagBase.svg"
   inkscape:output_extension="org.inkscape.output.svg.inkscape"
   version="1.0"
   style="display:inline;enable-background:new"
   inkscape:export-filename="../YaruX/apps/256/EasyTag.png"
   xmlns:inkscape="http://www.inkscape.org/namespaces/inkscape"
   xmlns:sodipodi="http://sodipodi.sourceforge.net/DTD/sodipodi-0.dtd"
   xmlns:xlink="http://www.w3.org/1999/xlink"
   xmlns="http://www.w3.org/2000/svg"
   xmlns:svg="http://www.w3.org/2000/svg"
   xmlns:rdf="http://www.w3.org/1999/02/22-rdf-syntax-ns#"
   xmlns:cc="http://creativecommons.org/ns#"
   xmlns:dc="http://purl.org/dc/elements/1.1/">
  <title
     id="title3004">Yaru Icon Theme Template</title>
  <sodipodi:namedview
     stroke="#ef2929"
     fill="#f57900"
     id="base"
     pagecolor="#ffffff"
     bordercolor="#000000"
     borderopacity="0.25490196"
     inkscape:pageopacity="0"
     inkscape:pageshadow="2"
     inkscape:zoom="1.9758061"
     inkscape:cx="184.73473"
     inkscape:cy="114.88982"
     inkscape:current-layer="layer8"
     showgrid="false"
     inkscape:grid-bbox="true"
     inkscape:document-units="px"
     inkscape:showpageshadow="false"
     inkscape:window-width="1862"
     inkscape:window-height="1011"
     inkscape:window-x="0"
     inkscape:window-y="0"
     width="400px"
     height="300px"
     inkscape:snap-nodes="true"
     inkscape:snap-bbox="true"
     gridtolerance="10000"
     inkscape:object-nodes="true"
     inkscape:snap-grids="true"
     showguides="false"
     inkscape:guide-bbox="true"
     inkscape:window-maximized="1"
     inkscape:bbox-paths="true"
     inkscape:snap-bbox-midpoints="true"
     inkscape:snap-global="true"
     inkscape:object-paths="true"
     inkscape:snap-intersection-paths="true"
     inkscape:snap-smooth-nodes="true"
     inkscape:pagecheckerboard="false"
     showborder="false"
     inkscape:deskcolor="#d1d1d1"
     inkscape:lockguides="true"
     shape-rendering="crispEdges"
     inkscape:clip-to-page="false">
    <inkscape:grid
       spacingy="1"
       spacingx="1"
       id="grid5883"
       type="xygrid"
       enabled="true"
       visible="false"
       empspacing="4"
       snapvisiblegridlinesonly="true"
       originx="0"
       originy="0"
       units="px" />
    <inkscape:grid
       type="xygrid"
       id="grid11592"
       empspacing="2"
       visible="false"
       enabled="false"
       spacingx="0.5"
       spacingy="0.5"
       color="#ff0000"
       opacity="0.1254902"
       empcolor="#ff0000"
       empopacity="0.25098039"
       snapvisiblegridlinesonly="true"
       originx="0"
       originy="0"
       units="px" />
  </sodipodi:namedview>
  <defs
     id="defs3">
    <linearGradient
       id="linearGradient2"
       inkscape:collect="always">
      <stop
         style="stop-color:#f8bd02;stop-opacity:1;"
         offset="0"
         id="stop1" />
      <stop
         style="stop-color:#ffda64;stop-opacity:1;"
         offset="0.9433766"
         id="stop2" />
    </linearGradient>
    <linearGradient
       id="linearGradient13"
       inkscape:collect="always">
      <stop
         style="stop-color:#000000;stop-opacity:0.2;"
         offset="0"
         id="stop12" />
      <stop
         style="stop-color:#ffffff;stop-opacity:0.40000001;"
         offset="0.67001384"
         id="stop13" />
    </linearGradient>
    <linearGradient
       id="linearGradient69"
       inkscape:collect="always">
      <stop
         style="stop-color:#fdc92b;stop-opacity:1;"
         offset="0.30904755"
         id="stop69" />
      <stop
         style="stop-color:#ffda64;stop-opacity:1;"
         offset="0.98753446"
         id="stop70" />
    </linearGradient>
    <linearGradient
       id="linearGradient35"
       inkscape:collect="always">
      <stop
         style="stop-color:#ffffff;stop-opacity:0.30000001;"
         offset="0"
         id="stop35" />
      <stop
         style="stop-color:#000000;stop-opacity:0.2;"
         offset="1"
         id="stop36" />
    </linearGradient>
    <linearGradient
       id="linearGradient27"
       inkscape:collect="always">
      <stop
         style="stop-color:#eab305;stop-opacity:1;"
         offset="0"
         id="stop26" />
      <stop
         style="stop-color:#000000;stop-opacity:1;"
         offset="1"
         id="stop27" />
    </linearGradient>
    <linearGradient
       id="linearGradient19"
       inkscape:collect="always">
      <stop
         style="stop-color:#000000;stop-opacity:0.2;"
         offset="0"
         id="stop19" />
      <stop
         style="stop-color:#ffffff;stop-opacity:0.30000001;"
         offset="0.62663144"
         id="stop20" />
    </linearGradient>
    <linearGradient
       inkscape:collect="always"
       id="linearGradient9">
      <stop
         style="stop-color:#ffffff;stop-opacity:1;"
         offset="0"
         id="stop6" />
      <stop
         id="stop7"
         offset="0.24933363"
         style="stop-color:#ffffff;stop-opacity:0.09803922" />
      <stop
         id="stop8"
         offset="0.7157284"
         style="stop-color:#ffffff;stop-opacity:0.09803922" />
      <stop
         style="stop-color:#ffffff;stop-opacity:0.49803922"
         offset="1"
         id="stop9" />
    </linearGradient>
    <inkscape:path-effect
       effect="fillet_chamfer"
       id="path-effect55"
       is_visible="true"
       lpeversion="1"
       nodesatellites_param="F,0,0,1,0,0,0,1 @ F,0,0,1,0,0,0,1 @ F,0,1,1,0,2.8137948,0,1 @ F,0,1,1,0,2.8137948,0,1 @ F,0,0,1,0,0,0,1 @ F,0,0,1,0,0,0,1 @ F,0,0,1,0,0,0,1 @ F,0,0,1,0,0,0,1 @ F,0,0,1,0,0,0,1 @ F,0,0,1,0,0,0,1 @ F,0,0,1,0,0,0,1 @ F,0,0,1,0,0,0,1 @ F,0,0,1,0,0,0,1 @ F,0,0,1,0,0,0,1 @ F,0,0,1,0,0,0,1 @ F,0,0,1,0,2.8137948,0,1 @ F,0,1,1,0,2.8137948,0,1 @ F,0,0,1,0,0,0,1 @ F,0,0,1,0,0,0,1 | F,0,0,1,0,0,0,1 @ F,0,0,1,0,0,0,1 @ F,0,0,1,0,0,0,1 @ F,0,0,1,0,0,0,1 @ F,0,0,1,0,0,0,1 @ F,0,0,1,0,0,0,1 @ F,0,0,1,0,0,0,1 @ F,0,0,1,0,0,0,1 @ F,0,0,1,0,0,0,1 @ F,0,0,1,0,0,0,1"
       radius="0"
       unit="px"
       method="auto"
       mode="F"
       chamfer_steps="1"
       flexible="false"
       use_knot_distance="true"
       apply_no_radius="true"
       apply_with_radius="true"
       only_selected="false"
       hide_knots="false" />
    <inkscape:path-effect
       effect="fillet_chamfer"
       id="path-effect54"
       is_visible="true"
       lpeversion="1"
       nodesatellites_param="F,0,0,1,0,8.010866,0,1 @ F,0,0,1,0,0,0,1 @ F,0,0,1,0,0,0,1 @ F,0,1,1,0,8.010866,0,1 | F,0,0,1,0,3.989134,0,1 @ F,0,0,1,0,3.989134,0,1 @ F,0,0,1,0,3.989134,0,1 @ F,0,0,1,0,3.989134,0,1"
       radius="0"
       unit="px"
       method="auto"
       mode="F"
       chamfer_steps="1"
       flexible="false"
       use_knot_distance="true"
       apply_no_radius="true"
       apply_with_radius="true"
       only_selected="false"
       hide_knots="false" />
    <inkscape:path-effect
       effect="fillet_chamfer"
       id="path-effect53"
       is_visible="true"
       lpeversion="1"
       nodesatellites_param="F,0,0,1,0,0,0,1 @ F,0,0,1,0,0,0,1 @ F,0,0,1,0,0,0,1 @ F,0,0,1,0,0,0,1 @ F,0,0,1,0,0,0,1 @ F,0,0,1,0,0,0,1 @ F,0,0,1,0,0,0,1 @ F,0,0,1,0,0,0,1 @ F,0,0,1,0,0,0,1 @ F,0,0,1,0,0,0,1 @ F,0,0,1,0,0,0,1 @ F,0,0,1,0,0,0,1 @ F,0,0,1,0,0,0,1 @ F,0,0,1,0,0,0,1 @ F,0,0,1,0,0,0,1 @ F,0,0,1,0,0,0,1 @ F,0,0,1,0,0,0,1 @ F,0,0,1,0,0,0,1 @ F,0,0,1,0,0,0,1 @ F,0,0,1,0,0,0,1 @ F,0,0,1,0,0,0,1 @ F,0,0,1,0,0,0,1 @ F,0,0,1,0,0,0,1 | F,0,0,1,0,0,0,1 @ F,0,0,1,0,0,0,1 @ F,0,0,1,0,0,0,1 @ F,0,0,1,0,0,0,1"
       radius="0"
       unit="px"
       method="auto"
       mode="F"
       chamfer_steps="1"
       flexible="false"
       use_knot_distance="true"
       apply_no_radius="true"
       apply_with_radius="true"
       only_selected="false"
       hide_knots="false" />
    <linearGradient
       id="linearGradient4"
       inkscape:collect="always">
      <stop
         style="stop-color:#848484;stop-opacity:1;"
         offset="0.47425896"
         id="stop4" />
      <stop
         style="stop-color:#ffffff;stop-opacity:1;"
         offset="1"
         id="stop5" />
    </linearGradient>
    <inkscape:path-effect
       effect="fillet_chamfer"
       id="path-effect83"
       is_visible="true"
       lpeversion="1"
       nodesatellites_param="F,0,0,1,0,0,0,1 @ F,0,0,1,0,0,0,1 @ F,0,0,1,0,0,0,1 @ F,0,0,1,0,0,0,1 @ F,0,0,1,0,0,0,1 @ F,0,0,1,0,0,0,1 @ F,0,0,1,0,0,0,1 @ F,0,0,1,0,0,0,1 @ F,0,0,1,0,0,0,1 @ F,0,0,1,0,5.8272848,0,1 @ F,0,0,1,0,0,0,1 @ F,0,0,1,0,0,0,1 @ F,0,0,1,0,0,0,1 @ F,0,0,1,0,0,0,1 @ F,0,0,1,0,0,0,1 @ F,0,0,1,0,0,0,1 @ F,0,0,1,0,0,0,1 @ F,0,0,1,0,0,0,1 @ F,0,0,1,0,0,0,1 @ F,0,0,1,0,0,0,1 @ F,0,0,1,0,0,0,1 @ F,0,0,1,0,0,0,1 @ F,0,0,1,0,0,0,1 @ F,0,0,1,0,0,0,1 @ F,0,0,1,0,0,0,1 | F,0,0,1,0,0,0,1 @ F,0,0,1,0,0,0,1 @ F,0,0,1,0,0,0,1 @ F,0,0,1,0,0,0,1"
       radius="0"
       unit="px"
       method="bezier"
       mode="F"
       chamfer_steps="1"
       flexible="false"
       use_knot_distance="true"
       apply_no_radius="true"
       apply_with_radius="true"
       only_selected="false"
       hide_knots="false" />
    <inkscape:path-effect
       effect="fillet_chamfer"
       id="path-effect82"
       is_visible="true"
       lpeversion="1"
       nodesatellites_param="F,0,0,1,0,0,0,1 @ F,0,0,1,0,0,0,1 @ F,0,0,1,0,0,0,1 @ F,0,0,1,0,0,0,1 @ F,0,0,1,0,0,0,1 @ F,0,0,1,0,0,0,1 @ F,0,0,1,0,0,0,1 @ F,0,0,1,0,0,0,1 @ F,0,0,1,0,0,0,1 @ F,0,0,1,0,5.7700248,0,1 @ F,0,0,1,0,0,0,1 @ F,0,0,1,0,0,0,1 @ F,0,0,1,0,0,0,1 @ F,0,0,1,0,0,0,1 @ F,0,0,1,0,0,0,1 @ F,0,0,1,0,0,0,1 @ F,0,0,1,0,0,0,1 @ F,0,0,1,0,0,0,1 @ F,0,0,1,0,0,0,1 @ F,0,0,1,0,0,0,1 @ F,0,0,1,0,0,0,1 @ F,0,0,1,0,0,0,1 @ F,0,0,1,0,0,0,1 @ F,0,0,1,0,0,0,1 @ F,0,0,1,0,0,0,1 | F,0,0,1,0,0,0,1 @ F,0,0,1,0,0,0,1 @ F,0,0,1,0,0,0,1 @ F,0,0,1,0,0,0,1"
       radius="0"
       unit="px"
       method="auto"
       mode="F"
       chamfer_steps="1"
       flexible="false"
       use_knot_distance="true"
       apply_no_radius="true"
       apply_with_radius="true"
       only_selected="false"
       hide_knots="false" />
    <inkscape:path-effect
       effect="fillet_chamfer"
       id="path-effect81"
       is_visible="true"
       lpeversion="1"
       nodesatellites_param="F,0,0,1,0,0,0,1 @ F,0,0,1,0,0,0,1 @ F,0,0,1,0,0,0,1 @ F,0,0,1,0,0,0,1 @ F,0,0,1,0,0,0,1 @ F,0,0,1,0,0,0,1 @ F,0,0,1,0,0,0,1 @ F,0,0,1,0,0,0,1 @ F,0,0,1,0,0,0,1 @ F,0,0,1,0,0,0,1 @ F,0,0,1,0,0,0,1 @ F,0,0,1,0,0,0,1 @ F,0,0,1,0,0,0,1 @ F,0,0,1,0,0,0,1 @ F,0,0,1,0,0,0,1 @ F,0,0,1,0,0,0,1 @ F,0,0,1,0,0,0,1 @ F,0,0,1,0,0,0,1 @ F,0,0,1,0,0,0,1 @ F,0,0,1,0,0,0,1 @ F,0,0,1,0,0,0,1 @ F,0,0,1,0,0,0,1 @ F,0,0,1,0,0,0,1 | F,0,0,1,0,0,0,1 @ F,0,0,1,0,0,0,1 @ F,0,0,1,0,0,0,1 @ F,0,0,1,0,0,0,1"
       radius="0"
       unit="px"
       method="auto"
       mode="F"
       chamfer_steps="1"
       flexible="false"
       use_knot_distance="true"
       apply_no_radius="true"
       apply_with_radius="true"
       only_selected="false"
       hide_knots="false" />
    <inkscape:path-effect
       effect="fillet_chamfer"
       id="path-effect80"
       nodesatellites_param="F,0,0,1,0,0,0,1 @ F,0,0,1,0,0,0,1 @ F,0,0,1,0,0,0,1 @ F,0,0,1,0,0,0,1 @ F,0,0,1,0,0,0,1 @ F,0,0,1,0,0,0,1 @ F,0,0,1,0,0,0,1 @ F,0,0,1,0,0,0,1 @ F,0,0,1,0,0,0,1 @ F,0,0,1,0,0,0,1 @ F,0,0,1,0,0,0,1 @ F,0,0,1,0,0,0,1 @ F,0,0,1,0,0,0,1 @ F,0,0,1,0,0,0,1 @ F,0,0,1,0,0,0,1 @ F,0,0,1,0,0,0,1 @ F,0,0,1,0,0,0,1 @ F,0,0,1,0,0,0,1 @ F,0,0,1,0,0,0,1 @ F,0,0,1,0,0,0,1 @ F,0,0,1,0,0,0,1 @ F,0,0,1,0,0,0,1 @ F,0,0,1,0,0,0,1 | F,0,0,1,0,0,0,1 @ F,0,0,1,0,0,0,1 @ F,0,0,1,0,0,0,1 @ F,0,0,1,0,0,0,1"
       is_visible="true"
       lpeversion="1"
       radius="0"
       unit="px"
       method="auto"
       mode="F"
       chamfer_steps="1"
       flexible="false"
       use_knot_distance="true"
       apply_no_radius="true"
       apply_with_radius="true"
       only_selected="false"
       hide_knots="false" />
    <inkscape:path-effect
       effect="fillet_chamfer"
       id="path-effect10"
       is_visible="true"
       lpeversion="1"
       nodesatellites_param="F,0,0,1,0,10,0,1 @ F,0,0,1,0,10,0,1 @ F,0,0,1,0,10,0,1 @ F,0,0,1,0,10,0,1 @ F,0,0,1,0,10,0,1 @ F,0,0,1,0,10,0,1 @ F,0,0,1,0,10,0,1 @ F,0,0,1,0,10,0,1 @ F,0,0,1,0,10,0,1 @ F,0,0,1,0,10,0,1 @ F,0,0,1,0,10,0,1 @ F,0,0,1,0,10,0,1 @ F,0,0,1,0,10,0,1 @ F,0,0,1,0,10,0,1"
       radius="10"
       unit="px"
       method="auto"
       mode="F"
       chamfer_steps="1"
       flexible="false"
       use_knot_distance="true"
       apply_no_radius="true"
       apply_with_radius="true"
       only_selected="false"
       hide_knots="false" />
    <inkscape:path-effect
       effect="fillet_chamfer"
       id="path-effect1"
       is_visible="true"
       lpeversion="1"
       nodesatellites_param="F,0,0,1,0,0,0,1 @ F,0,0,1,0,0,0,1 @ F,0,0,1,0,0,0,1 @ F,0,0,1,0,0,0,1 @ F,0,0,1,0,0,0,1 @ F,0,0,1,0,0,0,1 @ F,0,0,1,0,0,0,1 @ F,0,0,1,0,0,0,1 @ F,0,0,1,0,0,0,1 @ F,0,0,1,0,0,0,1"
       radius="0"
       unit="px"
       method="auto"
       mode="F"
       chamfer_steps="1"
       flexible="false"
       use_knot_distance="true"
       apply_no_radius="true"
       apply_with_radius="true"
       only_selected="false"
       hide_knots="false" />
    <clipPath
       clipPathUnits="userSpaceOnUse"
       id="clipPath9430">
      <path
         sodipodi:nodetypes="sssssssss"
         inkscape:connector-curvature="0"
         id="path9432"
         d="m 166.0625,-196 h 179.875 C 491.2348,-196 512,-175.28677 512,-30.125 v 148.25 C 512,263.28618 491.2348,284 345.9375,284 H 166.0625 C 20.7652,284 0,263.28618 0,118.125 V -30.125 C 0,-175.28677 20.7652,-196 166.0625,-196 Z"
         style="color:#000000;display:inline;overflow:visible;visibility:visible;fill:#ffffff;fill-opacity:1;fill-rule:nonzero;stroke:none;stroke-width:1;marker:none;enable-background:new" />
    </clipPath>
    <clipPath
       clipPathUnits="userSpaceOnUse"
       id="clipPath1082">
      <path
         sodipodi:nodetypes="sssssssss"
         inkscape:connector-curvature="0"
         id="path1084"
         d="M 361.9375,-212 C 507.2348,-212 528,-191.28677 528,-46.125 V 70.125 C 528,215.28618 507.2348,236 361.9375,236 H 214.0625 C 68.7652,236 48,215.28618 48,70.125 V -46.125 C 48,-191.28677 68.7652,-212 214.0625,-212 Z"
         style="display:inline;opacity:1;fill:#8c59d9;fill-opacity:1;stroke:none;stroke-width:2;stroke-linecap:round;stroke-linejoin:round;stroke-miterlimit:4;stroke-dasharray:none;stroke-dashoffset:0;stroke-opacity:1;enable-background:new" />
    </clipPath>
    <clipPath
       clipPathUnits="userSpaceOnUse"
       id="clipPath994">
      <path
         style="color:#000000;display:inline;overflow:visible;visibility:visible;fill:#cdcdcd;fill-opacity:1;fill-rule:nonzero;stroke:none;stroke-width:2;stroke-miterlimit:4;stroke-dasharray:none;stroke-opacity:1;marker:none;enable-background:accumulate"
         d="m 335.73108,62 c -8.82418,0 -9.77365,0.90635 -9.7304,9.74838 V 84 96.25162 c -0.0433,8.84203 0.90622,9.74838 9.7304,9.74838 h 16.53919 c 8.82418,0 9.7304,-0.90625 9.7304,-9.74838 V 84 71.74838 C 362.00067,62.90625 361.09445,62 352.27027,62 Z"
         id="path996"
         inkscape:connector-curvature="0"
         sodipodi:nodetypes="scccssscsss" />
    </clipPath>
    <clipPath
       clipPathUnits="userSpaceOnUse"
       id="clipPath959">
      <path
         style="color:#000000;display:inline;overflow:visible;visibility:visible;opacity:1;fill:#46a926;fill-opacity:1;fill-rule:nonzero;stroke:none;stroke-width:2;stroke-miterlimit:4;stroke-dasharray:none;stroke-opacity:1;marker:none;enable-background:accumulate"
         d="m 330.1929,133.99999 c -5.61538,0 -6.21958,0.57678 -6.19206,6.20352 v 7.79648 7.79648 c -0.0276,5.62673 0.57668,6.20351 6.19206,6.20351 h 11.615 c 5.6154,0 6.19208,-0.5767 6.19208,-6.20351 v -7.79648 -7.79648 c 0,-5.6268 -0.5767,-6.20352 -6.19208,-6.20352 z"
         id="path961"
         inkscape:connector-curvature="0"
         sodipodi:nodetypes="scccssscsss" />
    </clipPath>
    <clipPath
       clipPathUnits="userSpaceOnUse"
       id="clipPath971">
      <path
         style="color:#000000;display:inline;overflow:visible;visibility:visible;opacity:1;fill:#46a926;fill-opacity:1;fill-rule:nonzero;stroke:none;stroke-width:2;stroke-miterlimit:4;stroke-dasharray:none;stroke-opacity:1;marker:none;enable-background:accumulate"
         d="m 327.8652,189 c -4.41209,0 -4.88682,0.45318 -4.8652,4.87419 V 200 206.12581 C 322.9783,210.54682 323.45311,211 327.8652,211 h 8.2696 C 340.54689,211 341,210.54688 341,206.12581 V 200 193.87419 C 341,189.45313 340.54688,189 336.13479,189 Z"
         id="path973"
         inkscape:connector-curvature="0"
         sodipodi:nodetypes="scccssscsss" />
    </clipPath>
    <clipPath
       clipPathUnits="userSpaceOnUse"
       id="clipPath983">
      <path
         sodipodi:nodetypes="scccssscsss"
         inkscape:connector-curvature="0"
         id="path985"
         d="m 325.09646,237 c -2.80769,0 -3.10979,0.28839 -3.09603,3.10176 V 244 v 3.89824 c -0.0138,2.81337 0.28834,3.10176 3.09603,3.10176 h 5.8075 C 333.71166,251 334,250.71165 334,247.89824 V 244 240.10176 C 334,237.28836 333.71165,237 330.90396,237 Z"
         style="color:#000000;display:inline;overflow:visible;visibility:visible;opacity:1;fill:#46a926;fill-opacity:1;fill-rule:nonzero;stroke:none;stroke-width:2;stroke-miterlimit:4;stroke-dasharray:none;stroke-opacity:1;marker:none;enable-background:accumulate" />
    </clipPath>
    <linearGradient
       id="linearGradient4336-3">
      <stop
         style="stop-color:#5884f4;stop-opacity:1"
         offset="0"
         id="stop4338-8" />
      <stop
         id="stop4344-3"
         offset="0.27800092"
         style="stop-color:#5884f4;stop-opacity:1" />
      <stop
         style="stop-color:#2f5fdd;stop-opacity:1"
         offset="0.27800092"
         id="stop4346-3" />
      <stop
         id="stop4350-1"
         offset="0.70735365"
         style="stop-color:#2f5fdd;stop-opacity:1" />
      <stop
         id="stop4348-6"
         offset="0.70936078"
         style="stop-color:#234db8;stop-opacity:1" />
      <stop
         style="stop-color:#234db8;stop-opacity:1"
         offset="1"
         id="stop4340-0" />
    </linearGradient>
    <clipPath
       clipPathUnits="userSpaceOnUse"
       id="clipPath994-1">
      <path
         style="color:#000000;display:inline;overflow:visible;visibility:visible;fill:#cdcdcd;fill-opacity:1;fill-rule:nonzero;stroke:none;stroke-width:2;stroke-miterlimit:4;stroke-dasharray:none;stroke-opacity:1;marker:none;enable-background:accumulate"
         d="m 335.73108,62 c -8.82418,0 -9.77365,0.90635 -9.7304,9.74838 V 84 96.25162 c -0.0433,8.84203 0.90622,9.74838 9.7304,9.74838 h 16.53919 c 8.82418,0 9.7304,-0.90625 9.7304,-9.74838 V 84 71.74838 C 362.00067,62.90625 361.09445,62 352.27027,62 Z"
         id="path996-8"
         inkscape:connector-curvature="0"
         sodipodi:nodetypes="scccssscsss" />
    </clipPath>
    <linearGradient
       inkscape:collect="always"
       id="linearGradient927">
      <stop
         style="stop-color:#ffffff;stop-opacity:1;"
         offset="0"
         id="stop923" />
      <stop
         id="stop933"
         offset="0.125"
         style="stop-color:#ffffff;stop-opacity:0.09803922" />
      <stop
         id="stop931"
         offset="0.92500001"
         style="stop-color:#ffffff;stop-opacity:0.09803922" />
      <stop
         style="stop-color:#ffffff;stop-opacity:0.49803922"
         offset="1"
         id="stop925" />
    </linearGradient>
    <clipPath
       clipPathUnits="userSpaceOnUse"
       id="clipPath994-1-2">
      <path
         style="color:#000000;display:inline;overflow:visible;visibility:visible;fill:#cdcdcd;fill-opacity:1;fill-rule:nonzero;stroke:none;stroke-width:2;stroke-miterlimit:4;stroke-dasharray:none;stroke-opacity:1;marker:none;enable-background:accumulate"
         d="m 335.73108,62 c -8.82418,0 -9.77365,0.90635 -9.7304,9.74838 V 84 96.25162 c -0.0433,8.84203 0.90622,9.74838 9.7304,9.74838 h 16.53919 c 8.82418,0 9.7304,-0.90625 9.7304,-9.74838 V 84 71.74838 C 362.00067,62.90625 361.09445,62 352.27027,62 Z"
         id="path996-8-2"
         inkscape:connector-curvature="0"
         sodipodi:nodetypes="scccssscsss" />
    </clipPath>
    <clipPath
       clipPathUnits="userSpaceOnUse"
       id="clipPath994-1-2-9">
      <path
         style="color:#000000;display:inline;overflow:visible;visibility:visible;fill:#cdcdcd;fill-opacity:1;fill-rule:nonzero;stroke:none;stroke-width:2;stroke-miterlimit:4;stroke-dasharray:none;stroke-opacity:1;marker:none;enable-background:accumulate"
         d="m 335.73108,62 c -8.82418,0 -9.77365,0.90635 -9.7304,9.74838 V 84 96.25162 c -0.0433,8.84203 0.90622,9.74838 9.7304,9.74838 h 16.53919 c 8.82418,0 9.7304,-0.90625 9.7304,-9.74838 V 84 71.74838 C 362.00067,62.90625 361.09445,62 352.27027,62 Z"
         id="path996-8-2-4"
         inkscape:connector-curvature="0"
         sodipodi:nodetypes="scccssscsss" />
    </clipPath>
    <inkscape:path-effect
       effect="fillet_chamfer"
       id="path-effect1-7"
       is_visible="true"
       lpeversion="1"
       nodesatellites_param="F,0,0,1,0,0,0,1 @ F,0,0,1,0,0,0,1 @ F,0,0,1,0,0,0,1 @ F,0,0,1,0,0,0,1 @ F,0,0,1,0,0,0,1 @ F,0,0,1,0,0,0,1 @ F,0,0,1,0,0,0,1 @ F,0,0,1,0,0,0,1 @ F,0,0,1,0,0,0,1 @ F,0,0,1,0,0,0,1"
       radius="0"
       unit="px"
       method="auto"
       mode="F"
       chamfer_steps="1"
       flexible="false"
       use_knot_distance="true"
       apply_no_radius="true"
       apply_with_radius="true"
       only_selected="false"
       hide_knots="false" />
    <inkscape:path-effect
       effect="fillet_chamfer"
       id="path-effect1-6"
       is_visible="true"
       lpeversion="1"
       nodesatellites_param="F,0,0,1,0,0,0,1 @ F,0,0,1,0,0,0,1 @ F,0,0,1,0,0,0,1 @ F,0,0,1,0,0,0,1 @ F,0,0,1,0,0,0,1 @ F,0,0,1,0,0,0,1 @ F,0,0,1,0,0,0,1 @ F,0,0,1,0,0,0,1 @ F,0,0,1,0,0,0,1 @ F,0,0,1,0,0,0,1"
       radius="0"
       unit="px"
       method="auto"
       mode="F"
       chamfer_steps="1"
       flexible="false"
       use_knot_distance="true"
       apply_no_radius="true"
       apply_with_radius="true"
       only_selected="false"
       hide_knots="false" />
    <linearGradient
       id="SVGID_9_"
       gradientUnits="userSpaceOnUse"
       x1="136.6797"
       y1="229.4668"
       x2="136.6797"
       y2="39.9458">
      <stop
         offset="0"
         style="stop-color:#404346;stop-opacity:1;"
         id="stop15" />
      <stop
         offset="1"
         style="stop-color:#FFFFFF"
         id="stop16" />
    </linearGradient>
    <clipPath
       id="SVGID_6_"
       clip-path="url(#SVGID_5_)">
      <path
         id="use6"
         d="M 245.46,129.523 147.569,32.625 c -5.556,-5.502 -16.222,-11.873 -23.7,-14.16 L 84.351,6.382 C 76.872,4.096 66.255,6.773 60.752,12.33 L 47.311,25.908 c -5.5,5.559 -14.502,14.653 -20.005,20.21 l -13.44,13.579 c -5.5,5.558 -8.07,16.206 -5.706,23.658 l 12.483,39.391 c 2.363,7.456 8.843,18.056 14.399,23.556 l 97.89,96.898 c 5.558,5.502 14.605,5.455 20.105,-0.101 l 36.26,-36.63 c 5.504,-5.559 14.503,-14.651 20.005,-20.209 l 36.259,-36.629 c 5.502,-5.56 5.455,-14.606 -0.101,-20.108 z M 67.375,78.783 c -7.198,0 -13.033,-5.835 -13.033,-13.033 0,-7.197 5.835,-13.033 13.033,-13.033 7.197,0 13.033,5.835 13.033,13.033 -0.001,7.198 -5.836,13.033 -13.033,13.033 z" />
    </clipPath>
    <linearGradient
       inkscape:collect="always"
       xlink:href="#linearGradient4"
       id="linearGradient41"
       gradientUnits="userSpaceOnUse"
       gradientTransform="matrix(0.12946065,0,0,0.12946065,316.32283,127.80325)"
       x1="162.89204"
       y1="88"
       x2="143.63168"
       y2="56" />
    <linearGradient
       inkscape:collect="always"
       xlink:href="#SVGID_9_"
       id="linearGradient42"
       gradientUnits="userSpaceOnUse"
       gradientTransform="matrix(0.12946065,0,0,0.12946065,316.32283,127.80325)"
       x1="146.29262"
       y1="60.121094"
       x2="157.62514"
       y2="83.878906" />
    <linearGradient
       inkscape:collect="always"
       xlink:href="#linearGradient927"
       id="linearGradient54"
       x1="336"
       y1="133.5"
       x2="336"
       y2="162.49809"
       gradientUnits="userSpaceOnUse" />
    <linearGradient
       inkscape:collect="always"
       xlink:href="#linearGradient4"
       id="linearGradient57"
       gradientUnits="userSpaceOnUse"
       gradientTransform="matrix(0.10307662,0,0,0.10267645,316.33276,183.98204)"
       x1="162.89204"
       y1="88"
       x2="143.63168"
       y2="56" />
    <linearGradient
       inkscape:collect="always"
       xlink:href="#SVGID_9_"
       id="linearGradient58"
       gradientUnits="userSpaceOnUse"
       gradientTransform="matrix(0.10307662,0,0,0.10267645,316.33276,183.98204)"
       x1="146.29262"
       y1="60.121094"
       x2="157.62514"
       y2="83.878906" />
    <linearGradient
       inkscape:collect="always"
       xlink:href="#linearGradient927"
       id="linearGradient68"
       x1="332"
       y1="188.5"
       x2="332"
       y2="212"
       gradientUnits="userSpaceOnUse" />
    <linearGradient
       inkscape:collect="always"
       xlink:href="#linearGradient4"
       id="linearGradient1"
       gradientUnits="userSpaceOnUse"
       gradientTransform="matrix(0.06442289,0,0,0.06417278,318.40614,234.87899)"
       x1="162.89204"
       y1="88"
       x2="143.63168"
       y2="56" />
    <linearGradient
       inkscape:collect="always"
       xlink:href="#SVGID_9_"
       id="linearGradient3"
       gradientUnits="userSpaceOnUse"
       gradientTransform="matrix(0.06442289,0,0,0.06417278,318.40614,234.87899)"
       x1="146.29262"
       y1="60.121094"
       x2="157.62514"
       y2="83.878906" />
    <linearGradient
       inkscape:collect="always"
       xlink:href="#linearGradient927"
       id="linearGradient30"
       x1="328.19824"
       y1="238.20312"
       x2="328.19824"
       y2="251.57814"
       gradientUnits="userSpaceOnUse" />
    <linearGradient
       inkscape:collect="always"
       xlink:href="#linearGradient69"
       id="linearGradient86"
       gradientUnits="userSpaceOnUse"
       gradientTransform="matrix(1,0,0,-1,7.7e-6,142.17579)"
       x1="331.93137"
       y1="80.580391"
       x2="353.87698"
       y2="35.582039" />
    <linearGradient
       inkscape:collect="always"
       xlink:href="#linearGradient927"
       id="linearGradient98"
       x1="344.01758"
       y1="62.095703"
       x2="344.01562"
       y2="106.09375"
       gradientUnits="userSpaceOnUse" />
    <linearGradient
       inkscape:collect="always"
       xlink:href="#linearGradient9"
       id="linearGradient11"
       x1="344.0191"
       y1="75.596329"
       x2="344.01758"
       y2="66.587891"
       gradientUnits="userSpaceOnUse" />
    <filter
       inkscape:collect="always"
       style="color-interpolation-filters:sRGB"
       id="filter17"
       x="-0.048000002"
       y="-0.048000002"
       width="1.096"
       height="1.096">
      <feGaussianBlur
         inkscape:collect="always"
         stdDeviation="1.44"
         id="feGaussianBlur17" />
    </filter>
    <linearGradient
       inkscape:collect="always"
       xlink:href="#linearGradient19"
       id="linearGradient20"
       x1="152.05273"
       y1="66.869141"
       x2="152.18164"
       y2="115.86914"
       gradientUnits="userSpaceOnUse"
       gradientTransform="translate(0.11722,0.117187)" />
    <linearGradient
       inkscape:collect="always"
       xlink:href="#linearGradient27"
       id="linearGradient25"
       gradientUnits="userSpaceOnUse"
       gradientTransform="matrix(4.9780285,0,0,-4.9780285,-1560.5297,445.13004)"
       x1="331.93137"
       y1="80.580391"
       x2="353.87698"
       y2="35.582039" />
    <linearGradient
       inkscape:collect="always"
       xlink:href="#linearGradient35"
       id="linearGradient36"
       x1="152.27934"
       y1="108.41991"
       x2="152.18945"
       y2="74.552734"
       gradientUnits="userSpaceOnUse" />
    <linearGradient
       inkscape:collect="always"
       xlink:href="#linearGradient2"
       id="linearGradient70"
       x1="108.08458"
       y1="44"
       x2="201.08398"
       y2="268"
       gradientUnits="userSpaceOnUse" />
    <filter
       style="color-interpolation-filters:sRGB;"
       inkscape:label="Drop Shadow"
       id="filter91"
       x="-0.026784073"
       y="-0.040655797"
       width="1.0535681"
       height="1.069354">
      <feFlood
         result="flood"
         in="SourceGraphic"
         flood-opacity="0.074510"
         flood-color="rgb(0,0,0)"
         id="feFlood90" />
      <feGaussianBlur
         result="blur"
         in="SourceGraphic"
         stdDeviation="1.000000"
         id="feGaussianBlur90" />
      <feOffset
         result="offset"
         in="blur"
         dx="0.000000"
         dy="-1.000000"
         id="feOffset90" />
      <feComposite
         result="comp1"
         operator="out"
         in="flood"
         in2="offset"
         id="feComposite90" />
      <feComposite
         result="comp2"
         operator="atop"
         in="comp1"
         in2="SourceGraphic"
         id="feComposite91" />
    </filter>
    <linearGradient
       inkscape:collect="always"
       xlink:href="#linearGradient13"
       id="linearGradient12"
       x1="152.2207"
       y1="130.85547"
       x2="152.2207"
       y2="51.648438"
       gradientUnits="userSpaceOnUse" />
  </defs>
  <metadata
     id="metadata4">
    <rdf:RDF>
      <cc:Work
         rdf:about="">
        <dc:format>image/svg+xml</dc:format>
        <dc:type
           rdf:resource="http://purl.org/dc/dcmitype/StillImage" />
        <dc:creator>
          <cc:Agent>
            <dc:title>Yaru Team, based on the Suru template by Sam Hewitt</dc:title>
          </cc:Agent>
        </dc:creator>
        <dc:source />
        <dc:title>Yaru Icon Theme Template</dc:title>
        <dc:subject>
          <rdf:Bag />
        </dc:subject>
        <dc:date />
        <dc:rights>
          <cc:Agent>
            <dc:title />
          </cc:Agent>
        </dc:rights>
        <dc:publisher>
          <cc:Agent>
            <dc:title />
          </cc:Agent>
        </dc:publisher>
        <dc:identifier />
        <dc:relation />
        <dc:language />
        <dc:coverage />
        <dc:description />
        <dc:contributor>
          <cc:Agent>
            <dc:title />
          </cc:Agent>
        </dc:contributor>
        <cc:license
           rdf:resource="http://creativecommons.org/licenses/by-sa/4.0/" />
      </cc:Work>
      <cc:Work
         rdf:about="">
        <dc:format>image/svg+xml</dc:format>
        <dc:type
           rdf:resource="http://purl.org/dc/dcmitype/StillImage" />
      </cc:Work>
      <cc:License
         rdf:about="http://creativecommons.org/licenses/by-sa/4.0/">
        <cc:permits
           rdf:resource="http://creativecommons.org/ns#Reproduction" />
        <cc:permits
           rdf:resource="http://creativecommons.org/ns#Distribution" />
        <cc:requires
           rdf:resource="http://creativecommons.org/ns#Notice" />
        <cc:requires
           rdf:resource="http://creativecommons.org/ns#Attribution" />
        <cc:permits
           rdf:resource="http://creativecommons.org/ns#DerivativeWorks" />
        <cc:requires
           rdf:resource="http://creativecommons.org/ns#ShareAlike" />
      </cc:License>
    </rdf:RDF>
  </metadata>
  <g
     style="display:inline"
     inkscape:groupmode="layer"
     inkscape:label="Icon"
     id="layer1">
    <g
       style="display:inline"
       inkscape:label="Baseplate"
       id="layer7"
       inkscape:groupmode="layer">
      <text
         y="-8.2548828"
         xml:space="preserve"
         x="19.006836"
         style="font-style:normal;font-variant:normal;font-weight:normal;font-stretch:normal;line-height:0%;font-family:'DejaVu Sans';-inkscape-font-specification:'DejaVu Sans';display:inline;fill:#000000;fill-opacity:1;stroke:none;enable-background:new"
         inkscape:label="context"
         id="context"><tspan
           style="font-style:normal;font-variant:normal;font-weight:normal;font-stretch:normal;font-size:18px;line-height:1.25;font-family:'DejaVu Sans';-inkscape-font-specification:'DejaVu Sans'"
           y="-8.2548828"
           x="19.006836"
           sodipodi:role="line"
           id="tspan3933">apps</tspan></text>
      <text
         y="-8.2548828"
         xml:space="preserve"
         x="146.48828"
         style="font-style:normal;font-variant:normal;font-weight:bold;font-stretch:normal;line-height:0%;font-family:'DejaVu Sans';-inkscape-font-specification:'DejaVu Sans Bold';text-align:start;writing-mode:lr-tb;text-anchor:start;display:inline;fill:#000000;fill-opacity:1;stroke:none;enable-background:new"
         inkscape:label="icon-name"
         id="icon-name"><tspan
           style="font-style:normal;font-variant:normal;font-weight:bold;font-stretch:normal;font-size:18px;line-height:1.25;font-family:'DejaVu Sans';-inkscape-font-specification:'DejaVu Sans Bold'"
           y="-8.2548828"
           x="146.48828"
           sodipodi:role="line"
           id="tspan3937">app-name</tspan></text>
      <rect
         style="display:inline;overflow:visible;visibility:visible;fill:#cdcdcd;fill-opacity:0;fill-rule:nonzero;stroke:none;stroke-width:2;marker:none;enable-background:accumulate"
         id="rect16x16"
         width="16"
         height="16"
         x="320.19803"
         y="236.89021"
         inkscape:label="16x16"
         inkscape:export-filename="../YaruX/apps/16/easytag.png"
         inkscape:export-xdpi="96"
         inkscape:export-ydpi="96" />
      <rect
         style="display:inline;overflow:visible;visibility:visible;fill:#cdcdcd;fill-opacity:0;fill-rule:nonzero;stroke:none;stroke-width:2;marker:none;enable-background:accumulate"
         id="rect24x24"
         width="24"
         height="24"
         x="320"
         y="188"
         inkscape:label="24x24"
         inkscape:export-filename="../YaruX/apps/24/easytag.png"
         inkscape:export-xdpi="96"
         inkscape:export-ydpi="96" />
      <rect
         style="display:inline;overflow:visible;visibility:visible;fill:#cdcdcd;fill-opacity:0.0015274;fill-rule:nonzero;stroke:none;stroke-width:2;marker:none;enable-background:accumulate"
         id="rect32x32"
         width="32"
         height="32"
         x="320"
         y="132"
         inkscape:label="32x32"
         inkscape:export-filename="../YaruX/apps/32/easytag.png"
         inkscape:export-xdpi="96"
         inkscape:export-ydpi="96" />
      <rect
         inkscape:label="48x48"
         y="60"
         x="320"
         height="48"
         width="48"
         id="rect48x48"
         style="display:inline;overflow:visible;visibility:visible;fill:#8c8c8c;fill-opacity:0.00261933;fill-rule:nonzero;stroke:none;stroke-width:2;marker:none;enable-background:accumulate"
         inkscape:export-filename="../UbuntuProjects/YaruX/apps/48/app.drey.EarTag.png"
         inkscape:export-xdpi="96"
         inkscape:export-ydpi="96" />
      <rect
         style="display:inline;overflow:visible;visibility:visible;fill:#cdcdcd;fill-opacity:0;fill-rule:nonzero;stroke:none;stroke-width:2;marker:none;enable-background:accumulate"
         id="rect3951"
         width="256"
         height="256"
         x="24"
         y="28"
         inkscape:label="48x48"
         inkscape:export-filename="../UbuntuProjects/YaruX/apps/256/app.drey.EarTag.png"
         inkscape:export-xdpi="96"
         inkscape:export-ydpi="96" />
    </g>
    <g
       inkscape:groupmode="layer"
       id="layer8"
       inkscape:label="Backgrounds"
       style="display:inline">
      <path
         d="m 344.21408,62.00173 c -2.58051,0 -5.07902,0.952344 -6.96485,2.636719 l -0.002,0.002 -0.002,0.0039 c -0.0582,0.05344 -0.12853,0.113392 -0.20312,0.185547 -0.11084,0.104809 -0.20576,0.207154 -0.29298,0.296875 l -0.002,0.002 -0.002,0.002 c -1.47633,1.558729 -2.46375,3.591165 -2.69336,5.847656 v 0.002 0.002 c -0.0318,0.332644 -0.0511,0.673247 -0.0508,1.02539 v 1.902344 c 1.9e-4,1.659581 -0.68187,3.245432 -1.88672,4.386719 l -4.92969,4.669922 c -1.40391,1.329856 -2.19944,3.179486 -2.19922,5.113286 v 9.578115 c 0,1.106107 -0.0118,2.903587 0.0293,4.035157 0.085,2.35069 0.36373,3.9044 1.36523,4.9082 1.00152,1.00379 2.5513,1.28385 4.89649,1.36914 0.80034,0.029 1.87403,0.0301 2.86133,0.0293 0.72893,0.002 1.45818,0 2.01172,0 h 15.70117 c 0.55295,0 1.27956,0.002 2.00781,0 h 0.002 c 0.98816,8.1e-4 2.06054,-1.1e-4 2.86134,-0.0293 2.34795,-0.0852 3.90292,-0.36559 4.9082,-1.36914 1.0053,-1.00357 1.28691,-2.55852 1.36329,-4.91016 0.0367,-1.13064 0.0215,-2.92813 0.0215,-4.033197 v -9.544915 c 1.1e-4,-1.93374 -0.79541,-3.78337 -2.19922,-5.113283 l -4.92773,-4.669922 c -1.20479,-1.141362 -1.88682,-2.72714 -1.88673,-4.386719 v -1.935775 c -0.002,-5.430013 -4.34683,-9.876977 -9.77524,-10.005859 h -0.006 z m -0.2207,7.492187 h 0.0156 c 1.382,-3.45e-4 2.49194,1.109934 2.49219,2.492188 v 0.01563 c -7.7e-4,0.701997 -0.29823,1.370586 -0.81836,1.841797 l -0.002,0.002 c -0.45731,0.416378 -1.05311,0.646973 -1.67188,0.648437 h -0.0137 -0.002 c -0.6198,-0.0047 -1.21672,-0.240102 -1.67188,-0.660156 l -0.002,-0.002 v -0.002 c -0.51721,-0.468528 -0.81421,-1.133768 -0.81836,-1.832031 v -0.01172 c 2.3e-4,-1.381598 1.11058,-2.491964 2.49219,-2.492188 z"
         style="display:inline;opacity:0.1;enable-background:new"
         id="path1" />
      <path
         style="display:inline;opacity:1;fill:#ffffff;fill-opacity:1;stroke:none;stroke-width:1;stroke-linecap:round;stroke-linejoin:round;stroke-miterlimit:4;stroke-dasharray:none;stroke-opacity:1;enable-background:new"
         id="path11042-5"
         r="112"
         cy="156"
         cx="152"
         d=""
         inkscape:connector-curvature="0" />
      <path
         d="m 336.54992,61.595402 c -1.28619,0 -2.51969,0.510905 -3.4292,1.420333 l -1.97002,1.970027 -4.22923,4.229222 c -0.90943,0.909509 -1.42033,2.143021 -1.42033,3.429203 v 1.004436 8.437252 14.665937 c 0,1.10946 -0.0105,2.90866 0.0298,4.017348 0.16747,4.63289 1.15902,5.62703 5.78061,5.79513 1.10865,0.0403 2.90788,0.0299 4.01734,0.0299 l 17.3747,4e-5 c 1.10946,0 2.90867,0.0105 4.01734,-0.0299 4.62723,-0.168 5.63878,-1.16205 5.78924,-5.79514 0.036,-1.108808 0.0213,-2.907878 0.0213,-4.017348 V 86.103615 77.666362 72.644186 c 0,-1.286301 -0.51093,-2.519915 -1.42035,-3.429596 l -1.38933,-1.389728 -2.84067,-2.841061 -1.96806,-1.968066 c -0.90951,-0.909428 -2.14302,-1.420333 -3.4292,-1.420333 z m 7.44713,2.410644 c 1.77514,7e-6 3.21418,1.439047 3.21418,3.214191 0,1.775145 -1.43904,3.214186 -3.21418,3.214193 -1.77515,4e-6 -3.2142,-1.43904 -3.2142,-3.214193 0,-1.775152 1.43905,-3.214195 3.2142,-3.214191 z"
         style="display:inline;fill:none;fill-opacity:1;stroke:#000000;stroke-width:0;enable-background:new;stroke-opacity:1"
         id="path20-6-4"
         inkscape:label="BG256"
         sodipodi:nodetypes="scccsccscssscssccsscccsssssss" />
      <path
         d="m 343.92578,61.595703 c -5.21298,0.05038 -9.41166,4.292616 -9.4082,9.505859 v 1.902344 c 2.1e-4,1.796696 -0.73857,3.514415 -2.04297,4.75 l -4.92969,4.669922 c -1.3044,1.235585 -2.04318,2.953304 -2.04297,4.75 v 9.578125 c 0,1.109432 -0.011,2.908936 0.0293,4.017577 0.16747,4.63276 1.15979,5.62684 5.78125,5.79492 0.78509,0.0285 1.85673,0.0301 2.84375,0.0293 0.72711,0.002 1.45503,0 2.00977,0 h 15.70117 c 0.55417,0 1.2814,0.002 2.00781,0 h 0.002 c 0.98734,8.1e-4 2.05885,-6.9e-4 2.84375,-0.0293 4.62711,-0.16798 5.63861,-1.16195 5.78907,-5.79492 0.036,-1.108774 0.0215,-2.908143 0.0215,-4.017577 v -9.544922 c 10e-5,-1.796672 -0.73867,-3.514347 -2.04297,-4.75 l -4.92773,-4.669922 c -1.3043,-1.235651 -2.04307,-2.953326 -2.04297,-4.75 v -1.935547 c -0.002,-5.164063 -4.12452,-9.383288 -9.28711,-9.505859 z m 0.084,6.492188 h 0.0156 c 1.65242,-4.14e-4 2.99191,1.339766 2.99219,2.992187 v 0.01563 c -9.2e-4,0.842804 -0.35781,1.647039 -0.98242,2.212891 -0.54969,0.50049 -1.26637,0.778097 -2.00977,0.779297 h -0.0156 c -0.7448,-0.0051 -1.46242,-0.287832 -2.00977,-0.792969 -0.62113,-0.562672 -0.97742,-1.361145 -0.98242,-2.199219 v -0.01563 c 2.8e-4,-1.651939 1.34024,-2.99192 2.99219,-2.992187 z"
         style="display:inline;fill:url(#linearGradient86);stroke-width:0;enable-background:new"
         id="path8" />
      <path
         d="m 344.08398,62.095703 c -2.07693,0 -4.35954,0.812702 -6.10742,2.345703 -1.74215,1.527976 -2.96108,3.759445 -2.95898,6.660156 v 1.902344 c 2.2e-4,1.933669 -0.79538,3.783501 -2.19922,5.113281 l -4.92969,4.669922 c -1.20473,1.141185 -1.88691,2.727289 -1.88672,4.386719 v 9.578125 c 0,1.108451 -0.009,2.893113 0.0293,3.980467 v 0.0117 c 6e-5,0.002 -6e-5,0.004 0,0.006 v 0.002 c 0.0827,2.28752 0.36126,3.52175 1.07422,4.23633 0.71298,0.71462 1.94482,0.99322 4.22656,1.07617 0.76932,0.0279 1.83763,0.0301 2.82422,0.0293 0.72529,0.002 1.45382,0 2.00977,0 h 15.70117 c 0.55538,0 1.28324,0.002 2.00781,0 h 0.002 c 0.98697,8e-4 2.0553,-0.001 2.82422,-0.0293 2.28485,-0.0829 3.524,-0.36312 4.24024,-1.07812 0.7154,-0.71419 0.99414,-1.94775 1.06836,-4.23438 0.0353,-1.087358 0.0215,-2.885763 0.0215,-3.999997 v -9.544922 c 9e-5,-1.65941 -0.68206,-3.245461 -1.88672,-4.386719 l -4.92773,-4.669921 c -1.4037,-1.329838 -2.19933,-3.179668 -2.19922,-5.113282 v -1.935547 c -9.6e-4,-3.015212 -1.30241,-5.243571 -3.07031,-6.74414 -1.77586,-1.507326 -4.03023,-2.261719 -5.86329,-2.261719 z m 0,1 c 1.54955,0 3.6369,0.684094 5.21485,2.023438 1.58591,1.346099 2.71788,3.249271 2.71875,5.982421 v 1.935547 c -1.3e-4,2.208026 0.90882,4.321292 2.51172,5.839844 l 4.92773,4.669922 c 1.00586,0.952927 1.57429,2.274578 1.57422,3.660156 v 9.544922 c 0,1.122044 0.0124,2.926151 -0.0215,3.968747 -0.0716,2.20565 -0.41155,3.19538 -0.7754,3.5586 -0.36301,0.36239 -1.36378,0.70511 -3.56835,0.78515 -0.7372,0.0267 -1.80458,0.0301 -2.78907,0.0293 h -0.004 -0.002 c -0.72086,0.002 -1.44613,0 -2.0039,0 h -15.70117 c -0.55834,0 -1.28428,0.002 -2.00586,0 h -0.002 -0.002 c -0.98411,8e-4 -2.05144,-0.003 -2.78906,-0.0293 -2.20177,-0.08 -3.19355,-0.42124 -3.55469,-0.7832 -0.3606,-0.36141 -0.7007,-1.35599 -0.78125,-3.55664 v -0.01 c -0.0375,-1.039624 -0.0293,-2.844165 -0.0293,-3.962887 v -9.578125 c -1.6e-4,-1.385537 0.56833,-2.707334 1.57422,-3.660156 l 4.92969,-4.669922 c 1.60307,-1.518507 2.51197,-3.631743 2.51172,-5.839844 v -1.902344 c -0.002,-2.625001 1.06144,-4.542014 2.61914,-5.908203 1.55194,-1.361163 3.63558,-2.097656 5.44726,-2.097656 z"
         style="fill:url(#linearGradient98)"
         id="path100" />
      <path
         d="m 344.23047,61.595703 c -2.45716,0 -4.83904,0.909348 -6.63086,2.509766 -0.0658,0.06048 -0.13317,0.119345 -0.19727,0.18164 -0.0957,0.0905 -0.1854,0.186653 -0.27734,0.28125 -1.40372,1.482068 -2.34052,3.411586 -2.55859,5.554688 -0.0306,0.319615 -0.0491,0.645161 -0.0488,0.978515 v 1.902344 c 2.1e-4,1.796691 -0.73857,3.514419 -2.04297,4.75 l -4.92969,4.669922 c -1.30439,1.235581 -2.04318,2.953305 -2.04297,4.75 v 9.578125 c 0,1.109426 -0.011,2.908936 0.0293,4.017577 0.16747,4.63275 1.1598,5.62684 5.78125,5.79492 0.78509,0.0285 1.85673,0.0301 2.84375,0.0293 0.72711,0.002 1.45503,0 2.00977,0 h 15.70117 c 0.55417,0 1.2814,0.002 2.00781,0 h 0.002 c 0.98734,8.1e-4 2.05886,-6.9e-4 2.84375,-0.0293 4.6271,-0.16798 5.63861,-1.16196 5.78907,-5.79492 0.036,-1.108771 0.0215,-2.908141 0.0215,-4.017577 v -9.544922 c 10e-5,-1.796668 -0.73867,-3.51435 -2.04297,-4.75 l -4.92773,-4.669922 c -1.3043,-1.235647 -2.04307,-2.953331 -2.04297,-4.75 v -1.935547 c -0.002,-5.164047 -4.12454,-9.383288 -9.28711,-9.505859 z m -0.2207,6.492188 h 0.0156 c 1.65242,-4.14e-4 2.99191,1.339766 2.99219,2.992187 v 0.01563 c -9.2e-4,0.842804 -0.35781,1.647039 -0.98242,2.212891 -0.54969,0.50049 -1.26637,0.778097 -2.00977,0.779297 h -0.0156 c -0.7448,-0.0051 -1.46242,-0.287832 -2.00977,-0.792969 -0.62113,-0.562672 -0.97742,-1.361145 -0.98242,-2.199219 v -0.01563 c 2.8e-4,-1.651939 1.34024,-2.99192 2.99219,-2.992187 z"
         style="display:inline;opacity:0.2;fill:none;stroke:#000000;enable-background:new"
         id="path2" />
      <path
         d="m 151.54297,44 c -25.95019,0.250888 -46.85121,21.368834 -46.83399,47.320312 v 9.470708 c 0.001,8.94396 -3.67663,17.49382 -10.169918,23.64453 l -20.359375,15.6582 c -6.493293,6.15076 -10.170971,14.70257 -10.169921,23.64648 l -0.01563,55.26563 c -6e-4,2.20875 0.0054,5.16071 0.01172,8 -0.0064,1.30508 0.0059,2.47917 0.01172,3.69922 0.01042,1.76261 0.04207,3.31141 0.07227,4.90234 0.02093,1.10289 0.01668,2.46049 0.05078,3.39844 0.05105,1.41224 0.118106,2.55437 0.173828,3.83398 C 65.713155,265.30592 72.945083,268 102.92773,268 h 98.15625 c 32.5198,0 38.14272,-3.14418 38.82813,-31.28906 0.0178,-0.9115 0.0227,-1.99035 0.0332,-3.04297 0.0108,-1.07965 0.0283,-1.98083 0.0332,-3.1211 0.0103,-1.17128 0.0273,-2.29173 0.0273,-3.54101 4.7e-4,-3.565 -0.012,-6.93423 -0.0117,-8 l 0.0156,-55.10156 c 4.9e-4,-8.94381 -3.67712,-17.49348 -10.16993,-23.64453 l -20.3789,-15.65821 c -6.4928,-6.1511 -10.17042,-14.70267 -10.16992,-23.64648 V 91.320312 C 199.2811,65.613654 178.75988,44.610155 153.06055,44 Z m 0.41797,32.318359 h 0.0781 c 8.22573,-0.002 14.89353,6.668806 14.89453,14.894532 v 0.07813 c -0.005,4.195494 -1.78131,8.198769 -4.89062,11.015624 -2.73635,2.49143 -6.30326,3.87291 -10.00391,3.87891 h -0.0781 c -3.70761,-0.0249 -7.27921,-1.43269 -10.00391,-3.94727 -3.09198,-2.800971 -4.86572,-6.77531 -4.89062,-10.947264 v -0.07813 c 0.001,-8.223286 6.67114,-14.893232 14.89453,-14.894532 z"
         style="display:inline;fill:url(#linearGradient70);stroke-width:0;enable-background:new;fill-opacity:1"
         id="path15" />
      <path
         d="m 152.18945,74.552734 c -9.32465,0.0015 -16.88754,7.564134 -16.88867,16.888672 v 0.08984 c 0.0282,4.730656 2.03887,9.23603 5.54492,12.41211 3.08959,2.85134 7.13962,4.44832 11.34375,4.47656 h 0.0899 c 4.19623,-0.007 8.24095,-1.57337 11.34375,-4.39844 3.52571,-3.19409 5.53925,-7.732882 5.54492,-12.49023 v -0.08984 c -0.001,-9.327305 -7.56136,-16.89094 -16.88867,-16.888672 z m -0.22851,1.765625 h 0.0781 c 8.22571,-0.002 14.89353,6.668822 14.89453,14.894532 v 0.07813 c -0.005,4.195484 -1.78131,8.19877 -4.89062,11.015624 -2.73635,2.49142 -6.30326,3.87291 -10.00391,3.87891 h -0.0781 c -3.70761,-0.0249 -7.27921,-1.43269 -10.00391,-3.94727 -3.09198,-2.800968 -4.86572,-6.77532 -4.89062,-10.947264 v -0.07813 c 0.001,-8.22327 6.67116,-14.893232 14.89453,-14.894532 z"
         style="display:inline;fill:url(#linearGradient36);stroke-width:0;enable-background:new;fill-opacity:1"
         id="path35" />
      <path
         d="m 240.00391,225.32422 c -0.003,1.1172 -0.016,2.15668 -0.0254,3.22265 -0.005,1.14027 -0.0224,2.04145 -0.0332,3.1211 -0.0105,1.05262 -0.0154,2.13147 -0.0332,3.04297 C 239.2267,262.85579 233.60375,266 201.08398,266 h -98.15625 c -29.982612,0 -37.214618,-2.6941 -38.613277,-25.16016 -0.05572,-1.2796 -0.122728,-2.42174 -0.173828,-3.83398 -0.0341,-0.93795 -0.02988,-2.29555 -0.05078,-3.39844 -0.0302,-1.59093 -0.06187,-3.13973 -0.07227,-4.90234 -0.0057,-1.22005 -0.01772,-2.39414 -0.01172,-3.69922 -0.0064,-2.72422 -0.01182,-5.5001 -0.01172,-7.67578 v 1.67578 c -6e-4,2.20875 0.005,5.16071 0.01172,8 -0.006,1.30508 0.006,2.47917 0.01172,3.69922 0.0104,1.76261 0.04207,3.31141 0.07227,4.90234 0.0209,1.10289 0.01668,2.46049 0.05078,3.39844 0.0511,1.41224 0.118108,2.55438 0.173828,3.83398 C 65.713112,265.3059 72.945114,268 102.92773,268 h 98.15625 c 32.51977,0 38.14272,-3.14421 38.82813,-31.28906 0.0178,-0.9115 0.0227,-1.99035 0.0332,-3.04297 0.0108,-1.07965 0.0283,-1.98083 0.0332,-3.1211 0.0103,-1.17127 0.0273,-2.29173 0.0273,-3.54101 10e-5,-0.74938 -0.001,-0.96914 -0.002,-1.68164 z"
         style="display:inline;fill:url(#linearGradient25);stroke-width:0;enable-background:new;opacity:0.2"
         id="path26" />
      <path
         d="m 151.54297,44 c -25.95009,0.250887 -46.85121,21.368938 -46.83399,47.320312 V 93.28125 C 104.71302,67.347977 125.60411,46.250759 151.54102,46 h 1.51757 c 25.69924,0.610152 46.22061,21.613758 46.23047,47.320312 v 9.634768 c -5.1e-4,8.94377 3.67716,17.49541 10.16992,23.64648 l 20.37891,15.65821 c 6.49279,6.15102 10.17041,14.70075 10.16992,23.64453 l -0.0156,55.10156 c -2.5e-4,0.8701 0.007,3.73746 0.01,6.53125 6.9e-4,-0.18223 0.004,-0.34382 0.004,-0.53125 4.7e-4,-3.56499 -0.012,-6.93423 -0.0117,-8 l 0.0156,-55.10156 c 4.9e-4,-8.94378 -3.67714,-17.49351 -10.16993,-23.64453 l -20.3789,-15.65821 c -6.49278,-6.15107 -10.17042,-14.70271 -10.16992,-23.64648 V 91.320312 C 199.28082,65.613758 178.75977,44.610152 153.06055,44 Z m -46.83594,56.83008 c -0.01,8.92966 -3.68422,17.4638 -10.167968,23.60547 l -20.359375,15.6582 c -6.493263,6.15073 -10.170971,14.70261 -10.169921,23.64648 v 1.97266 c 0.0065,-8.93388 3.681373,-17.47472 10.167968,-23.61914 l 20.359375,-15.6582 c 6.493261,-6.15069 10.170921,-14.70061 10.169921,-23.64453 z"
         style="display:inline;opacity:0.4;fill:#ffffff;stroke-width:0;enable-background:new"
         id="path25" />
      <path
         d="m 149.91797,150.55078 c -9.82552,0 -17.91797,8.0925 -17.91797,17.91797 v 3 c 0,-9.82547 8.09245,-17.91797 17.91797,-17.91797 h 23.90039 c 9.82552,0 17.91797,8.0925 17.91797,17.91797 v -3 c 0,-9.82547 -8.09245,-17.91797 -17.91797,-17.91797 z"
         style="display:inline;fill:#d49500;stroke-width:2.13344;enable-background:new;fill-opacity:1;opacity:1"
         id="path69" />
      <path
         d="m 149.99609,214.77148 c 0.78127,-10.78325 9.86037,-19.40234 20.83008,-19.40234 3.20023,0 6.24218,0.73459 8.95899,2.04297 v -3 c -2.71681,-1.30838 -5.75876,-2.04102 -8.95899,-2.04102 -11.47554,0 -20.9082,9.42486 -20.9082,20.90039 0,0.5063 0.042,1.0023 0.0781,1.5 z"
         style="display:inline;fill:#d49500;stroke-width:2.13344;enable-background:new;fill-opacity:1;opacity:1"
         id="path68" />
      <path
         d="m 179.65625,214.77344 c -0.69709,4.28532 -4.32638,7.46484 -8.83008,7.46484 -4.50365,0 -8.13103,-3.17952 -8.82812,-7.46484 -0.0792,0.48708 -0.12891,0.98546 -0.12891,1.49804 0,5.02527 3.94014,8.9668 8.95703,8.9668 5.01696,0 8.95899,-3.94153 8.95899,-8.9668 0,-0.51258 -0.0497,-1.01096 -0.12891,-1.49804 z"
         style="display:inline;fill:#d49500;stroke-width:2.13344;enable-background:new;fill-opacity:1;opacity:1"
         id="path66" />
      <path
         d="m 131.86914,214.77148 c -0.69549,4.28463 -4.32404,7.4668 -8.82812,7.4668 -4.51113,0 -8.1323,-3.17962 -8.82813,-7.46484 -0.0791,0.48711 -0.13086,0.98542 -0.13086,1.49804 0,5.02521 3.93372,8.9668 8.95899,8.9668 4.9836,0 8.90918,-3.8919 8.95898,-8.86719 v -0.0996 c 0,-0.51328 -0.0514,-1.01229 -0.13086,-1.5 z"
         style="display:inline;fill:#d49500;stroke-width:2.13344;enable-background:new;fill-opacity:1;opacity:1"
         id="path65" />
      <path
         d="m 102.20898,214.77148 c 0.78127,-10.78325 9.86232,-19.40234 20.83204,-19.40234 3.20017,0 6.23381,0.73454 8.95898,2.04297 v -3 c -2.72517,-1.30843 -5.75881,-2.04102 -8.95898,-2.04102 -11.47554,0 -20.91016,9.42486 -20.91016,20.90039 0,0.5063 0.042,1.0023 0.0781,1.5 z"
         style="display:inline;fill:#d49500;stroke-width:2.13344;enable-background:new;fill-opacity:1;opacity:1"
         id="path64" />
      <path
         d="m 170.82617,204.3125 c -5.01688,0 -8.95703,3.94209 -8.95703,8.95898 0,0.51411 0.0495,1.01359 0.12891,1.50196 0.69709,4.28531 4.32448,7.46484 8.82812,7.46484 4.5037,0 8.133,-3.17953 8.83008,-7.46484 0.0794,-0.48837 0.12891,-0.98785 0.12891,-1.50196 0,-5.01689 -3.94204,-8.95898 -8.95899,-8.95898 z"
         style="display:inline;fill:#ffda64;stroke-width:2.13344;enable-background:new;fill-opacity:1"
         id="path62" />
      <path
         d="m 123.04102,204.3125 c -5.02526,0 -8.95899,3.94204 -8.95899,8.95898 0,0.51414 0.0516,1.01357 0.13086,1.50196 0.69583,4.28521 4.31701,7.46484 8.82813,7.46484 4.50407,0 8.13263,-3.18217 8.82812,-7.4668 0.074,-0.45616 0.12607,-0.92166 0.13086,-1.40039 v -0.0996 c 0,-5.01689 -3.94209,-8.95898 -8.95898,-8.95898 z"
         style="display:inline;fill:#ffda64;stroke-width:2.13344;enable-background:new;fill-opacity:1"
         id="path61" />
      <path
         d="m 149.91797,153.55078 c -9.82546,0 -17.91797,8.09256 -17.91797,17.91797 v 25.94336 c -2.72515,-1.30842 -5.75883,-2.04297 -8.95898,-2.04297 -10.96965,0 -20.05077,8.61916 -20.83204,19.40234 -0.036,0.49723 -0.0781,0.99418 -0.0781,1.5 0,11.47555 9.43466,20.90821 20.91016,20.90821 11.44214,0 20.8519,-9.37527 20.91015,-20.80078 v -0.10743 -2.89257 -41.91016 c 0,-3.36683 2.59992,-5.9668 5.9668,-5.9668 h 23.90039 c 3.36683,0 5.9668,2.59997 5.9668,5.9668 v 25.94336 c -2.71679,-1.30837 -5.75878,-2.04297 -8.95899,-2.04297 -10.96964,0 -20.04881,8.61916 -20.83008,19.40234 -0.036,0.49723 -0.0781,0.99418 -0.0781,1.5 0,11.47552 9.43273,20.90821 20.9082,20.90821 11.47547,0 20.91016,-9.4327 20.91016,-20.90821 v -3 -41.80273 c 0,-9.82541 -8.09251,-17.91797 -17.91797,-17.91797 z m -26.87695,50.76172 c 5.01687,0 8.95898,3.94211 8.95898,8.95898 v 0.0996 c -0.005,0.47872 -0.0568,0.94424 -0.13086,1.40039 0.0795,0.48771 0.13086,0.98672 0.13086,1.5 v 0.0996 c -0.0498,4.97526 -3.97541,8.86719 -8.95898,8.86719 -5.02524,0 -8.95899,-3.94162 -8.95899,-8.9668 0,-0.51261 0.0518,-1.01093 0.13086,-1.49804 -0.0793,-0.48839 -0.13086,-0.98783 -0.13086,-1.50196 0,-5.01692 3.93375,-8.95898 8.95899,-8.95898 z m 47.78515,0 c 5.01693,0 8.95899,3.94211 8.95899,8.95898 0,0.5141 -0.0495,1.0136 -0.12891,1.50196 0.0792,0.48707 0.12891,0.98547 0.12891,1.49804 0,5.02524 -3.94206,8.9668 -8.95899,8.9668 -5.01686,0 -8.95703,-3.94156 -8.95703,-8.9668 0,-0.51257 0.0497,-1.01097 0.12891,-1.49804 -0.0795,-0.48836 -0.12891,-0.98786 -0.12891,-1.50196 0,-5.01687 3.94017,-8.95898 8.95703,-8.95898 z"
         style="display:inline;fill:#f2ba02;stroke-width:2.13344;enable-background:new;fill-opacity:1;filter:url(#filter91)"
         id="path63" />
      <path
         d="M 151.90625,55.251953 C 132.08229,55.255153 116.00242,71.334486 116,91.158203 v 0.1875 c 0.0601,10.057247 4.3353,19.638347 11.78906,26.390627 6.56838,6.06185 15.17933,9.45558 24.11719,9.51562 h 0.1875 c 8.92108,-0.0144 17.52072,-3.34552 24.11719,-9.35156 C 183.70649,111.10984 187.98793,101.4597 188,91.345703 v -0.1875 c -0.002,-19.8296 -16.07664,-35.911071 -35.90625,-35.90625 z m 0.0352,13.5 h 0.11718 C 164.4521,68.74894 174.499,78.79986 174.5,91.193359 v 0.117188 c -0.008,6.321246 -2.68443,12.353563 -7.36914,16.597653 -4.12279,3.75378 -9.49659,5.83475 -15.07227,5.84375 h -0.11718 c -5.58617,-0.0375 -10.96703,-2.15861 -15.07227,-5.94726 C 132.21055,103.58452 129.5375,97.596324 129.5,91.310547 v -0.117188 c 0.002,-12.389822 10.05143,-22.439406 22.44141,-22.441406 z"
         style="display:inline;fill:#efbc1c;stroke-width:0;enable-background:new;fill-opacity:1"
         id="path13" />
      <path
         d="m 152.02347,55.369141 c -19.82396,0.0032 -35.90383,16.082533 -35.90625,35.90625 v 0.1875 c 0.0601,10.057249 4.3353,19.638349 11.78906,26.390629 6.56838,6.06185 15.17933,9.45558 24.11719,9.51562 h 0.1875 c 8.92108,-0.0144 17.52072,-3.34552 24.11719,-9.35156 7.49555,-6.79055 11.77699,-16.44069 11.78906,-26.554689 v -0.1875 c -0.002,-19.8296 -16.07664,-35.911071 -35.90625,-35.90625 z m 0.0352,13.5 h 0.11718 c 12.39347,-0.003 22.44037,10.047907 22.44137,22.441406 v 0.117188 c -0.008,6.321245 -2.68443,12.353565 -7.36914,16.597655 -4.12279,3.75378 -9.49659,5.83475 -15.07227,5.84375 h -0.11718 c -5.58617,-0.0375 -10.96703,-2.15861 -15.07227,-5.94726 -4.65859,-4.22017 -7.33164,-10.20837 -7.36914,-16.494145 v -0.117188 c 0.002,-12.389822 10.05143,-22.439406 22.44141,-22.441406 z"
         style="display:inline;fill:#000000;fill-opacity:1;stroke-width:0;enable-background:new;filter:url(#filter17);opacity:0.2"
         id="path13-9-6" />
      <path
         d="m 152.01367,51.648437 c -21.8086,0.0035 -39.49734,17.691661 -39.5,39.5 v 0.207032 c 0.0661,11.064111 4.76878,21.604931 12.96875,29.033201 7.22597,6.66874 16.69859,10.40075 26.53125,10.4668 h 0.20703 c 9.81419,-0.0158 19.27438,-3.67979 26.53125,-10.28711 8.24596,-7.47038 12.95547,-18.08635 12.96875,-29.212891 v -0.207032 c -0.002,-21.814807 -17.68517,-39.505301 -39.5,-39.5 z m 0.006,2 h 0.19531 c 20.71316,-0.005 37.50386,16.792721 37.50586,37.50586 v 0.195312 c -0.0126,10.564641 -4.48491,20.645161 -12.31445,27.738281 -6.89039,6.27365 -15.87285,9.75258 -25.19141,9.76758 h -0.19531 c -9.3361,-0.0627 -18.33036,-3.60555 -25.1914,-9.9375 -7.78589,-7.05314 -12.25166,-17.063 -12.31446,-27.568361 v -0.195312 c 0.003,-20.706998 16.79862,-37.50256 37.50586,-37.50586 z"
         style="display:inline;fill:url(#linearGradient12);stroke-width:0;enable-background:new"
         id="path9" />
      <path
         d="m 152.01953,53.648437 c -20.70724,0.0033 -37.50332,16.798862 -37.50586,37.50586 v 0.195312 c 0.0628,10.505361 4.52857,20.515221 12.31446,27.568361 6.86104,6.33195 15.8553,9.87479 25.1914,9.9375 h 0.19531 c 9.31856,-0.015 18.30102,-3.49393 25.19141,-9.76758 7.82954,-7.09312 12.30184,-17.17364 12.31445,-27.738281 V 91.154297 C 189.7187,70.441158 172.928,53.643404 152.21484,53.648437 Z m 0.0391,15.103516 h 0.11719 c 12.3934,-0.003 22.44041,10.047982 22.44141,22.441406 v 0.117188 c -0.008,6.321208 -2.68447,12.353593 -7.36914,16.597653 -4.12277,3.75376 -9.49662,5.83475 -15.07227,5.84375 h -0.11719 c -5.58613,-0.0375 -10.96705,-2.15864 -15.07226,-5.94726 -4.65857,-4.22015 -7.33164,-10.208404 -7.36914,-16.494143 v -0.117188 c 0.002,-12.389747 10.05151,-22.439406 22.4414,-22.441406 z"
         style="display:inline;fill:#fdd763;stroke-width:0;enable-background:new"
         id="path7" />
      <path
         d="m 152.16995,66.986328 c -13.49127,0.0022 -24.43336,10.944434 -24.43554,24.435546 v 0.128907 c 0.0408,6.844494 2.95076,13.363709 8.02343,17.958989 4.47014,4.12542 10.32941,6.43573 16.41211,6.47656 h 0.12891 c 6.07128,-0.01 11.92285,-2.27583 16.41211,-6.36328 5.1011,-4.62135 8.01473,-11.189145 8.02344,-18.072269 v -0.128907 c -0.001,-13.495115 -10.94046,-24.438813 -24.43555,-24.435546 z m -0.11132,1.765625 h 0.11718 c 12.39346,-0.003 22.44041,10.047919 22.44141,22.441406 v 0.117187 c -0.008,6.32124 -2.68444,12.353574 -7.36914,16.597664 -4.12279,3.75377 -9.49659,5.83475 -15.07227,5.84375 h -0.11718 c -5.58617,-0.0375 -10.96703,-2.15862 -15.07227,-5.94727 -4.65858,-4.22017 -7.33164,-10.208373 -7.36914,-16.494144 v -0.117187 c 0.002,-12.38981 10.05144,-22.439406 22.44141,-22.441406 z"
         style="display:inline;fill:url(#linearGradient20);stroke-width:0;enable-background:new"
         id="path19" />
      <path
         d="m 328.16992,188.5 c -0.65995,0 -1.29308,0.26174 -1.75976,0.72656 l -1.01172,1.00586 -2.16992,2.16211 c -0.46662,0.46486 -0.72852,1.09458 -0.72852,1.75195 v 0.51368 4.3125 7.49609 c -0.0176,4.55866 0.50262,5.03125 5.13672,5.03125 0.10849,-1.1e-4 0.24321,0 0.33594,0 h 8.05468 c 0.0932,0 0.2288,-1.1e-4 0.33789,0 4.63411,0 5.13,-0.47253 5.13477,-5.03125 v -5.44336 -4.3125 -2.56641 c 0,-0.65743 -0.2619,-1.287 -0.72852,-1.75195 l -0.71289,-0.71094 -1.45703,-1.45117 -1.01172,-1.00586 C 337.12316,188.76174 336.49198,188.5 335.83203,188.5 h -0.42969 -6.80468 z M 332,189.73242 c 0.91084,0 1.64844,0.73527 1.64844,1.64258 0,0.9073 -0.7376,1.64258 -1.64844,1.64258 -0.91084,0 -1.64844,-0.73528 -1.64844,-1.64258 0,-0.90731 0.7376,-1.64258 1.64844,-1.64258 z"
         style="display:inline;fill:#eab305;stroke:#efbc8d;stroke-width:0;enable-background:new;fill-opacity:1"
         id="path58" />
      <path
         d="m 328.16992,188.5 c -0.65995,0 -1.29309,0.26174 -1.75976,0.72656 l -1.01172,1.00586 -2.16992,2.16211 c -0.46662,0.46486 -0.72852,1.09459 -0.72852,1.75195 v 0.51368 4.3125 7.49609 c -0.0176,4.55865 0.50263,5.03125 5.13672,5.03125 0.10849,-1.1e-4 0.24321,0 0.33594,0 h 8.05468 c 0.0932,0 0.2288,-1.1e-4 0.33789,0 4.6341,0 5.13,-0.47254 5.13477,-5.03125 v -5.44336 -4.3125 -2.56641 c 0,-0.65742 -0.2619,-1.287 -0.72852,-1.75195 l -0.71289,-0.71094 -1.45703,-1.45117 -1.01172,-1.00586 C 337.12317,188.76174 336.49198,188.5 335.83203,188.5 h -0.42969 -6.80468 z"
         style="display:inline;enable-background:new;fill:none;stroke:#000000;opacity:0.4"
         id="path59" />
      <path
         d="m 328.16923,188.49996 c -0.65995,0 -1.29313,0.26093 -1.75981,0.72574 l -1.01117,1.00726 -2.16969,2.16125 c -0.46661,0.46486 -0.72857,1.09559 -0.72857,1.75297 v 0.51311 4.30055 l 0.42893,-10e-4 9.07057,-0.0379 h 9.50049 v -2.20818 -2.56655 c 0,-0.65744 -0.26195,-1.28802 -0.72858,-1.75297 l -0.71254,-0.71076 -1.45814,-1.45149 -1.01018,-1.00626 c -0.46668,-0.46481 -1.09885,-0.72574 -1.7588,-0.72574 h -0.42991 -6.80368 z m 3.83126,1.23186 c 0.0645,0 0.1278,0.005 0.1904,0.012 0.0238,0.003 0.0475,0.007 0.0711,0.011 0.0339,0.005 0.067,0.0126 0.1002,0.02 0.18609,0.0421 0.36343,0.11609 0.52412,0.21862 0.0216,0.0139 0.0432,0.0271 0.0641,0.0419 0.15326,0.10839 0.28681,0.24209 0.39485,0.39532 0.0134,0.0191 0.0263,0.0382 0.0391,0.0579 0.10241,0.15854 0.17665,0.33346 0.21948,0.5171 0.01,0.0428 0.0195,0.0857 0.0261,0.12977 0.002,0.0126 0.004,0.0252 0.006,0.0379 0.008,0.0663 0.013,0.1332 0.013,0.20165 0,0.0684 -0.005,0.1354 -0.013,0.20165 -0.002,0.0127 -0.004,0.0253 -0.006,0.0379 -0.006,0.044 -0.0161,0.087 -0.0261,0.12978 -0.0199,0.0897 -0.0475,0.17748 -0.0822,0.26255 -0.005,0.0121 -0.0117,0.023 -0.017,0.035 -0.0345,0.0761 -0.0746,0.14956 -0.12027,0.21962 -0.0126,0.0195 -0.0247,0.0389 -0.0381,0.0579 -0.10884,0.15383 -0.24342,0.28788 -0.39785,0.39631 -0.0189,0.0133 -0.0386,0.0254 -0.0581,0.0379 -0.0709,0.0459 -0.14533,0.0863 -0.22249,0.1208 -0.0115,0.005 -0.0223,0.0111 -0.0341,0.0159 -0.085,0.0345 -0.17289,0.0619 -0.26256,0.0819 -0.043,0.01 -0.0861,0.0195 -0.13028,0.026 -0.0126,0.002 -0.0254,0.004 -0.0381,0.006 -0.0665,0.008 -0.13373,0.013 -0.20244,0.013 -0.22182,0 -0.43314,-0.0447 -0.62635,-0.12378 -0.003,-5.1e-4 -0.005,-0.002 -0.007,-0.002 -0.40162,-0.16636 -0.72271,-0.48558 -0.88992,-0.88547 -5.1e-4,-0.003 -0.002,-0.005 -0.002,-0.007 -0.0795,-0.19237 -0.12428,-0.40297 -0.12428,-0.62392 0,-0.22015 0.0444,-0.42902 0.12328,-0.62092 0.002,-0.003 0.003,-0.007 0.004,-0.01 0.16706,-0.39888 0.48662,-0.71785 0.88692,-0.88447 0.006,-0.002 0.012,-0.004 0.018,-0.006 0.19085,-0.0769 0.39887,-0.12179 0.61734,-0.12179 z"
         style="display:inline;opacity:0.07;stroke:#efbc8d;stroke-width:0;enable-background:new"
         id="path24-7" />
      <path
         d="m 332.00021,189.73192 c -0.91083,0 -1.64923,0.73552 -1.64923,1.64282 0,0.9073 0.7384,1.64283 1.64923,1.64283 0.91084,0 1.64923,-0.73553 1.64923,-1.64283 0,-0.9073 -0.73839,-1.64282 -1.64923,-1.64282 z m 0,0.42314 c 0.67624,0 1.22444,0.54607 1.22444,1.21968 0,0.67362 -0.5482,1.21969 -1.22444,1.21969 -0.67623,0 -1.22443,-0.54607 -1.22443,-1.21969 0,-0.67361 0.5482,-1.21968 1.22443,-1.21968 z"
         style="display:inline;fill:url(#linearGradient57);stroke:#efbc8d;stroke-width:0;enable-background:new"
         id="path4-2-4" />
      <path
         d="m 328.16992,189 c -0.52774,0 -1.03328,0.20864 -1.40625,0.58008 l -1.01172,1.00586 -2.16992,2.16211 C 323.20909,193.11957 323,193.62193 323,194.14648 v 0.51368 4.3125 7.49609 0.002 c -0.004,1.13012 0.028,1.9934 0.13672,2.6211 0.10871,0.62769 0.28017,0.99603 0.53515,1.24414 0.25501,0.24811 0.64148,0.41885 1.28711,0.52539 0.64566,0.10657 1.52772,0.13867 2.67774,0.13867 0.10925,-1.1e-4 0.24364,0 0.33594,0 h 8.05468 c 0.0928,0 0.22806,-1.1e-4 0.33789,0 1.15003,0 2.03227,-0.0322 2.67579,-0.13867 0.64349,-0.10648 1.02375,-0.27752 1.27734,-0.52539 0.25359,-0.24787 0.42747,-0.61569 0.53711,-1.24414 0.10963,-0.62847 0.14353,-1.49244 0.14453,-2.62305 v -5.44336 -4.3125 -2.56641 c 0,-0.52463 -0.20901,-1.02676 -0.58203,-1.39843 l -0.71289,-0.71094 -1.45703,-1.45117 -1.01172,-1.00586 C 336.86286,189.20805 336.35978,189 335.83203,189 h -0.42969 -6.80468 z m 0,1 h 0.42774 6.80468 0.42969 c 0.26487,0 0.51176,0.10233 0.69922,0.28906 l 1.01172,1.00586 1.45703,1.45117 0.71289,0.71094 c 0.18632,0.18564 0.28711,0.43042 0.28711,0.68945 v 2.56641 4.3125 5.44336 c -9.8e-4,1.11107 -0.0399,1.94116 -0.12891,2.45117 -0.0902,0.51719 -0.18859,0.63925 -0.25195,0.70117 -0.0607,0.0593 -0.20625,0.16523 -0.74219,0.25391 -0.53034,0.0877 -1.38035,0.125 -2.51172,0.125 -0.11095,-1.1e-4 -0.24641,0 -0.33789,0 h -8.05468 c -0.091,0 -0.22556,-1.1e-4 -0.33594,0 h -0.002 c -1.1301,-6e-5 -1.98098,-0.0371 -2.51368,-0.125 -0.53955,-0.089 -0.69452,-0.19998 -0.75195,-0.25586 -0.061,-0.0594 -0.15828,-0.17896 -0.24805,-0.69727 -0.088,-0.50828 -0.12502,-1.33782 -0.12109,-2.44726 v -0.002 -0.004 -7.49609 -4.3125 -0.51368 c 0,-0.25881 0.10109,-0.50413 0.28711,-0.68945 l 2.16992,-2.16211 1.01172,-1.00586 c 0.1855,-0.18474 0.437,-0.28906 0.70117,-0.28906 z"
         style="display:inline;enable-background:new;fill:url(#linearGradient68)"
         id="path67" />
      <path
         d="m 332.00021,190.15506 c -0.67623,0 -1.22443,0.54607 -1.22443,1.21968 0,0.67362 0.5482,1.21969 1.22443,1.21969 0.67624,0 1.22444,-0.54607 1.22444,-1.21969 0,-0.67361 -0.5482,-1.21968 -1.22444,-1.21968 z m 0,0.14158 c 0.59774,0 1.08231,0.48269 1.08231,1.0781 0,0.59542 -0.48457,1.07811 -1.08231,1.07811 -0.59773,0 -1.0823,-0.48269 -1.0823,-1.07811 0,-0.59541 0.48457,-1.0781 1.0823,-1.0781 z"
         style="display:inline;enable-background:new;fill:url(#linearGradient58);stroke:#efbc8d;stroke-width:0"
         id="path3-3-4" />
      <path
         d="m 330.95898,133.939 c -0.99419,0 -1.95032,0.37524 -2.66015,1.05274 l -1.33008,1.27148 -2.85547,2.72461 C 323.40387,139.66507 323,140.59054 323,141.55814 v 0.64844 5.4375 9.45117 c 0,0.0169 10e-6,0.0438 0,0.0606 -0.007,1.41627 0.049,2.53426 0.23633,3.44531 0.18744,0.91159 0.52027,1.63314 1.07226,2.1543 1.10403,1.04232 2.82729,1.17201 5.51563,1.18164 h 0.002 c 0.30676,-4e-5 0.63177,0 0.87305,0 h 10.60156 c 0.24105,0 0.56659,-4e-5 0.87305,0 h 0.002 c 2.68727,-0.01 4.40564,-0.13913 5.50586,-1.18164 0.55011,-0.52125 0.88139,-1.2415 1.07031,-2.15234 0.18893,-0.91087 0.24805,-2.03029 0.24805,-3.44727 -10e-6,-0.0167 0,-0.0436 0,-0.0606 v -6.86328 -5.4375 -3.23633 c 0,-0.96765 -0.40394,-1.89302 -1.11328,-2.57031 l -0.9375,-0.89648 -1.91797,-1.83008 -1.33008,-1.26953 c -0.70982,-0.67749 -1.66595,-1.05274 -2.66015,-1.05274 h -0.56446 -8.95312 z M 336,136.76517 c 0.75074,0 1.35938,0.60864 1.35937,1.35938 0,0.75073 -0.60863,1.35937 -1.35937,1.35937 -0.75074,0 -1.35938,-0.60864 -1.35938,-1.35937 0,-0.75074 0.60865,-1.35938 1.35938,-1.35938 z"
         style="display:inline;enable-background:new;opacity:0.1"
         id="path56" />
      <path
         d="m 331.22782,191.3041 c -0.10077,-0.001 -0.20413,0.007 -0.30767,0.021 -0.0477,0.006 -0.0953,0.0129 -0.1433,0.022 -0.12966,0.0244 -0.25949,0.0577 -0.38884,0.0998 -0.0106,0.004 -0.0215,0.008 -0.0321,0.012 h -10e-4 c -0.55276,0.18528 -1.13933,0.51522 -1.7628,0.96333 -1.27163,0.91396 -2.68888,2.32294 -4.00062,4.03701 -0.6442,0.84177 -1.20229,1.67878 -1.66259,2.47771 -0.15593,0.27063 -0.29588,0.53492 -0.42893,0.79562 -0.27396,0.53683 -0.50296,1.05176 -0.67245,1.52935 -0.24737,0.6971 -0.38277,1.31834 -0.3718,1.85578 0.0109,0.53745 0.18304,1.03885 0.63737,1.31972 0.12682,0.0784 0.26321,0.13055 0.40688,0.16272 v -1.12405 c -0.0373,-0.0981 -0.0635,-0.22721 -0.0671,-0.4053 -0.004,-0.17996 0.0199,-0.3988 0.0671,-0.64289 0.0532,-0.27486 0.13719,-0.58307 0.25655,-0.91941 0.0512,-0.14415 0.10941,-0.29414 0.17238,-0.44722 0.49178,-1.19563 1.33707,-2.64609 2.45729,-4.10988 1.26366,-1.65122 2.63681,-3.00579 3.79519,-3.83835 0.55734,-0.40058 1.06378,-0.67412 1.45815,-0.8106 0.0154,-0.005 0.0341,-0.014 0.0491,-0.019 0.166,-0.054 0.29903,-0.0799 0.40788,-0.0878 0.0878,-0.006 0.16057,-0.002 0.21747,0.012 0.0428,0.0104 0.077,0.0256 0.10522,0.0429 0.0309,0.0191 0.061,0.0468 0.0892,0.0839 0.14763,0.0752 0.31488,0.11879 0.49207,0.11879 0.20095,0 0.38792,-0.0557 0.54918,-0.15073 -0.0884,-0.32494 -0.26297,-0.60803 -0.56322,-0.79363 -0.22716,-0.14044 -0.48599,-0.20128 -0.75863,-0.20465 z"
         style="display:inline;fill:#3f3f3f;stroke-width:0.102876;stroke-linecap:round;enable-background:new"
         id="path25-3" />
      <path
         d="m 332.55002,192.30223 -1.04143,0.0321 c 0,0 -0.19919,0.14291 -0.48318,0.36338 -0.94765,0.73573 -3.35409,2.68512 -5.18483,5.34832 -2.37935,3.46127 -3.34061,5.43 -3.34061,5.43 -0.039,1.59709 0.0949,1.80799 -4.3e-4,3.38973 0,0 1.93885,-4.85562 4.31819,-8.31688 1.67729,-2.43995 3.81654,-4.52089 4.94588,-5.55015 0.47273,-0.43083 0.78656,-0.69647 0.78656,-0.69647 z"
         style="display:inline;fill-opacity:0.103584;stroke-width:0.0102876;stroke-linecap:round;enable-background:new"
         id="path17-2-0"
         sodipodi:nodetypes="ccssccsscc" />
      <path
         d="m 325.80436,237.70271 c -0.41247,0 -0.80817,0.16359 -1.09985,0.4541 l -0.63232,0.62866 -1.3562,1.35132 c -0.29164,0.29054 -0.45533,0.68411 -0.45533,1.09497 v 0.32105 2.69531 4.68506 c -0.011,2.84916 0.31414,3.14453 3.21045,3.14453 0.0678,-7e-5 0.15201,0 0.20997,0 h 5.03417 c 0.0582,0 0.143,-7e-5 0.21118,0 2.89632,0 3.20625,-0.29533 3.20923,-3.14453 v -3.4021 -2.69531 -1.60401 c 0,-0.41089 -0.16368,-0.80438 -0.45532,-1.09497 l -0.44556,-0.44434 -0.91064,-0.90698 -0.63233,-0.62866 c -0.29167,-0.29051 -0.68616,-0.4541 -1.09863,-0.4541 h -0.26855 -4.25293 z m 2.3938,0.77026 c 0.56928,0 1.03028,0.45955 1.03028,1.02661 0,0.56707 -0.461,1.02662 -1.03028,1.02662 -0.56927,0 -1.03027,-0.45955 -1.03027,-1.02662 0,-0.56706 0.461,-1.02661 1.03027,-1.02661 z"
         style="display:inline;fill:#eab305;stroke:#efbc8d;stroke-width:0;enable-background:new;fill-opacity:1"
         id="path58-9" />
      <path
         d="m 325.80469,238.70312 c -0.14963,10e-6 -0.29085,0.0588 -0.39453,0.16211 l -0.63282,0.62891 -1.35547,1.35156 c -0.10509,0.10469 -0.1621,0.24423 -0.1621,0.38672 v 0.32031 2.69532 4.6875 0.002 c -0.003,0.69317 0.02,1.20655 0.0742,1.51953 0.0543,0.31299 0.11478,0.37709 0.13868,0.40039 0.0239,0.0233 0.1069,0.0884 0.43554,0.14258 0.32865,0.0542 0.85543,0.0781 1.5625,0.0781 0.0692,-5e-5 0.15394,10e-6 0.21094,0 h 5.0332 c 0.0575,10e-6 0.14144,-5e-5 0.21094,0 0.70708,10e-6 1.23362,-0.024 1.56055,-0.0781 0.32692,-0.0541 0.40639,-0.11793 0.42969,-0.14063 0.0233,-0.0227 0.0838,-0.0897 0.13867,-0.40429 0.0548,-0.31416 0.0793,-0.82863 0.0801,-1.52149 v -3.40234 -2.69531 -1.60352 c 0,-0.14571 -0.0565,-0.28345 -0.16016,-0.38672 l -0.44531,-0.44336 -0.91016,-0.9082 -0.63281,-0.62891 c -0.10523,-0.10481 -0.24295,-0.16211 -0.39258,-0.16211 h -0.26953 -4.25195 z"
         style="fill:none;stroke:url(#linearGradient30);stroke-opacity:1"
         id="path29" />
      <path
         style="color:#000000;fill:#000000;-inkscape-stroke:none;opacity:0.4"
         d="m 325.80469,237.20312 c -0.54468,0 -1.06775,0.21577 -1.45313,0.59961 l -0.63281,0.62891 -1.35547,1.35156 c -0.38531,0.38387 -0.60351,0.90557 -0.60351,1.44922 v 0.32031 2.69532 4.68554 c -0.003,0.72072 0.0136,1.29186 0.0976,1.77735 0.0842,0.48602 0.25079,0.90983 0.57031,1.2207 0.31953,0.31088 0.74422,0.46762 1.23633,0.54883 0.49211,0.0812 1.07407,0.0977 1.80664,0.0977 0.067,-6e-5 0.15258,0 0.21094,0 h 5.0332 c 0.0586,0 0.14353,-6e-5 0.21094,0 0.73258,0 1.31357,-0.0164 1.80469,-0.0977 0.49112,-0.0813 0.9161,-0.23772 1.23437,-0.54883 0.31828,-0.31111 0.4837,-0.73349 0.56836,-1.21875 0.0847,-0.48526 0.10081,-1.05794 0.10157,-1.7793 v -3.40234 -2.69531 -1.60352 c 0,-0.54367 -0.21632,-1.06536 -0.60157,-1.44922 l -0.44531,-0.44531 -0.91016,-0.90625 -0.63281,-0.62891 c -0.38488,-0.38335 -0.9065,-0.59961 -1.45117,-0.59961 h -0.26953 -4.25195 z m 0,1 h 0.26758 4.25195 0.26953 c 0.28027,0 0.54764,0.11094 0.74609,0.3086 l 0.63086,0.6289 0.91016,0.90625 0.44726,0.44336 c 0.19804,0.19732 0.30665,0.46409 0.30665,0.74219 v 1.60352 2.69531 3.40234 c -7.4e-4,0.70324 -0.0231,1.23598 -0.0879,1.60743 -0.0648,0.37145 -0.15963,0.5569 -0.28125,0.67578 -0.12161,0.11887 -0.31558,0.21419 -0.69726,0.27734 -0.38168,0.0632 -0.927,0.084 -1.64258,0.084 -0.0686,-6e-5 -0.15367,10e-6 -0.21094,0 h -5.0332 c -0.0576,0 -0.14237,-7e-5 -0.21094,0 -0.71557,0 -1.25948,-0.0208 -1.64258,-0.084 -0.38309,-0.0632 -0.58069,-0.16018 -0.70312,-0.2793 -0.12243,-0.11911 -0.21705,-0.30314 -0.28125,-0.67382 -0.0642,-0.37069 -0.0867,-0.90273 -0.084,-1.60547 v -0.002 -4.68554 -2.69532 -0.32031 c 0,-0.27804 0.11063,-0.54497 0.30859,-0.74219 l 1.35742,-1.34961 0.63086,-0.6289 c 0.19796,-0.19717 0.46778,-0.3086 0.74805,-0.3086 z"
         id="path59-2" />
      <path
         d="m 325.80393,237.70268 c -0.41247,0 -0.8082,0.16309 -1.09988,0.45359 l -0.63198,0.62954 -1.35606,1.35078 c -0.29163,0.29054 -0.45535,0.68474 -0.45535,1.09561 v 0.32069 2.68784 l 0.26808,-6.2e-4 5.6691,-0.0237 h 5.93781 v -1.38011 -1.60409 c 0,-0.4109 -0.16372,-0.80502 -0.45536,-1.09561 l -0.44534,-0.44423 -0.91134,-0.90718 -0.63136,-0.62891 c -0.29167,-0.29051 -0.68678,-0.45359 -1.09925,-0.45359 h -0.26869 -4.2523 z m 2.39454,0.76992 c 0.0403,0 0.0799,0.003 0.119,0.007 0.0149,0.002 0.0297,0.004 0.0444,0.007 0.0212,0.003 0.0419,0.008 0.0626,0.0125 0.11631,0.0263 0.22715,0.0726 0.32758,0.13664 0.0135,0.009 0.027,0.0169 0.0401,0.0262 0.0958,0.0677 0.17926,0.1513 0.24678,0.24707 0.008,0.0119 0.0164,0.0239 0.0244,0.0362 0.064,0.0991 0.1104,0.20841 0.13717,0.32319 0.006,0.0268 0.0122,0.0536 0.0163,0.0811 0.001,0.008 0.002,0.0157 0.004,0.0237 0.005,0.0414 0.008,0.0832 0.008,0.12603 0,0.0427 -0.003,0.0846 -0.008,0.12603 -10e-4,0.008 -0.002,0.0158 -0.004,0.0237 -0.004,0.0275 -0.0101,0.0544 -0.0163,0.0811 -0.0124,0.0561 -0.0297,0.11093 -0.0514,0.1641 -0.003,0.008 -0.007,0.0144 -0.0106,0.0219 -0.0216,0.0476 -0.0466,0.0935 -0.0752,0.13726 -0.008,0.0122 -0.0154,0.0243 -0.0238,0.0362 -0.068,0.0961 -0.15214,0.17993 -0.24865,0.2477 -0.0118,0.008 -0.0241,0.0159 -0.0363,0.0237 -0.0443,0.0287 -0.0908,0.0539 -0.13905,0.0755 -0.007,0.003 -0.0139,0.007 -0.0213,0.01 -0.0531,0.0216 -0.10805,0.0387 -0.1641,0.0512 -0.0269,0.006 -0.0538,0.0122 -0.0814,0.0162 -0.008,10e-4 -0.0159,0.003 -0.0238,0.004 -0.0416,0.005 -0.0836,0.008 -0.12653,0.008 -0.13864,0 -0.27071,-0.0279 -0.39147,-0.0774 -0.002,-3.2e-4 -0.003,-0.001 -0.004,-0.001 -0.25101,-0.10397 -0.4517,-0.30349 -0.5562,-0.55342 -3.2e-4,-0.002 -10e-4,-0.003 -10e-4,-0.004 -0.0497,-0.12023 -0.0777,-0.25186 -0.0777,-0.38995 0,-0.1376 0.0278,-0.26814 0.077,-0.38808 10e-4,-0.002 0.002,-0.004 0.003,-0.006 0.10442,-0.2493 0.30414,-0.44865 0.55433,-0.55279 0.004,-0.001 0.007,-0.002 0.0112,-0.004 0.11928,-0.0481 0.24929,-0.0761 0.38584,-0.0761 z"
         style="display:inline;opacity:0.07;stroke:#efbc8d;stroke-width:0;enable-background:new"
         id="path24-7-7" />
      <path
         d="m 328.19829,238.47266 c -0.56926,0 -1.03076,0.4597 -1.03076,1.02676 0,0.56706 0.4615,1.02677 1.03076,1.02677 0.56928,0 1.03077,-0.45971 1.03077,-1.02677 0,-0.56706 -0.46149,-1.02676 -1.03077,-1.02676 z m 0,0.26446 c 0.42265,0 0.76528,0.3413 0.76528,0.7623 0,0.42101 -0.34263,0.76231 -0.76528,0.76231 -0.42264,0 -0.76526,-0.3413 -0.76526,-0.76231 0,-0.421 0.34262,-0.7623 0.76526,-0.7623 z"
         style="display:inline;fill:url(#linearGradient1);stroke:#efbc8d;stroke-width:0;enable-background:new"
         id="path4-2-4-0" />
      <path
         d="m 328.19829,238.73712 c -0.42264,0 -0.76526,0.3413 -0.76526,0.7623 0,0.42101 0.34262,0.76231 0.76526,0.76231 0.42265,0 0.76528,-0.3413 0.76528,-0.76231 0,-0.421 -0.34263,-0.7623 -0.76528,-0.7623 z m 0,0.0885 c 0.37359,0 0.67645,0.30168 0.67645,0.67381 0,0.37214 -0.30286,0.67382 -0.67645,0.67382 -0.37358,0 -0.67643,-0.30168 -0.67643,-0.67382 0,-0.37213 0.30285,-0.67381 0.67643,-0.67381 z"
         style="display:inline;fill:url(#linearGradient3);stroke:#efbc8d;stroke-width:0;enable-background:new"
         id="path3-3-4-3" />
      <path
         d="m 327.71555,239.45527 c -0.063,-6.2e-4 -0.12758,0.004 -0.19229,0.0131 -0.0298,0.004 -0.0596,0.008 -0.0896,0.0137 -0.081,0.0153 -0.16218,0.0361 -0.24302,0.0624 -0.007,0.002 -0.0134,0.005 -0.0201,0.007 h -6.3e-4 c -0.34547,0.1158 -0.71208,0.32201 -1.10175,0.60208 -0.79477,0.57123 -1.68055,1.45184 -2.50039,2.52313 -0.40262,0.52611 -0.75143,1.04924 -1.03911,1.54857 -0.0975,0.16915 -0.18493,0.33433 -0.26809,0.49727 -0.17122,0.33551 -0.31435,0.65735 -0.42028,0.95584 -0.1546,0.43569 -0.23923,0.82396 -0.23237,1.15986 0.007,0.33591 0.1144,0.64928 0.39835,0.82483 0.0793,0.049 0.16451,0.0816 0.2543,0.1017 v -0.70253 c -0.0233,-0.0613 -0.0397,-0.14201 -0.0419,-0.25332 -0.002,-0.11247 0.0124,-0.24925 0.0419,-0.4018 0.0333,-0.17179 0.0858,-0.36442 0.16035,-0.57463 0.032,-0.0901 0.0684,-0.18384 0.10774,-0.27952 0.30736,-0.74727 0.83566,-1.6538 1.5358,-2.56867 0.78979,-1.03201 1.64801,-1.87862 2.372,-2.39897 0.34833,-0.25036 0.66486,-0.42133 0.91134,-0.50662 0.01,-0.003 0.0213,-0.009 0.0307,-0.0119 0.10375,-0.0337 0.18689,-0.0499 0.25492,-0.0549 0.0549,-0.004 0.10036,-0.001 0.13592,0.008 0.0267,0.007 0.0481,0.016 0.0658,0.0268 0.0193,0.0119 0.0381,0.0292 0.0557,0.0524 0.0923,0.047 0.1968,0.0742 0.30755,0.0742 0.12559,0 0.24245,-0.0348 0.34323,-0.0942 -0.0553,-0.20309 -0.16435,-0.38002 -0.35201,-0.49602 -0.14197,-0.0878 -0.30374,-0.1258 -0.47414,-0.1279 z"
         style="display:inline;fill:#3f3f3f;stroke-width:0.0642975;stroke-linecap:round;enable-background:new"
         id="path25-3-6" />
      <path
         d="m 328.54193,240.0791 -0.6509,0.0201 c 0,0 -0.12449,0.0893 -0.30199,0.22711 -0.59228,0.45983 -2.0963,1.6782 -3.24051,3.3427 -1.4871,2.16329 -2.08789,3.39375 -2.08789,3.39375 -0.0244,0.99818 0.0593,1.12999 -2.6e-4,2.11858 0,0 1.21178,-3.03476 2.69886,-5.19805 1.04831,-1.52497 2.38534,-2.82556 3.09118,-3.46884 0.29546,-0.26927 0.4916,-0.4353 0.4916,-0.4353 z"
         style="display:inline;fill-opacity:0.103584;stroke-width:0.00642975;stroke-linecap:round;enable-background:new"
         id="path17-2-0-0"
         sodipodi:nodetypes="ccssccsscc" />
      <path
         d="m 336.00059,135.05304 c -1.14397,0 -2.07136,0.92739 -2.07136,2.07137 0,1.14397 0.92739,2.07137 2.07136,2.07137 1.14397,0 2.07138,-0.9274 2.07138,-2.07137 0,-1.14398 -0.92741,-2.07137 -2.07138,-2.07137 z m 0,0.53352 c 0.84933,0 1.53786,0.68851 1.53786,1.53785 0,0.84933 -0.68853,1.53785 -1.53786,1.53785 -0.84933,0 -1.53785,-0.68852 -1.53785,-1.53785 0,-0.84934 0.68852,-1.53785 1.53785,-1.53785 z"
         style="display:inline;fill:url(#linearGradient41);stroke:#efbc8d;stroke-width:0;enable-background:new"
         id="path4-2-1" />
      <path
         d="m 330.95898,133.5 c -0.86831,0 -1.70042,0.328 -2.31445,0.91406 l -1.33008,1.27149 -2.85547,2.72461 c -0.61396,0.58612 -0.95898,1.38011 -0.95898,2.20898 v 0.64844 5.4375 9.45117 c 0,0.0167 10e-6,0.0434 0,0.0606 -0.0288,5.60893 0.99,6.26215 6.32617,6.28125 0.30685,-3e-5 0.63183,0 0.87305,0 h 10.60156 c 0.24099,0 0.5665,-3e-5 0.87305,0 5.33401,-0.0191 6.32617,-0.67226 6.32617,-6.28125 -10e-6,-0.0172 0,-0.0438 0,-0.0606 v -6.86328 -5.4375 -3.23633 c 0,-0.82894 -0.34502,-1.62276 -0.95898,-2.20898 l -0.9375,-0.89649 -1.91797,-1.83008 -1.33008,-1.26953 C 342.74145,133.828 341.90934,133.5 341.04102,133.5 h -0.56446 -8.95312 z M 336,135.05273 c 0.071,0 0.14172,0.003 0.21094,0.01 0.0239,0.002 0.0486,0.007 0.0723,0.01 0.0108,0.001 0.0224,0.002 0.0332,0.004 0.007,0.001 0.0143,0.003 0.0215,0.004 0.98378,0.16115 1.73438,1.01574 1.73438,2.04492 0,0.96969 -0.66661,1.78423 -1.56641,2.00977 -0.029,0.007 -0.0584,0.0135 -0.0879,0.0195 -0.13532,0.0252 -0.27492,0.041 -0.41797,0.041 -0.12668,0 -0.25037,-0.0133 -0.37109,-0.0332 -0.96653,-0.17516 -1.69922,-1.02006 -1.69922,-2.03711 0,-1.03139 0.75365,-1.88837 1.74023,-2.04688 0.0129,-0.002 0.0261,-0.004 0.0391,-0.006 0.0266,-0.004 0.0532,-0.007 0.0801,-0.01 0.0692,-0.006 0.13997,-0.01 0.21094,-0.01 z"
         style="display:inline;fill:#eab305;stroke:#efbc8d;stroke-width:0;enable-background:new;fill-opacity:1"
         id="path45" />
      <path
         d="m 336.00059,135.58656 c -0.84933,0 -1.53785,0.68851 -1.53785,1.53785 0,0.84933 0.68852,1.53785 1.53785,1.53785 0.84933,0 1.53786,-0.68852 1.53786,-1.53785 0,-0.84934 -0.68853,-1.53785 -1.53786,-1.53785 z m 0,0.17851 c 0.75074,0 1.35935,0.6086 1.35935,1.35934 0,0.75073 -0.60861,1.35933 -1.35935,1.35933 -0.75074,0 -1.35934,-0.6086 -1.35934,-1.35933 0,-0.75074 0.60861,-1.35934 1.35934,-1.35934 z"
         style="display:inline;fill:url(#linearGradient42);stroke:#efbc8d;stroke-width:0;enable-background:new"
         id="path3-3-9" />
      <path
         d="m 330.95898,134 c -0.74237,0 -1.45047,0.28082 -1.96875,0.77539 l -1.33007,1.27148 -2.85547,2.72461 C 324.28619,139.26647 324,139.92903 324,140.61914 v 0.64844 5.4375 9.45117 c 0,0.0166 10e-6,0.0428 0,0.0606 v 0.002 c -0.007,1.38704 0.0546,2.45319 0.2168,3.24219 0.16223,0.78899 0.41123,1.28327 0.77734,1.6289 0.73199,0.69109 2.18582,0.89821 4.83203,0.90821 h 0.002 c 0.30632,-3e-5 0.63046,0 0.8711,0 h 10.60156 c 0.24041,0 0.5651,-3e-5 0.87109,0 2.6467,-0.009 4.09292,-0.21711 4.82227,-0.90821 0.36468,-0.34553 0.61356,-0.83919 0.77734,-1.6289 0.16377,-0.78983 0.22852,-1.85665 0.22852,-3.24414 -10e-6,-0.0178 0,-0.0439 0,-0.0606 v -6.86328 -5.4375 -3.23633 c 0,-0.69019 -0.28612,-1.35252 -0.80469,-1.84766 l -0.9375,-0.89648 -1.91797,-1.83008 -1.33007,-1.26953 C 342.49155,134.28083 341.7834,134 341.04102,134 h -0.56446 -8.95312 z m 0,1 h 0.56446 8.95312 0.56446 c 0.49024,0 0.95348,0.18711 1.27929,0.49805 l 1.33008,1.26953 1.91602,1.83008 0.9375,0.89648 c 0.3293,0.31442 0.49609,0.71118 0.49609,1.125 v 3.23633 5.4375 6.86328 c 0,0.0163 -10e-6,0.0418 0,0.0606 0,1.3564 -0.069,2.37522 -0.20703,3.04101 -0.1397,0.67361 -0.30196,0.93078 -0.48633,1.10547 -0.32302,0.30608 -1.54315,0.62594 -4.13867,0.63477 -0.30493,-3e-5 -0.62794,0 -0.86719,0 h -10.60156 c -0.24002,0 -0.5633,-3e-5 -0.86914,0 h -0.004 c -2.59187,-0.0102 -3.82278,-0.32916 -4.14648,-0.63477 -0.18463,-0.1743 -0.34426,-0.43156 -0.48242,-1.10351 -0.13648,-0.66388 -0.20411,-1.68031 -0.19727,-3.03516 v -0.004 -0.004 c 10e-6,-0.0187 0,-0.0444 0,-0.0606 v -9.45117 -5.4375 -0.64844 c 0,-0.41364 0.16704,-0.81086 0.49609,-1.125 l 2.85547,-2.72461 1.32813,-1.27148 C 330.00573,135.1872 330.46878,135 330.95898,135 Z"
         style="display:inline;enable-background:new;fill:url(#linearGradient54)"
         id="path53" />
      <path
         d="m 330.95898,133.5 c -0.8683,0 -1.70042,0.328 -2.31445,0.91406 l -1.33008,1.27149 -2.85547,2.72461 c -0.61395,0.58611 -0.95898,1.38011 -0.95898,2.20898 v 0.64844 5.4375 9.45117 c 0,0.0167 10e-6,0.0434 0,0.0606 -0.0288,5.6089 0.99002,6.26214 6.32617,6.28125 0.30685,-4e-5 0.63183,0 0.87305,0 h 10.60156 c 0.24099,0 0.5665,-4e-5 0.87305,0 5.33399,-0.0191 6.32617,-0.67228 6.32617,-6.28125 -10e-6,-0.0172 0,-0.0438 0,-0.0606 v -6.86328 -5.4375 -3.23633 c 0,-0.82893 -0.34503,-1.62277 -0.95898,-2.20898 l -0.9375,-0.89649 -1.91797,-1.83008 -1.33008,-1.26953 C 342.74145,133.82801 341.90933,133.5 341.04102,133.5 h -0.56446 -8.95312 z"
         style="display:inline;enable-background:new;fill:none;stroke:#000000;opacity:0.4"
         id="path47" />
      <path
         d="m 330.95898,133.5 c -0.86832,0 -1.70042,0.328 -2.31445,0.91406 l -1.33008,1.27149 -2.85547,2.72461 c -0.61395,0.58611 -0.95898,1.38012 -0.95898,2.20898 v 0.64844 5.42187 l 0.56445,-0.002 L 336,146.64062 h 12.5 v -2.78515 -3.23438 c 0,-0.82894 -0.34502,-1.6247 -0.95898,-2.21093 l -0.9375,-0.89649 -1.91797,-1.83008 -1.33008,-1.26757 C 342.74145,133.82996 341.90933,133.5 341.04102,133.5 h -0.56446 -8.95312 z M 336,135.05273 h 0.002 c 0.0843,1e-4 0.16827,0.007 0.25,0.0156 0.0313,0.003 0.0625,0.008 0.0937,0.0137 0.0266,0.004 0.0522,0.0103 0.0781,0.0156 0.0294,0.006 0.059,0.0122 0.0879,0.0195 0.89688,0.22752 1.56055,1.04019 1.56055,2.00781 0,0.98977 -0.69497,1.81635 -1.62305,2.02148 -0.0245,0.005 -0.0494,0.009 -0.0742,0.0137 -0.0192,0.003 -0.0372,0.009 -0.0566,0.0117 -0.0167,0.002 -0.0341,0.005 -0.0508,0.008 -0.008,9.9e-4 -0.0171,0.001 -0.0254,0.002 -0.0792,0.009 -0.16051,0.0137 -0.24219,0.0137 -0.13162,0 -0.2601,-0.0134 -0.38477,-0.0352 -0.008,-0.001 -0.0157,-0.002 -0.0234,-0.004 -0.0316,-0.006 -0.0627,-0.0137 -0.0937,-0.0215 -0.90119,-0.22457 -1.56836,-1.03905 -1.56836,-2.00977 0,-1.00479 0.71483,-1.84229 1.66406,-2.03125 6.3e-4,-1.1e-4 0.001,1.2e-4 0.002,0 0.13129,-0.0251 0.26548,-0.0409 0.4043,-0.041 z"
         style="display:inline;opacity:0.07;stroke:#efbc8d;stroke-width:0;enable-background:new"
         id="path44" />
      <path
         d="m 334.98415,137.03533 c -0.13259,-10e-4 -0.2686,0.009 -0.4048,0.0264 -0.0627,0.008 -0.1254,0.0163 -0.18856,0.0277 -0.1706,0.0308 -0.34142,0.0727 -0.51163,0.12586 -0.0139,0.005 -0.0283,0.0104 -0.0422,0.0151 h -10e-4 c -0.7273,0.23361 -1.49909,0.64961 -2.31943,1.21463 -1.67317,1.15237 -3.53796,2.92888 -5.2639,5.0901 -0.84762,1.06136 -1.58192,2.1167 -2.18759,3.12403 -0.20517,0.34123 -0.38931,0.67447 -0.56437,1.00317 -0.36047,0.67687 -0.66178,1.32613 -0.88479,1.9283 -0.3255,0.87895 -0.50363,1.66224 -0.48919,2.33989 0.0145,0.67764 0.24081,1.30984 0.83863,1.66397 0.16687,0.0988 0.34633,0.16461 0.53535,0.20517 v -1.41727 c -0.049,-0.12362 -0.0836,-0.28648 -0.0883,-0.51103 -0.005,-0.2269 0.0262,-0.50283 0.0883,-0.81058 0.0699,-0.34657 0.18052,-0.73519 0.33756,-1.15926 0.0674,-0.18175 0.14396,-0.37088 0.22681,-0.56389 0.64709,-1.5075 1.75928,-3.33633 3.23324,-5.18198 1.66266,-2.08194 3.46942,-3.78988 4.99359,-4.83962 0.73333,-0.50507 1.39968,-0.84997 1.91858,-1.02205 0.0204,-0.007 0.0447,-0.0177 0.0645,-0.0239 0.21843,-0.0681 0.39347,-0.10077 0.53668,-0.11073 0.1154,-0.008 0.21127,-0.002 0.28614,0.0151 0.0562,0.013 0.10141,0.0322 0.13845,0.0541 0.0405,0.0241 0.0804,0.059 0.11735,0.10575 0.19425,0.0947 0.4143,0.14978 0.64744,0.14978 0.26442,0 0.51042,-0.0702 0.7226,-0.19006 -0.11626,-0.4097 -0.34601,-0.76663 -0.74106,-1.00066 -0.29889,-0.17706 -0.63947,-0.25379 -0.9982,-0.25802 z"
         style="display:inline;fill:#3f3f3f;stroke-width:0.132507;stroke-linecap:round;enable-background:new"
         id="path25-4" />
      <path
         d="m 336.72388,138.29385 -1.37029,0.0404 c 0,0 -0.26211,0.18018 -0.63575,0.45816 -1.24691,0.92764 -4.4132,3.38556 -6.82205,6.74348 -3.13066,4.36418 -4.39546,6.84647 -4.39546,6.84647 -0.0512,2.01371 0.1248,2.27963 -5.6e-4,4.27398 0,0 2.55106,-6.12225 5.68174,-10.48643 2.20692,-3.07644 5.02167,-5.70021 6.50762,-6.99796 0.622,-0.54321 1.03495,-0.87815 1.03495,-0.87815 z"
         style="display:inline;fill-opacity:0.103584;stroke-width:0.0132507;stroke-linecap:round;enable-background:new"
         id="path17-2-7"
         sodipodi:nodetypes="ccssccsscc" />
      <path
         style="opacity:1;fill:#000000;fill-opacity:0.103584;stroke:none;stroke-width:0.1;stroke-linecap:round;stroke-dasharray:none;stroke-opacity:1;paint-order:normal"
         d="m 344.01626,81.985466 26.67865,0.100444"
         id="path22" />
      <path
         d="m 344.01758,66.587891 a 4.5,4.5 0 0 0 -4.5,4.5 4.5,4.5 0 0 0 4.5,4.5 4.5,4.5 0 0 0 4.5,-4.5 4.5,4.5 0 0 0 -4.5,-4.5 z m 0,1 a 3.5,3.5 0 0 1 3.5,3.5 3.5,3.5 0 0 1 -3.5,3.5 3.5,3.5 0 0 1 -3.5,-3.5 3.5,3.5 0 0 1 3.5,-3.5 z"
         style="opacity:1;fill:url(#linearGradient11);stroke-width:3.40919;stroke-linecap:round"
         id="path10" />
      <path
         d="m 337.5,94 c -0.8284,0 -1.5,0.671614 -1.5,1.5 0,0.175681 0.0304,0.343332 0.0859,0.5 0.2062,0.582066 0.76135,1 1.41406,1 0.65271,0 1.20591,-0.417934 1.41211,-1 C 338.96761,95.843332 339,95.675681 339,95.5 339,94.671614 338.3284,94 337.5,94 Z"
         style="display:inline;fill:#ffda63;stroke-width:2;stroke-linecap:round;enable-background:new;fill-opacity:1"
         id="path51" />
      <path
         d="m 348.5,94 c -0.82842,0 -1.5,0.671602 -1.5,1.5 0,0.175683 0.0304,0.343332 0.0859,0.5 0.2062,0.582069 0.76133,1 1.41406,1 0.65273,0 1.20591,-0.417931 1.41211,-1 C 349.96761,95.843332 350,95.675683 350,95.5 350,94.671602 349.32842,94 348.5,94 Z"
         style="display:inline;fill:#ffda63;stroke-width:2;stroke-linecap:round;enable-background:new;fill-opacity:1"
         id="path50" />
      <path
         d="m 349.91211,96 c -0.2062,0.58207 -0.75938,1 -1.41211,1 -0.65273,0 -1.20786,-0.41793 -1.41406,-1 -0.0555,0.156669 -0.0859,0.324317 -0.0859,0.5 0,0.828399 0.67158,1.5 1.5,1.5 0.82842,0 1.5,-0.671601 1.5,-1.5 0,-0.175683 -0.0324,-0.343331 -0.0879,-0.5 z"
         style="display:inline;fill:#d49500;stroke-width:2;stroke-linecap:round;enable-background:new;fill-opacity:1"
         id="path49" />
      <path
         d="m 338.91211,96 c -0.20621,0.582067 -0.75939,1 -1.41211,1 -0.65272,0 -1.20786,-0.417933 -1.41406,-1 -0.0555,0.156668 -0.0859,0.324319 -0.0859,0.5 0,0.828389 0.6716,1.5 1.5,1.5 0.8284,0 1.5,-0.671611 1.5,-1.5 0,-0.175681 -0.0324,-0.343332 -0.0879,-0.5 z"
         style="display:inline;fill:#d49500;stroke-width:2;stroke-linecap:round;enable-background:new;fill-opacity:1"
         id="path48" />
      <path
         d="m 343,81 c -2.20911,0 -4,1.790892 -4,4 v 1 c 0,-2.209108 1.79089,-4 4,-4 h 6 c 2.20912,0 4,1.790883 4,4 v -1 c 0,-2.209117 -1.79088,-4 -4,-4 z"
         style="display:inline;fill:#d49500;stroke-width:2;stroke-linecap:round;enable-background:new;fill-opacity:1"
         id="path46" />
      <path
         d="m 344.0293,96 c 0.24866,-2.249998 2.15446,-4 4.4707,-4 0.51112,7.72e-4 1.01838,0.08862 1.5,0.259766 v -1 C 349.51838,91.088619 349.01112,91.000772 348.5,91 c -2.48518,0 -4.5,2.014799 -4.5,4.5 0,0.168943 0.0112,0.33589 0.0293,0.5 z"
         style="display:inline;fill:#d49500;stroke-width:2;stroke-linecap:round;enable-background:new;fill-opacity:1"
         id="path43" />
      <path
         d="m 333.0293,96 c 0.24866,-2.249966 2.15449,-4 4.4707,-4 0.51111,7.73e-4 1.01839,0.08862 1.5,0.259766 v -1 C 338.51839,91.088622 338.01111,91.000773 337.5,91 c -2.48515,0 -4.5,2.014844 -4.5,4.5 0,0.16894 0.0112,0.335892 0.0293,0.5 z"
         style="display:inline;fill:#d49500;stroke-width:2;stroke-linecap:round;enable-background:new;fill-opacity:1"
         id="path42" />
      <path
         d="m 353,86 c 0,-2.209117 -1.79088,-4 -4,-4 h -6 c -2.20911,0 -4,1.790892 -4,4 v 6.259766 C 338.51839,92.088622 338.01111,92.000773 337.5,92 c -2.31621,0 -4.22204,1.750034 -4.4707,4 0.24866,2.249966 2.15449,4 4.4707,4 2.48515,0 4.5,-2.014844 4.5,-4.5 V 89.861328 88 86 85 c 0,-0.552275 0.44773,-1 1,-1 h 2 0.13867 1.73242 0.12891 2 c 0.55228,0 1,0.447717 1,1 v 1 2 1.861328 2.398438 C 349.51838,92.088619 349.01112,92.000772 348.5,92 c -2.31624,0 -4.22204,1.750002 -4.4707,4 0.24866,2.25 2.15446,4 4.4707,4 2.48518,0 4.5,-2.014796 4.5,-4.5 z m -15.5,8 c 0.8284,0 1.5,0.671613 1.5,1.5 0,0.175681 -0.0324,0.343332 -0.0879,0.5 0.0555,0.156668 0.0879,0.324319 0.0879,0.5 0,0.828389 -0.6716,1.5 -1.5,1.5 -0.8284,0 -1.5,-0.671611 -1.5,-1.5 0,-0.175681 0.0304,-0.343332 0.0859,-0.5 C 336.03044,95.843332 336,95.675681 336,95.5 c 0,-0.828387 0.6716,-1.5 1.5,-1.5 z m 11,0 c 0.82842,0 1.5,0.671601 1.5,1.5 0,0.175683 -0.0324,0.343331 -0.0879,0.5 0.0555,0.156669 0.0879,0.324317 0.0879,0.5 0,0.828399 -0.67158,1.5 -1.5,1.5 -0.82842,0 -1.5,-0.671601 -1.5,-1.5 0,-0.175683 0.0304,-0.343331 0.0859,-0.5 C 347.03044,95.843331 347,95.675683 347,95.5 c 0,-0.828399 0.67158,-1.5 1.5,-1.5 z"
         style="display:inline;fill:#f2ba02;stroke-width:2;stroke-linecap:round;enable-background:new;fill-opacity:1"
         id="path41" />
    </g>
    <g
       inkscape:groupmode="layer"
       id="layer6"
       inkscape:label="Pictograms"
       style="display:inline" />
    <g
       inkscape:groupmode="layer"
       id="layer5"
       inkscape:label="Highlights"
       style="display:inline" />
  </g>
</svg>
